<?xml version="1.0" encoding="ISO8859-1"?>
<svg xmlns="http://www.w3.org/2000/svg" xmlns:xlink="http://www.w3.org/1999/xlink" width="288px" height="252px" viewBox="0 0 288 252" version="1.1" id="Fig:dens">
  <metadata xmlns:gridsvg="http://www.stat.auckland.ac.nz/~paul/R/gridSVG/">
    <gridsvg:generator name="gridSVG" version="1.7-1" time="2020-05-03 01:01:52"/>
    <gridsvg:argument name="name" value="./results/QCDir.Raw/dens.svg"/>
    <gridsvg:argument name="exportCoords" value="none"/>
    <gridsvg:argument name="exportMappings" value="none"/>
    <gridsvg:argument name="exportJS" value="none"/>
    <gridsvg:argument name="res" value="72"/>
    <gridsvg:argument name="prefix" value="Fig:dens"/>
    <gridsvg:argument name="addClasses" value="FALSE"/>
    <gridsvg:argument name="indent" value="TRUE"/>
    <gridsvg:argument name="htmlWrapper" value="FALSE"/>
    <gridsvg:argument name="usePaths" value="none"/>
    <gridsvg:argument name="uniqueNames" value="TRUE"/>
    <gridsvg:separator name="id.sep" value="."/>
    <gridsvg:separator name="gPath.sep" value="::"/>
    <gridsvg:separator name="vpPath.sep" value="::"/>
  </metadata>
  <g transform="translate(0, 252) scale(1, -1)">
    <g id="Fig:densgridSVG" fill="none" stroke="rgb(0,0,0)" stroke-dasharray="none" stroke-width="0.75" font-size="12" font-family="Helvetica, Arial, FreeSans, Liberation Sans, Nimbus Sans L, sans-serif" opacity="1" stroke-linecap="round" stroke-linejoin="round" stroke-miterlimit="10" stroke-opacity="1" fill-opacity="0" font-weight="normal" font-style="normal">
      <g id="Fig:densplot_01.background.1">
        <rect id="Fig:densplot_01.background.1.1" x="0" y="0" width="288" height="252" transform="" fill="none" stroke="none" stroke-opacity="0" fill-opacity="0"/>
      </g>
      <g id="Fig:densplot_01.toplevel.vp.1" font-size="12">
        <g id="Fig:densplot_01.ylab.vp.1">
          <g id="Fig:densplot_01.ylab.1">
            <g id="Fig:densplot_01.ylab.1.1" transform="translate(10.31, 138.09)" stroke-width="0.1">
              <g id="Fig:densplot_01.ylab.1.1.scale" transform="scale(1, -1)">
                <text x="0" y="0" id="Fig:densplot_01.ylab.1.1.text" transform="rotate(-90)" text-anchor="middle" opacity="1" stroke="rgb(0,0,0)" fill="rgb(0,0,0)" stroke-opacity="1" fill-opacity="1" font-size="12" font-weight="normal" font-style="normal">
                  <tspan id="Fig:densplot_01.ylab.1.1.tspan.1" dy="4.31" x="0">Density</tspan>
                </text>
              </g>
            </g>
          </g>
        </g>
        <g id="Fig:densplot_01.figure.vp.1"/>
        <defs>
          <clipPath id="Fig:densplot_01.panel.1.1.vp.1.clipPath">
            <rect x="44.8" y="42.19" width="231.2" height="191.81" fill="none" stroke="none"/>
          </clipPath>
        </defs>
        <g id="Fig:densplot_01.panel.1.1.vp.1" clip-path="url(#Fig:densplot_01.panel.1.1.vp.1.clipPath)"/>
        <g id="Fig:densplot_01.strip.1.1.off.vp.1"/>
        <g id="Fig:densplot_01.strip.left.1.1.off.vp.1">
          <g id="Fig:densplot_01.ticks.left.panel.1.1.1">
            <polyline id="Fig:densplot_01.ticks.left.panel.1.1.1.1" points="44.8,53.97 39.13,53.97" stroke="rgb(0,0,0)" opacity="1" stroke-dasharray="none" stroke-width="0.75" stroke-opacity="1" fill="none"/>
            <polyline id="Fig:densplot_01.ticks.left.panel.1.1.1.2" points="44.8,91.56 39.13,91.56" stroke="rgb(0,0,0)" opacity="1" stroke-dasharray="none" stroke-width="0.75" stroke-opacity="1" fill="none"/>
            <polyline id="Fig:densplot_01.ticks.left.panel.1.1.1.3" points="44.8,129.15 39.13,129.15" stroke="rgb(0,0,0)" opacity="1" stroke-dasharray="none" stroke-width="0.75" stroke-opacity="1" fill="none"/>
            <polyline id="Fig:densplot_01.ticks.left.panel.1.1.1.4" points="44.8,166.74 39.13,166.74" stroke="rgb(0,0,0)" opacity="1" stroke-dasharray="none" stroke-width="0.75" stroke-opacity="1" fill="none"/>
            <polyline id="Fig:densplot_01.ticks.left.panel.1.1.1.5" points="44.8,204.33 39.13,204.33" stroke="rgb(0,0,0)" opacity="1" stroke-dasharray="none" stroke-width="0.75" stroke-opacity="1" fill="none"/>
          </g>
          <g id="Fig:densplot_01.ticklabels.left.panel.1.1.1">
            <g id="Fig:densplot_01.ticklabels.left.panel.1.1.1.1" transform="translate(33.47, 53.97)" stroke-width="0.1">
              <g id="Fig:densplot_01.ticklabels.left.panel.1.1.1.1.scale" transform="scale(1, -1)">
                <text x="0" y="0" id="Fig:densplot_01.ticklabels.left.panel.1.1.1.1.text" transform="rotate(-90)" text-anchor="middle" stroke="rgb(0,0,0)" opacity="1" fill="rgb(0,0,0)" stroke-opacity="1" fill-opacity="1" font-size="9.6" font-weight="normal" font-style="normal">
                  <tspan id="Fig:densplot_01.ticklabels.left.panel.1.1.1.1.tspan.1" dy="0" x="0">0.000</tspan>
                </text>
              </g>
            </g>
            <g id="Fig:densplot_01.ticklabels.left.panel.1.1.1.2" transform="translate(33.47, 91.56)" stroke-width="0.1">
              <g id="Fig:densplot_01.ticklabels.left.panel.1.1.1.2.scale" transform="scale(1, -1)">
                <text x="0" y="0" id="Fig:densplot_01.ticklabels.left.panel.1.1.1.2.text" transform="rotate(-90)" text-anchor="middle" stroke="rgb(0,0,0)" opacity="1" fill="rgb(0,0,0)" stroke-opacity="1" fill-opacity="1" font-size="9.6" font-weight="normal" font-style="normal">
                  <tspan id="Fig:densplot_01.ticklabels.left.panel.1.1.1.2.tspan.1" dy="0" x="0">0.001</tspan>
                </text>
              </g>
            </g>
            <g id="Fig:densplot_01.ticklabels.left.panel.1.1.1.3" transform="translate(33.47, 129.15)" stroke-width="0.1">
              <g id="Fig:densplot_01.ticklabels.left.panel.1.1.1.3.scale" transform="scale(1, -1)">
                <text x="0" y="0" id="Fig:densplot_01.ticklabels.left.panel.1.1.1.3.text" transform="rotate(-90)" text-anchor="middle" stroke="rgb(0,0,0)" opacity="1" fill="rgb(0,0,0)" stroke-opacity="1" fill-opacity="1" font-size="9.6" font-weight="normal" font-style="normal">
                  <tspan id="Fig:densplot_01.ticklabels.left.panel.1.1.1.3.tspan.1" dy="0" x="0">0.002</tspan>
                </text>
              </g>
            </g>
            <g id="Fig:densplot_01.ticklabels.left.panel.1.1.1.4" transform="translate(33.47, 166.74)" stroke-width="0.1">
              <g id="Fig:densplot_01.ticklabels.left.panel.1.1.1.4.scale" transform="scale(1, -1)">
                <text x="0" y="0" id="Fig:densplot_01.ticklabels.left.panel.1.1.1.4.text" transform="rotate(-90)" text-anchor="middle" stroke="rgb(0,0,0)" opacity="1" fill="rgb(0,0,0)" stroke-opacity="1" fill-opacity="1" font-size="9.6" font-weight="normal" font-style="normal">
                  <tspan id="Fig:densplot_01.ticklabels.left.panel.1.1.1.4.tspan.1" dy="0" x="0">0.003</tspan>
                </text>
              </g>
            </g>
            <g id="Fig:densplot_01.ticklabels.left.panel.1.1.1.5" transform="translate(33.47, 204.33)" stroke-width="0.1">
              <g id="Fig:densplot_01.ticklabels.left.panel.1.1.1.5.scale" transform="scale(1, -1)">
                <text x="0" y="0" id="Fig:densplot_01.ticklabels.left.panel.1.1.1.5.text" transform="rotate(-90)" text-anchor="middle" stroke="rgb(0,0,0)" opacity="1" fill="rgb(0,0,0)" stroke-opacity="1" fill-opacity="1" font-size="9.6" font-weight="normal" font-style="normal">
                  <tspan id="Fig:densplot_01.ticklabels.left.panel.1.1.1.5.tspan.1" dy="0" x="0">0.004</tspan>
                </text>
              </g>
            </g>
          </g>
        </g>
        <g id="Fig:densplot_01.panel.1.1.off.vp.1">
          <g id="Fig:densplot_01.ticks.bottom.panel.1.1.1">
            <polyline id="Fig:densplot_01.ticks.bottom.panel.1.1.1.1" points="60.9,42.19 60.9,36.52" stroke="rgb(0,0,0)" opacity="1" stroke-dasharray="none" stroke-width="0.75" stroke-opacity="1" fill="none"/>
            <polyline id="Fig:densplot_01.ticks.bottom.panel.1.1.1.2" points="105.55,42.19 105.55,36.52" stroke="rgb(0,0,0)" opacity="1" stroke-dasharray="none" stroke-width="0.75" stroke-opacity="1" fill="none"/>
            <polyline id="Fig:densplot_01.ticks.bottom.panel.1.1.1.3" points="150.2,42.19 150.2,36.52" stroke="rgb(0,0,0)" opacity="1" stroke-dasharray="none" stroke-width="0.75" stroke-opacity="1" fill="none"/>
            <polyline id="Fig:densplot_01.ticks.bottom.panel.1.1.1.4" points="194.85,42.19 194.85,36.52" stroke="rgb(0,0,0)" opacity="1" stroke-dasharray="none" stroke-width="0.75" stroke-opacity="1" fill="none"/>
            <polyline id="Fig:densplot_01.ticks.bottom.panel.1.1.1.5" points="239.5,42.19 239.5,36.52" stroke="rgb(0,0,0)" opacity="1" stroke-dasharray="none" stroke-width="0.75" stroke-opacity="1" fill="none"/>
          </g>
          <g id="Fig:densplot_01.ticklabels.bottom.panel.1.1.1">
            <g id="Fig:densplot_01.ticklabels.bottom.panel.1.1.1.1" transform="translate(60.9, 30.85)" stroke-width="0.1">
              <g id="Fig:densplot_01.ticklabels.bottom.panel.1.1.1.1.scale" transform="scale(1, -1)">
                <text x="0" y="0" id="Fig:densplot_01.ticklabels.bottom.panel.1.1.1.1.text" text-anchor="middle" stroke="rgb(0,0,0)" opacity="1" fill="rgb(0,0,0)" stroke-opacity="1" fill-opacity="1" font-size="9.6" font-weight="normal" font-style="normal">
                  <tspan id="Fig:densplot_01.ticklabels.bottom.panel.1.1.1.1.tspan.1" dy="7.18" x="0">0</tspan>
                </text>
              </g>
            </g>
            <g id="Fig:densplot_01.ticklabels.bottom.panel.1.1.1.2" transform="translate(105.55, 30.85)" stroke-width="0.1">
              <g id="Fig:densplot_01.ticklabels.bottom.panel.1.1.1.2.scale" transform="scale(1, -1)">
                <text x="0" y="0" id="Fig:densplot_01.ticklabels.bottom.panel.1.1.1.2.text" text-anchor="middle" stroke="rgb(0,0,0)" opacity="1" fill="rgb(0,0,0)" stroke-opacity="1" fill-opacity="1" font-size="9.6" font-weight="normal" font-style="normal">
                  <tspan id="Fig:densplot_01.ticklabels.bottom.panel.1.1.1.2.tspan.1" dy="7.18" x="0">2000</tspan>
                </text>
              </g>
            </g>
            <g id="Fig:densplot_01.ticklabels.bottom.panel.1.1.1.3" transform="translate(150.2, 30.85)" stroke-width="0.1">
              <g id="Fig:densplot_01.ticklabels.bottom.panel.1.1.1.3.scale" transform="scale(1, -1)">
                <text x="0" y="0" id="Fig:densplot_01.ticklabels.bottom.panel.1.1.1.3.text" text-anchor="middle" stroke="rgb(0,0,0)" opacity="1" fill="rgb(0,0,0)" stroke-opacity="1" fill-opacity="1" font-size="9.6" font-weight="normal" font-style="normal">
                  <tspan id="Fig:densplot_01.ticklabels.bottom.panel.1.1.1.3.tspan.1" dy="7.18" x="0">4000</tspan>
                </text>
              </g>
            </g>
            <g id="Fig:densplot_01.ticklabels.bottom.panel.1.1.1.4" transform="translate(194.85, 30.85)" stroke-width="0.1">
              <g id="Fig:densplot_01.ticklabels.bottom.panel.1.1.1.4.scale" transform="scale(1, -1)">
                <text x="0" y="0" id="Fig:densplot_01.ticklabels.bottom.panel.1.1.1.4.text" text-anchor="middle" stroke="rgb(0,0,0)" opacity="1" fill="rgb(0,0,0)" stroke-opacity="1" fill-opacity="1" font-size="9.6" font-weight="normal" font-style="normal">
                  <tspan id="Fig:densplot_01.ticklabels.bottom.panel.1.1.1.4.tspan.1" dy="7.18" x="0">6000</tspan>
                </text>
              </g>
            </g>
            <g id="Fig:densplot_01.ticklabels.bottom.panel.1.1.1.5" transform="translate(239.5, 30.85)" stroke-width="0.1">
              <g id="Fig:densplot_01.ticklabels.bottom.panel.1.1.1.5.scale" transform="scale(1, -1)">
                <text x="0" y="0" id="Fig:densplot_01.ticklabels.bottom.panel.1.1.1.5.text" text-anchor="middle" stroke="rgb(0,0,0)" opacity="1" fill="rgb(0,0,0)" stroke-opacity="1" fill-opacity="1" font-size="9.6" font-weight="normal" font-style="normal">
                  <tspan id="Fig:densplot_01.ticklabels.bottom.panel.1.1.1.5.tspan.1" dy="7.18" x="0">8000</tspan>
                </text>
              </g>
            </g>
          </g>
        </g>
        <defs>
          <clipPath id="Fig:densplot_01.panel.1.1.vp.2.clipPath">
            <rect x="44.8" y="42.19" width="231.2" height="191.81" fill="none" stroke="none"/>
          </clipPath>
        </defs>
        <g id="Fig:densplot_01.panel.1.1.vp.2" clip-path="url(#Fig:densplot_01.panel.1.1.vp.2.clipPath)">
          <g id="Fig:densplot_01.xyplot.lines.group.1.panel.1.1.1">
            <polyline id="Fig:densplot_01.xyplot.lines.group.1.panel.1.1.1.1" points="59.12,54.14 59.52,54.78 59.91,57.05 60.31,63.27 60.71,76.64 61.1,99.05 61.5,127.98 61.9,155.63 62.29,172.82 62.69,175.04 63.09,164.93 63.48,149.18 63.88,133.56 64.27,120.74 64.67,110.99 65.07,103.62 65.46,97.92 65.86,93.35 66.26,89.57 66.65,86.38 67.05,83.66 67.45,81.33 67.84,79.31 68.24,77.55 68.63,76 69.03,74.6 69.43,73.36 69.82,72.25 70.22,71.26 70.62,70.38 71.01,69.57 71.41,68.82 71.81,68.11 72.2,67.44 72.6,66.82 73,66.25 73.39,65.73 73.79,65.26 74.18,64.83 74.58,64.45 74.98,64.08 75.37,63.74 75.77,63.43 76.17,63.15 76.56,62.89 76.96,62.65 77.36,62.41 77.75,62.17 78.15,61.93 78.54,61.69 78.94,61.45 79.34,61.23 79.73,61.02 80.13,60.83 80.53,60.66 80.92,60.51 81.32,60.36 81.72,60.22 82.11,60.06 82.51,59.91 82.91,59.76 83.3,59.63 83.7,59.51 84.09,59.41 84.49,59.31 84.89,59.22 85.28,59.12 85.68,59.01 86.08,58.91 86.47,58.81 86.87,58.73 87.27,58.67 87.66,58.61 88.06,58.54 88.45,58.46 88.85,58.37 89.25,58.27 89.64,58.17 90.04,58.09 90.44,58.03 90.83,57.97 91.23,57.91 91.63,57.85 92.02,57.8 92.42,57.75 92.82,57.7 93.21,57.65 93.61,57.6 94,57.55 94.4,57.5 94.8,57.44 95.19,57.4 95.59,57.36 95.99,57.34 96.38,57.31 96.78,57.27 97.18,57.23 97.57,57.17 97.97,57.12 98.36,57.06 98.76,57.01 99.16,56.96 99.55,56.9 99.95,56.85 100.35,56.8 100.74,56.75 101.14,56.72 101.54,56.69 101.93,56.66 102.33,56.63 102.73,56.6 103.12,56.56 103.52,56.53 103.91,56.5 104.31,56.47 104.71,56.44 105.1,56.41 105.5,56.37 105.9,56.34 106.29,56.31 106.69,56.28 107.09,56.26 107.48,56.24 107.88,56.23 108.28,56.22 108.67,56.2 109.07,56.18 109.46,56.15 109.86,56.11 110.26,56.08 110.65,56.06 111.05,56.05 111.45,56.04 111.84,56.03 112.24,56.01 112.64,55.98 113.03,55.94 113.43,55.91 113.82,55.88 114.22,55.86 114.62,55.85 115.01,55.83 115.41,55.82 115.81,55.81 116.2,55.79 116.6,55.77 117,55.75 117.39,55.73 117.79,55.71 118.19,55.7 118.58,55.69 118.98,55.67 119.37,55.65 119.77,55.63 120.17,55.62 120.56,55.6 120.96,55.58 121.36,55.55 121.75,55.53 122.15,55.51 122.55,55.5 122.94,55.48 123.34,55.47 123.73,55.47 124.13,55.46 124.53,55.45 124.92,55.44 125.32,55.42 125.72,55.4 126.11,55.39 126.51,55.37 126.91,55.36 127.3,55.35 127.7,55.35 128.1,55.34 128.49,55.33 128.89,55.31 129.28,55.3 129.68,55.28 130.08,55.27 130.47,55.26 130.87,55.25 131.27,55.24 131.66,55.23 132.06,55.21 132.46,55.18 132.85,55.16 133.25,55.15 133.64,55.15 134.04,55.15 134.44,55.16 134.83,55.15 135.23,55.15 135.63,55.14 136.02,55.13 136.42,55.12 136.82,55.11 137.21,55.11 137.61,55.11 138.01,55.1 138.4,55.09 138.8,55.07 139.19,55.04 139.59,55.03 139.99,55.01 140.38,55 140.78,54.99 141.18,54.98 141.57,54.98 141.97,54.98 142.37,54.98 142.76,54.98 143.16,54.99 143.55,54.98 143.95,54.97 144.35,54.96 144.74,54.94 145.14,54.92 145.54,54.9 145.93,54.89 146.33,54.88 146.73,54.87 147.12,54.85 147.52,54.84 147.92,54.83 148.31,54.83 148.71,54.84 149.1,54.86 149.5,54.87 149.9,54.88 150.29,54.88 150.69,54.88 151.09,54.87 151.48,54.85 151.88,54.84 152.28,54.82 152.67,54.81 153.07,54.8 153.46,54.79 153.86,54.78 154.26,54.78 154.65,54.77 155.05,54.77 155.45,54.76 155.84,54.76 156.24,54.75 156.64,54.75 157.03,54.75 157.43,54.74 157.83,54.74 158.22,54.73 158.62,54.73 159.01,54.73 159.41,54.73 159.81,54.73 160.2,54.73 160.6,54.72 161,54.7 161.39,54.69 161.79,54.68 162.19,54.67 162.58,54.66 162.98,54.66 163.37,54.65 163.77,54.64 164.17,54.64 164.56,54.63 164.96,54.63 165.36,54.63 165.75,54.64 166.15,54.64 166.55,54.64 166.94,54.64 167.34,54.63 167.74,54.63 168.13,54.62 168.53,54.62 168.92,54.61 169.32,54.61 169.72,54.61 170.11,54.6 170.51,54.59 170.91,54.58 171.3,54.57 171.7,54.57 172.1,54.57 172.49,54.58 172.89,54.58 173.29,54.58 173.68,54.58 174.08,54.58 174.47,54.57 174.87,54.55 175.27,54.54 175.66,54.52 176.06,54.51 176.46,54.5 176.85,54.49 177.25,54.49 177.65,54.49 178.04,54.49 178.44,54.49 178.83,54.5 179.23,54.5 179.63,54.5 180.02,54.5 180.42,54.5 180.82,54.49 181.21,54.48 181.61,54.48 182.01,54.49 182.4,54.49 182.8,54.49 183.2,54.48 183.59,54.48 183.99,54.47 184.38,54.47 184.78,54.47 185.18,54.47 185.57,54.47 185.97,54.46 186.37,54.46 186.76,54.46 187.16,54.45 187.56,54.45 187.95,54.45 188.35,54.45 188.74,54.45 189.14,54.45 189.54,54.44 189.93,54.44 190.33,54.44 190.73,54.44 191.12,54.44 191.52,54.44 191.92,54.44 192.31,54.44 192.71,54.44 193.11,54.45 193.5,54.45 193.9,54.45 194.29,54.46 194.69,54.46 195.09,54.47 195.48,54.47 195.88,54.48 196.28,54.48 196.67,54.49 197.07,54.49 197.47,54.5 197.86,54.51 198.26,54.51 198.65,54.52 199.05,54.53 199.45,54.55 199.84,54.55 200.24,54.56 200.64,54.56 201.03,54.56 201.43,54.56 201.83,54.56 202.22,54.57 202.62,54.59 203.02,54.6 203.41,54.62 203.81,54.63 204.2,54.63 204.6,54.63 205,54.63 205.39,54.63 205.79,54.62 206.19,54.62 206.58,54.61 206.98,54.61 207.38,54.6 207.77,54.59 208.17,54.58 208.56,54.57 208.96,54.57 209.36,54.56 209.75,54.55 210.15,54.54 210.55,54.53 210.94,54.52 211.34,54.51 211.74,54.51 212.13,54.5 212.53,54.5 212.93,54.49 213.32,54.48 213.72,54.47 214.11,54.45 214.51,54.44 214.91,54.42 215.3,54.41 215.7,54.41 216.1,54.4 216.49,54.4 216.89,54.4 217.29,54.39 217.68,54.39 218.08,54.38 218.47,54.37 218.87,54.36 219.27,54.35 219.66,54.34 220.06,54.34 220.46,54.33 220.85,54.32 221.25,54.31 221.65,54.31 222.04,54.3 222.44,54.3 222.84,54.29 223.23,54.28 223.63,54.27 224.02,54.26 224.42,54.25 224.82,54.24 225.21,54.24 225.61,54.24 226.01,54.24 226.4,54.24 226.8,54.24 227.2,54.25 227.59,54.25 227.99,54.25 228.38,54.25 228.78,54.25 229.18,54.25 229.57,54.24 229.97,54.24 230.37,54.23 230.76,54.23 231.16,54.23 231.56,54.24 231.95,54.24 232.35,54.24 232.75,54.23 233.14,54.23 233.54,54.23 233.93,54.23 234.33,54.23 234.73,54.23 235.12,54.22 235.52,54.22 235.92,54.21 236.31,54.21 236.71,54.21 237.11,54.2 237.5,54.2 237.9,54.2 238.29,54.19 238.69,54.19 239.09,54.19 239.48,54.19 239.88,54.19 240.28,54.19 240.67,54.18 241.07,54.18 241.47,54.19 241.86,54.19 242.26,54.19 242.66,54.19 243.05,54.18 243.45,54.18 243.84,54.18 244.24,54.17 244.64,54.17 245.03,54.17 245.43,54.16 245.83,54.16 246.22,54.16 246.62,54.16 247.02,54.16 247.41,54.17 247.81,54.17 248.21,54.17 248.6,54.17 249,54.17 249.39,54.17 249.79,54.16 250.19,54.16 250.58,54.16 250.98,54.16 251.38,54.16 251.77,54.16 252.17,54.16 252.57,54.16 252.96,54.16 253.36,54.16 253.75,54.16 254.15,54.16 254.55,54.15 254.94,54.15 255.34,54.15 255.74,54.15 256.13,54.15 256.53,54.15 256.93,54.15 257.32,54.15 257.72,54.14 258.12,54.13 258.51,54.12 258.91,54.09 259.3,54.06 259.7,54.03 260.1,54 260.49,53.98 260.89,53.97 261.29,53.97 261.68,53.97" stroke-dasharray="none" stroke="rgb(31,120,180)" stroke-width="0.75" opacity="1" stroke-opacity="1" fill="none"/>
          </g>
          <g id="Fig:densplot_01.xyplot.lines.group.2.panel.1.1.1">
            <polyline id="Fig:densplot_01.xyplot.lines.group.2.panel.1.1.1.1" points="59.3,54.12 59.7,54.84 60.1,57.75 60.49,66.41 60.89,85.26 61.28,115.07 61.68,148.41 62.07,172.59 62.47,179.3 62.87,170.36 63.26,153.97 63.66,137.49 64.05,124.17 64.45,114.18 64.84,106.64 65.24,100.76 65.64,96.02 66.03,92.12 66.43,88.87 66.82,86.1 67.22,83.7 67.61,81.6 68.01,79.73 68.4,78.06 68.8,76.55 69.2,75.19 69.59,73.94 69.99,72.81 70.38,71.8 70.78,70.9 71.17,70.11 71.57,69.39 71.97,68.7 72.36,68.04 72.76,67.41 73.15,66.84 73.55,66.34 73.94,65.9 74.34,65.48 74.73,65.06 75.13,64.66 75.53,64.29 75.92,63.95 76.32,63.63 76.71,63.34 77.11,63.06 77.5,62.8 77.9,62.56 78.3,62.31 78.69,62.07 79.09,61.83 79.48,61.59 79.88,61.36 80.27,61.15 80.67,60.94 81.07,60.76 81.46,60.58 81.86,60.41 82.25,60.26 82.65,60.13 83.04,60 83.44,59.89 83.83,59.77 84.23,59.66 84.63,59.55 85.02,59.43 85.42,59.3 85.81,59.17 86.21,59.04 86.6,58.94 87,58.84 87.4,58.75 87.79,58.66 88.19,58.58 88.58,58.49 88.98,58.41 89.37,58.33 89.77,58.26 90.16,58.2 90.56,58.13 90.96,58.05 91.35,57.97 91.75,57.88 92.14,57.81 92.54,57.75 92.93,57.69 93.33,57.64 93.73,57.58 94.12,57.53 94.52,57.47 94.91,57.41 95.31,57.35 95.7,57.29 96.1,57.23 96.49,57.18 96.89,57.13 97.29,57.08 97.68,57.04 98.08,57.01 98.47,56.99 98.87,56.95 99.26,56.91 99.66,56.85 100.06,56.8 100.45,56.76 100.85,56.71 101.24,56.67 101.64,56.63 102.03,56.6 102.43,56.59 102.83,56.58 103.22,56.56 103.62,56.52 104.01,56.47 104.41,56.43 104.8,56.39 105.2,56.35 105.59,56.32 105.99,56.29 106.39,56.26 106.78,56.23 107.18,56.2 107.57,56.16 107.97,56.12 108.36,56.08 108.76,56.06 109.16,56.03 109.55,56.01 109.95,55.99 110.34,55.96 110.74,55.94 111.13,55.92 111.53,55.9 111.92,55.87 112.32,55.85 112.72,55.82 113.11,55.8 113.51,55.78 113.9,55.76 114.3,55.73 114.69,55.7 115.09,55.67 115.49,55.66 115.88,55.65 116.28,55.63 116.67,55.61 117.07,55.59 117.46,55.58 117.86,55.58 118.26,55.57 118.65,55.56 119.05,55.55 119.44,55.53 119.84,55.51 120.23,55.48 120.63,55.46 121.02,55.45 121.42,55.44 121.82,55.43 122.21,55.42 122.61,55.4 123,55.37 123.4,55.36 123.79,55.34 124.19,55.34 124.59,55.33 124.98,55.31 125.38,55.29 125.77,55.27 126.17,55.25 126.56,55.23 126.96,55.22 127.35,55.21 127.75,55.2 128.15,55.18 128.54,55.16 128.94,55.16 129.33,55.15 129.73,55.14 130.12,55.13 130.52,55.12 130.92,55.11 131.31,55.11 131.71,55.11 132.1,55.11 132.5,55.1 132.89,55.09 133.29,55.08 133.69,55.07 134.08,55.07 134.48,55.05 134.87,55.03 135.27,55.01 135.66,55 136.06,54.99 136.45,54.98 136.85,54.98 137.25,54.97 137.64,54.96 138.04,54.95 138.43,54.94 138.83,54.93 139.22,54.93 139.62,54.92 140.02,54.91 140.41,54.9 140.81,54.89 141.2,54.88 141.6,54.87 141.99,54.87 142.39,54.86 142.78,54.85 143.18,54.84 143.58,54.83 143.97,54.82 144.37,54.81 144.76,54.81 145.16,54.81 145.55,54.81 145.95,54.81 146.35,54.8 146.74,54.8 147.14,54.79 147.53,54.79 147.93,54.77 148.32,54.76 148.72,54.76 149.12,54.75 149.51,54.75 149.91,54.74 150.3,54.74 150.7,54.72 151.09,54.71 151.49,54.71 151.88,54.7 152.28,54.7 152.68,54.7 153.07,54.7 153.47,54.69 153.86,54.68 154.26,54.67 154.65,54.66 155.05,54.65 155.45,54.64 155.84,54.64 156.24,54.63 156.63,54.64 157.03,54.64 157.42,54.65 157.82,54.65 158.21,54.64 158.61,54.63 159.01,54.62 159.4,54.61 159.8,54.6 160.19,54.6 160.59,54.6 160.98,54.6 161.38,54.59 161.78,54.59 162.17,54.57 162.57,54.56 162.96,54.56 163.36,54.55 163.75,54.54 164.15,54.53 164.54,54.53 164.94,54.53 165.34,54.54 165.73,54.54 166.13,54.54 166.52,54.54 166.92,54.53 167.31,54.53 167.71,54.53 168.11,54.52 168.5,54.52 168.9,54.51 169.29,54.51 169.69,54.5 170.08,54.5 170.48,54.5 170.88,54.5 171.27,54.49 171.67,54.49 172.06,54.48 172.46,54.48 172.85,54.47 173.25,54.46 173.64,54.45 174.04,54.45 174.44,54.46 174.83,54.46 175.23,54.46 175.62,54.46 176.02,54.47 176.41,54.47 176.81,54.47 177.21,54.47 177.6,54.48 178,54.48 178.39,54.48 178.79,54.49 179.18,54.49 179.58,54.49 179.97,54.49 180.37,54.49 180.77,54.5 181.16,54.51 181.56,54.52 181.95,54.53 182.35,54.53 182.74,54.54 183.14,54.54 183.54,54.55 183.93,54.57 184.33,54.58 184.72,54.59 185.12,54.6 185.51,54.61 185.91,54.62 186.31,54.63 186.7,54.64 187.1,54.64 187.49,54.64 187.89,54.64 188.28,54.65 188.68,54.66 189.07,54.66 189.47,54.67 189.87,54.68 190.26,54.67 190.66,54.66 191.05,54.64 191.45,54.63 191.84,54.62 192.24,54.62 192.64,54.61 193.03,54.61 193.43,54.6 193.82,54.6 194.22,54.59 194.61,54.59 195.01,54.58 195.4,54.57 195.8,54.55 196.2,54.54 196.59,54.53 196.99,54.52 197.38,54.51 197.78,54.49 198.17,54.48 198.57,54.46 198.97,54.45 199.36,54.44 199.76,54.43 200.15,54.42 200.55,54.42 200.94,54.41 201.34,54.4 201.74,54.39 202.13,54.37 202.53,54.36 202.92,54.35 203.32,54.35 203.71,54.34 204.11,54.33 204.5,54.32 204.9,54.32 205.3,54.31 205.69,54.3 206.09,54.29 206.48,54.28 206.88,54.27 207.27,54.26 207.67,54.26 208.07,54.26 208.46,54.26 208.86,54.26 209.25,54.26 209.65,54.26 210.04,54.26 210.44,54.26 210.83,54.25 211.23,54.25 211.63,54.24 212.02,54.24 212.42,54.24 212.81,54.24 213.21,54.24 213.6,54.24 214,54.24 214.4,54.23 214.79,54.23 215.19,54.23 215.58,54.23 215.98,54.22 216.37,54.22 216.77,54.22 217.17,54.21 217.56,54.21 217.96,54.21 218.35,54.21 218.75,54.21 219.14,54.21 219.54,54.2 219.93,54.2 220.33,54.2 220.73,54.2 221.12,54.2 221.52,54.21 221.91,54.21 222.31,54.2 222.7,54.2 223.1,54.19 223.5,54.19 223.89,54.19 224.29,54.19 224.68,54.19 225.08,54.19 225.47,54.19 225.87,54.19 226.26,54.18 226.66,54.18 227.06,54.18 227.45,54.18 227.85,54.17 228.24,54.17 228.64,54.16 229.03,54.16 229.43,54.16 229.83,54.16 230.22,54.16 230.62,54.17 231.01,54.17 231.41,54.17 231.8,54.17 232.2,54.16 232.59,54.16 232.99,54.15 233.39,54.15 233.78,54.16 234.18,54.16 234.57,54.16 234.97,54.16 235.36,54.16 235.76,54.16 236.16,54.16 236.55,54.16 236.95,54.16 237.34,54.16 237.74,54.15 238.13,54.15 238.53,54.15 238.93,54.14 239.32,54.14 239.72,54.14 240.11,54.14 240.51,54.14 240.9,54.14 241.3,54.13 241.69,54.13 242.09,54.13 242.49,54.13 242.88,54.13 243.28,54.13 243.67,54.13 244.07,54.12 244.46,54.13 244.86,54.13 245.26,54.13 245.65,54.14 246.05,54.14 246.44,54.13 246.84,54.13 247.23,54.13 247.63,54.13 248.02,54.13 248.42,54.13 248.82,54.13 249.21,54.12 249.61,54.12 250,54.12 250.4,54.12 250.79,54.12 251.19,54.12 251.59,54.12 251.98,54.11 252.38,54.11 252.77,54.11 253.17,54.11 253.56,54.11 253.96,54.11 254.36,54.1 254.75,54.1 255.15,54.1 255.54,54.1 255.94,54.1 256.33,54.11 256.73,54.1 257.12,54.1 257.52,54.1 257.92,54.1 258.31,54.09 258.71,54.08 259.1,54.06 259.5,54.03 259.89,54 260.29,53.98 260.69,53.97 261.08,53.97 261.48,53.97" stroke-dasharray="none" stroke="rgb(31,120,180)" stroke-width="0.75" opacity="1" stroke-opacity="1" fill="none"/>
          </g>
          <g id="Fig:densplot_01.xyplot.lines.group.3.panel.1.1.1">
            <polyline id="Fig:densplot_01.xyplot.lines.group.3.panel.1.1.1.1" points="59.74,54.25 60.13,56.04 60.53,64.08 60.92,87.29 61.31,130.98 61.71,182.84 62.1,215.84 62.5,214.63 62.89,190.05 63.28,161.85 63.68,139.88 64.07,124.51 64.47,113.59 64.86,105.47 65.25,99.15 65.65,94.09 66.04,89.94 66.43,86.42 66.83,83.38 67.22,80.8 67.62,78.62 68.01,76.75 68.4,75.08 68.8,73.62 69.19,72.37 69.59,71.29 69.98,70.33 70.37,69.44 70.77,68.64 71.16,67.92 71.56,67.26 71.95,66.64 72.34,66.04 72.74,65.5 73.13,65.03 73.53,64.61 73.92,64.21 74.31,63.83 74.71,63.47 75.1,63.12 75.49,62.8 75.89,62.48 76.28,62.17 76.68,61.88 77.07,61.63 77.46,61.42 77.86,61.23 78.25,61.02 78.65,60.83 79.04,60.66 79.43,60.52 79.83,60.35 80.22,60.16 80.62,59.98 81.01,59.84 81.4,59.73 81.8,59.62 82.19,59.48 82.58,59.32 82.98,59.19 83.37,59.08 83.77,58.98 84.16,58.88 84.55,58.78 84.95,58.68 85.34,58.6 85.74,58.51 86.13,58.43 86.52,58.34 86.92,58.25 87.31,58.15 87.71,58.04 88.1,57.95 88.49,57.88 88.89,57.8 89.28,57.71 89.67,57.62 90.07,57.54 90.46,57.48 90.86,57.43 91.25,57.39 91.64,57.35 92.04,57.3 92.43,57.26 92.83,57.21 93.22,57.15 93.61,57.09 94.01,57.04 94.4,56.98 94.8,56.93 95.19,56.88 95.58,56.84 95.98,56.8 96.37,56.77 96.77,56.73 97.16,56.69 97.55,56.64 97.95,56.59 98.34,56.55 98.73,56.53 99.13,56.51 99.52,56.48 99.92,56.44 100.31,56.4 100.7,56.37 101.1,56.34 101.49,56.29 101.89,56.24 102.28,56.19 102.67,56.16 103.07,56.14 103.46,56.12 103.86,56.09 104.25,56.05 104.64,56 105.04,55.97 105.43,55.95 105.82,55.92 106.22,55.9 106.61,55.89 107.01,55.9 107.4,55.9 107.79,55.87 108.19,55.81 108.58,55.76 108.98,55.72 109.37,55.7 109.76,55.68 110.16,55.66 110.55,55.63 110.95,55.61 111.34,55.61 111.73,55.61 112.13,55.61 112.52,55.6 112.91,55.57 113.31,55.52 113.7,55.48 114.1,55.45 114.49,55.44 114.88,55.44 115.28,55.44 115.67,55.42 116.07,55.4 116.46,55.38 116.85,55.36 117.25,55.35 117.64,55.34 118.04,55.34 118.43,55.32 118.82,55.29 119.22,55.26 119.61,55.26 120.01,55.26 120.4,55.26 120.79,55.26 121.19,55.24 121.58,55.22 121.97,55.22 122.37,55.21 122.76,55.2 123.16,55.17 123.55,55.15 123.94,55.15 124.34,55.15 124.73,55.14 125.13,55.12 125.52,55.1 125.91,55.09 126.31,55.08 126.7,55.07 127.1,55.06 127.49,55.05 127.88,55.05 128.28,55.05 128.67,55.04 129.06,55.02 129.46,55 129.85,54.99 130.25,54.98 130.64,54.97 131.03,54.95 131.43,54.94 131.82,54.94 132.22,54.94 132.61,54.93 133,54.91 133.4,54.9 133.79,54.89 134.19,54.88 134.58,54.87 134.97,54.86 135.37,54.86 135.76,54.85 136.15,54.84 136.55,54.82 136.94,54.81 137.34,54.81 137.73,54.81 138.12,54.82 138.52,54.82 138.91,54.82 139.31,54.82 139.7,54.81 140.09,54.79 140.49,54.78 140.88,54.77 141.28,54.76 141.67,54.75 142.06,54.74 142.46,54.72 142.85,54.71 143.25,54.7 143.64,54.7 144.03,54.71 144.43,54.72 144.82,54.72 145.21,54.71 145.61,54.7 146,54.68 146.4,54.67 146.79,54.67 147.18,54.66 147.58,54.66 147.97,54.65 148.37,54.65 148.76,54.65 149.15,54.64 149.55,54.63 149.94,54.62 150.34,54.62 150.73,54.61 151.12,54.61 151.52,54.61 151.91,54.6 152.3,54.59 152.7,54.58 153.09,54.57 153.49,54.56 153.88,54.55 154.27,54.54 154.67,54.55 155.06,54.56 155.46,54.58 155.85,54.58 156.24,54.58 156.64,54.57 157.03,54.55 157.43,54.53 157.82,54.52 158.21,54.51 158.61,54.51 159,54.51 159.39,54.51 159.79,54.52 160.18,54.51 160.58,54.5 160.97,54.48 161.36,54.47 161.76,54.48 162.15,54.48 162.55,54.48 162.94,54.47 163.33,54.46 163.73,54.46 164.12,54.46 164.52,54.47 164.91,54.48 165.3,54.48 165.7,54.47 166.09,54.47 166.49,54.47 166.88,54.47 167.27,54.48 167.67,54.49 168.06,54.49 168.45,54.5 168.85,54.5 169.24,54.51 169.64,54.52 170.03,54.52 170.42,54.52 170.82,54.52 171.21,54.52 171.61,54.52 172,54.52 172.39,54.52 172.79,54.52 173.18,54.52 173.58,54.53 173.97,54.54 174.36,54.55 174.76,54.56 175.15,54.57 175.54,54.57 175.94,54.57 176.33,54.58 176.73,54.58 177.12,54.59 177.51,54.59 177.91,54.6 178.3,54.61 178.7,54.61 179.09,54.6 179.48,54.59 179.88,54.6 180.27,54.62 180.67,54.65 181.06,54.66 181.45,54.65 181.85,54.64 182.24,54.63 182.63,54.62 183.03,54.62 183.42,54.61 183.82,54.6 184.21,54.59 184.6,54.58 185,54.57 185.39,54.57 185.79,54.56 186.18,54.55 186.57,54.53 186.97,54.53 187.36,54.52 187.76,54.51 188.15,54.5 188.54,54.49 188.94,54.48 189.33,54.47 189.73,54.46 190.12,54.44 190.51,54.42 190.91,54.41 191.3,54.39 191.69,54.38 192.09,54.37 192.48,54.36 192.88,54.35 193.27,54.35 193.66,54.35 194.06,54.35 194.45,54.34 194.85,54.34 195.24,54.33 195.63,54.33 196.03,54.33 196.42,54.33 196.82,54.32 197.21,54.31 197.6,54.3 198,54.29 198.39,54.28 198.78,54.27 199.18,54.26 199.57,54.26 199.97,54.25 200.36,54.24 200.75,54.24 201.15,54.23 201.54,54.23 201.94,54.22 202.33,54.22 202.72,54.22 203.12,54.22 203.51,54.22 203.91,54.22 204.3,54.22 204.69,54.22 205.09,54.22 205.48,54.22 205.87,54.22 206.27,54.21 206.66,54.21 207.06,54.21 207.45,54.21 207.84,54.21 208.24,54.2 208.63,54.2 209.03,54.2 209.42,54.2 209.81,54.2 210.21,54.2 210.6,54.2 211,54.2 211.39,54.19 211.78,54.18 212.18,54.18 212.57,54.18 212.96,54.18 213.36,54.18 213.75,54.18 214.15,54.18 214.54,54.17 214.93,54.17 215.33,54.18 215.72,54.19 216.12,54.2 216.51,54.2 216.9,54.19 217.3,54.18 217.69,54.17 218.09,54.17 218.48,54.17 218.87,54.16 219.27,54.16 219.66,54.16 220.06,54.16 220.45,54.16 220.84,54.16 221.24,54.15 221.63,54.15 222.02,54.15 222.42,54.14 222.81,54.14 223.21,54.14 223.6,54.15 223.99,54.15 224.39,54.16 224.78,54.16 225.18,54.17 225.57,54.17 225.96,54.16 226.36,54.15 226.75,54.14 227.15,54.14 227.54,54.14 227.93,54.14 228.33,54.14 228.72,54.14 229.11,54.14 229.51,54.14 229.9,54.14 230.3,54.14 230.69,54.13 231.08,54.13 231.48,54.13 231.87,54.13 232.27,54.13 232.66,54.13 233.05,54.12 233.45,54.12 233.84,54.13 234.24,54.13 234.63,54.13 235.02,54.12 235.42,54.12 235.81,54.11 236.2,54.11 236.6,54.11 236.99,54.11 237.39,54.11 237.78,54.11 238.17,54.1 238.57,54.1 238.96,54.11 239.36,54.11 239.75,54.11 240.14,54.11 240.54,54.11 240.93,54.12 241.33,54.12 241.72,54.12 242.11,54.12 242.51,54.11 242.9,54.11 243.3,54.11 243.69,54.11 244.08,54.11 244.48,54.11 244.87,54.12 245.26,54.12 245.66,54.12 246.05,54.12 246.45,54.11 246.84,54.1 247.23,54.09 247.63,54.09 248.02,54.09 248.42,54.09 248.81,54.1 249.2,54.1 249.6,54.1 249.99,54.1 250.39,54.1 250.78,54.1 251.17,54.1 251.57,54.09 251.96,54.09 252.35,54.09 252.75,54.09 253.14,54.08 253.54,54.08 253.93,54.08 254.32,54.08 254.72,54.09 255.11,54.09 255.51,54.09 255.9,54.09 256.29,54.09 256.69,54.09 257.08,54.1 257.48,54.09 257.87,54.09 258.26,54.08 258.66,54.07 259.05,54.05 259.44,54.02 259.84,53.99 260.23,53.98 260.63,53.97 261.02,53.97" stroke-dasharray="none" stroke="rgb(31,120,180)" stroke-width="0.75" opacity="1" stroke-opacity="1" fill="none"/>
          </g>
          <g id="Fig:densplot_01.xyplot.lines.group.4.panel.1.1.1">
            <polyline id="Fig:densplot_01.xyplot.lines.group.4.panel.1.1.1.1" points="59.28,54.11 59.67,54.8 60.07,57.58 60.47,65.92 60.86,84.24 61.26,113.57 61.65,146.94 62.05,171.89 62.44,179.73 62.84,171.7 63.24,155.68 63.63,139.1 64.03,125.48 64.42,115.16 64.82,107.34 65.22,101.22 65.61,96.28 66.01,92.22 66.4,88.83 66.8,85.94 67.19,83.44 67.59,81.25 67.99,79.33 68.38,77.63 68.78,76.12 69.17,74.79 69.57,73.61 69.96,72.57 70.36,71.61 70.76,70.71 71.15,69.87 71.55,69.08 71.94,68.36 72.34,67.7 72.73,67.09 73.13,66.54 73.53,66.04 73.92,65.6 74.32,65.2 74.71,64.84 75.11,64.51 75.5,64.18 75.9,63.87 76.3,63.57 76.69,63.27 77.09,62.97 77.48,62.69 77.88,62.41 78.27,62.14 78.67,61.9 79.07,61.68 79.46,61.46 79.86,61.25 80.25,61.04 80.65,60.83 81.04,60.64 81.44,60.48 81.84,60.35 82.23,60.23 82.63,60.1 83.02,59.97 83.42,59.83 83.81,59.7 84.21,59.59 84.61,59.49 85,59.39 85.4,59.28 85.79,59.16 86.19,59.04 86.59,58.92 86.98,58.81 87.38,58.7 87.77,58.6 88.17,58.49 88.56,58.39 88.96,58.3 89.36,58.23 89.75,58.16 90.15,58.09 90.54,58.03 90.94,57.98 91.33,57.93 91.73,57.88 92.13,57.83 92.52,57.78 92.92,57.72 93.31,57.67 93.71,57.6 94.1,57.53 94.5,57.45 94.9,57.38 95.29,57.33 95.69,57.28 96.08,57.25 96.48,57.21 96.87,57.17 97.27,57.11 97.67,57.06 98.06,57 98.46,56.95 98.85,56.91 99.25,56.87 99.64,56.83 100.04,56.77 100.44,56.71 100.83,56.66 101.23,56.61 101.62,56.57 102.02,56.55 102.41,56.54 102.81,56.53 103.21,56.5 103.6,56.46 104,56.42 104.39,56.38 104.79,56.35 105.18,56.32 105.58,56.29 105.98,56.27 106.37,56.25 106.77,56.22 107.16,56.19 107.56,56.16 107.96,56.14 108.35,56.13 108.75,56.12 109.14,56.09 109.54,56.05 109.93,56.01 110.33,55.97 110.73,55.95 111.12,55.92 111.52,55.9 111.91,55.88 112.31,55.86 112.7,55.84 113.1,55.81 113.5,55.79 113.89,55.76 114.29,55.75 114.68,55.73 115.08,55.71 115.47,55.68 115.87,55.66 116.27,55.64 116.66,55.62 117.06,55.6 117.45,55.59 117.85,55.57 118.24,55.55 118.64,55.54 119.04,55.54 119.43,55.53 119.83,55.52 120.22,55.51 120.62,55.49 121.01,55.47 121.41,55.46 121.81,55.44 122.2,55.42 122.6,55.41 122.99,55.39 123.39,55.37 123.78,55.35 124.18,55.33 124.58,55.32 124.97,55.3 125.37,55.29 125.76,55.27 126.16,55.25 126.55,55.23 126.95,55.22 127.35,55.21 127.74,55.21 128.14,55.22 128.53,55.22 128.93,55.21 129.33,55.19 129.72,55.17 130.12,55.15 130.51,55.14 130.91,55.14 131.3,55.13 131.7,55.12 132.1,55.12 132.49,55.11 132.89,55.1 133.28,55.09 133.68,55.08 134.07,55.06 134.47,55.05 134.87,55.04 135.26,55.03 135.66,55.01 136.05,55 136.45,54.99 136.84,54.98 137.24,54.98 137.64,54.97 138.03,54.96 138.43,54.95 138.82,54.95 139.22,54.94 139.61,54.93 140.01,54.92 140.41,54.91 140.8,54.91 141.2,54.91 141.59,54.9 141.99,54.89 142.38,54.88 142.78,54.87 143.18,54.87 143.57,54.86 143.97,54.86 144.36,54.86 144.76,54.85 145.15,54.85 145.55,54.85 145.95,54.84 146.34,54.84 146.74,54.83 147.13,54.83 147.53,54.82 147.92,54.81 148.32,54.8 148.72,54.79 149.11,54.77 149.51,54.76 149.9,54.75 150.3,54.74 150.7,54.74 151.09,54.74 151.49,54.74 151.88,54.74 152.28,54.73 152.67,54.72 153.07,54.72 153.47,54.72 153.86,54.72 154.26,54.72 154.65,54.71 155.05,54.71 155.44,54.72 155.84,54.72 156.24,54.71 156.63,54.7 157.03,54.69 157.42,54.68 157.82,54.67 158.21,54.66 158.61,54.65 159.01,54.64 159.4,54.62 159.8,54.61 160.19,54.61 160.59,54.61 160.98,54.61 161.38,54.6 161.78,54.59 162.17,54.58 162.57,54.58 162.96,54.57 163.36,54.56 163.75,54.56 164.15,54.56 164.55,54.56 164.94,54.56 165.34,54.56 165.73,54.56 166.13,54.55 166.52,54.54 166.92,54.53 167.32,54.52 167.71,54.52 168.11,54.52 168.5,54.52 168.9,54.52 169.29,54.51 169.69,54.5 170.09,54.49 170.48,54.48 170.88,54.47 171.27,54.46 171.67,54.46 172.07,54.47 172.46,54.47 172.86,54.48 173.25,54.48 173.65,54.48 174.04,54.49 174.44,54.49 174.84,54.48 175.23,54.48 175.63,54.48 176.02,54.47 176.42,54.47 176.81,54.46 177.21,54.46 177.61,54.46 178,54.46 178.4,54.45 178.79,54.44 179.19,54.43 179.58,54.42 179.98,54.43 180.38,54.43 180.77,54.43 181.17,54.43 181.56,54.43 181.96,54.43 182.35,54.43 182.75,54.43 183.15,54.43 183.54,54.43 183.94,54.44 184.33,54.44 184.73,54.44 185.12,54.44 185.52,54.44 185.92,54.43 186.31,54.43 186.71,54.43 187.1,54.44 187.5,54.45 187.89,54.46 188.29,54.47 188.69,54.47 189.08,54.48 189.48,54.49 189.87,54.5 190.27,54.5 190.66,54.5 191.06,54.5 191.46,54.5 191.85,54.5 192.25,54.51 192.64,54.53 193.04,54.54 193.44,54.56 193.83,54.57 194.23,54.58 194.62,54.59 195.02,54.59 195.41,54.6 195.81,54.61 196.21,54.62 196.6,54.62 197,54.63 197.39,54.63 197.79,54.63 198.18,54.62 198.58,54.61 198.98,54.6 199.37,54.6 199.77,54.59 200.16,54.6 200.56,54.6 200.95,54.59 201.35,54.58 201.75,54.57 202.14,54.56 202.54,54.55 202.93,54.55 203.33,54.54 203.72,54.53 204.12,54.51 204.52,54.5 204.91,54.49 205.31,54.48 205.7,54.47 206.1,54.46 206.49,54.45 206.89,54.44 207.29,54.44 207.68,54.43 208.08,54.41 208.47,54.4 208.87,54.38 209.26,54.37 209.66,54.36 210.06,54.35 210.45,54.34 210.85,54.33 211.24,54.32 211.64,54.31 212.03,54.31 212.43,54.31 212.83,54.3 213.22,54.3 213.62,54.29 214.01,54.29 214.41,54.28 214.81,54.27 215.2,54.26 215.6,54.26 215.99,54.26 216.39,54.25 216.78,54.25 217.18,54.25 217.58,54.25 217.97,54.24 218.37,54.24 218.76,54.23 219.16,54.23 219.55,54.22 219.95,54.22 220.35,54.22 220.74,54.22 221.14,54.22 221.53,54.21 221.93,54.21 222.32,54.21 222.72,54.21 223.12,54.21 223.51,54.21 223.91,54.21 224.3,54.21 224.7,54.21 225.09,54.2 225.49,54.2 225.89,54.2 226.28,54.2 226.68,54.21 227.07,54.21 227.47,54.21 227.86,54.2 228.26,54.2 228.66,54.2 229.05,54.2 229.45,54.19 229.84,54.19 230.24,54.19 230.63,54.18 231.03,54.18 231.43,54.17 231.82,54.17 232.22,54.17 232.61,54.17 233.01,54.17 233.4,54.17 233.8,54.17 234.2,54.16 234.59,54.16 234.99,54.16 235.38,54.16 235.78,54.16 236.18,54.17 236.57,54.17 236.97,54.17 237.36,54.16 237.76,54.16 238.15,54.16 238.55,54.15 238.95,54.15 239.34,54.15 239.74,54.15 240.13,54.15 240.53,54.15 240.92,54.15 241.32,54.15 241.72,54.15 242.11,54.15 242.51,54.16 242.9,54.16 243.3,54.16 243.69,54.16 244.09,54.16 244.49,54.16 244.88,54.15 245.28,54.15 245.67,54.15 246.07,54.15 246.46,54.14 246.86,54.14 247.26,54.14 247.65,54.14 248.05,54.14 248.44,54.14 248.84,54.14 249.23,54.14 249.63,54.14 250.03,54.14 250.42,54.14 250.82,54.14 251.21,54.14 251.61,54.14 252,54.14 252.4,54.15 252.8,54.14 253.19,54.14 253.59,54.14 253.98,54.14 254.38,54.13 254.77,54.13 255.17,54.13 255.57,54.13 255.96,54.13 256.36,54.13 256.75,54.13 257.15,54.13 257.55,54.12 257.94,54.12 258.34,54.11 258.73,54.09 259.13,54.06 259.52,54.03 259.92,54 260.32,53.98 260.71,53.97 261.11,53.97 261.5,53.97" stroke-dasharray="none" stroke="rgb(31,120,180)" stroke-width="0.75" opacity="1" stroke-opacity="1" fill="none"/>
          </g>
          <g id="Fig:densplot_01.xyplot.lines.group.5.panel.1.1.1">
            <polyline id="Fig:densplot_01.xyplot.lines.group.5.panel.1.1.1.1" points="59.49,54.16 59.88,55.09 60.28,58.69 60.67,68.96 61.07,90.33 61.46,122.49 61.86,156.24 62.25,178.09 62.65,181.05 63.04,169.26 63.44,151.9 63.83,135.69 64.23,122.98 64.62,113.54 65.02,106.45 65.41,100.89 65.81,96.35 66.2,92.59 66.6,89.43 66.99,86.66 67.39,84.21 67.78,82.01 68.17,80.06 68.57,78.33 68.96,76.78 69.36,75.4 69.75,74.15 70.15,73.01 70.54,71.96 70.94,71.01 71.33,70.17 71.73,69.42 72.12,68.75 72.52,68.16 72.91,67.62 73.31,67.11 73.7,66.6 74.1,66.09 74.49,65.58 74.89,65.09 75.28,64.63 75.68,64.22 76.07,63.88 76.47,63.58 76.86,63.29 77.26,63.01 77.65,62.73 78.05,62.45 78.44,62.18 78.84,61.91 79.23,61.66 79.63,61.43 80.02,61.22 80.42,61.02 80.81,60.84 81.21,60.67 81.6,60.52 82,60.38 82.39,60.23 82.79,60.07 83.18,59.91 83.58,59.74 83.97,59.59 84.37,59.45 84.76,59.34 85.16,59.24 85.55,59.14 85.95,59.03 86.34,58.91 86.74,58.81 87.13,58.72 87.53,58.64 87.92,58.55 88.32,58.45 88.71,58.36 89.11,58.27 89.5,58.2 89.9,58.13 90.29,58.06 90.69,57.98 91.08,57.9 91.48,57.82 91.87,57.76 92.27,57.71 92.66,57.66 93.06,57.6 93.45,57.55 93.85,57.49 94.24,57.43 94.64,57.36 95.03,57.29 95.43,57.23 95.82,57.17 96.22,57.11 96.61,57.06 97.01,57.03 97.4,57 97.8,56.96 98.19,56.9 98.59,56.84 98.98,56.79 99.38,56.75 99.77,56.73 100.17,56.71 100.56,56.68 100.96,56.64 101.35,56.6 101.75,56.55 102.14,56.5 102.54,56.46 102.93,56.42 103.33,56.39 103.72,56.35 104.12,56.32 104.51,56.29 104.91,56.26 105.3,56.23 105.7,56.19 106.09,56.15 106.49,56.12 106.88,56.11 107.28,56.08 107.67,56.05 108.07,56.02 108.46,55.99 108.86,55.96 109.25,55.93 109.65,55.9 110.04,55.87 110.44,55.84 110.83,55.83 111.23,55.82 111.62,55.8 112.02,55.78 112.41,55.74 112.81,55.71 113.2,55.69 113.6,55.67 113.99,55.66 114.39,55.64 114.78,55.62 115.18,55.61 115.57,55.6 115.97,55.59 116.36,55.57 116.76,55.53 117.15,55.51 117.55,55.49 117.94,55.47 118.34,55.46 118.73,55.45 119.13,55.44 119.52,55.43 119.92,55.42 120.31,55.4 120.71,55.37 121.1,55.34 121.5,55.33 121.89,55.32 122.29,55.31 122.68,55.3 123.08,55.29 123.47,55.28 123.87,55.28 124.26,55.28 124.66,55.26 125.05,55.23 125.45,55.2 125.84,55.18 126.24,55.16 126.63,55.15 127.03,55.14 127.42,55.14 127.82,55.14 128.21,55.14 128.61,55.14 129,55.13 129.4,55.12 129.79,55.11 130.19,55.1 130.58,55.1 130.98,55.09 131.37,55.09 131.77,55.07 132.16,55.05 132.56,55.03 132.95,55.03 133.35,55.02 133.74,55.02 134.14,55.02 134.53,55.01 134.93,55 135.32,55 135.72,54.99 136.11,54.97 136.51,54.95 136.9,54.92 137.3,54.89 137.69,54.88 138.09,54.88 138.48,54.88 138.88,54.89 139.27,54.88 139.67,54.86 140.06,54.84 140.46,54.83 140.85,54.83 141.25,54.83 141.64,54.83 142.04,54.83 142.43,54.83 142.83,54.82 143.22,54.82 143.62,54.81 144.01,54.81 144.41,54.8 144.8,54.79 145.2,54.77 145.59,54.76 145.99,54.76 146.38,54.76 146.78,54.76 147.17,54.75 147.57,54.74 147.96,54.73 148.36,54.73 148.75,54.73 149.15,54.72 149.54,54.71 149.94,54.7 150.33,54.69 150.73,54.69 151.12,54.68 151.51,54.68 151.91,54.67 152.3,54.66 152.7,54.65 153.09,54.64 153.49,54.63 153.88,54.63 154.28,54.63 154.67,54.63 155.07,54.63 155.46,54.63 155.86,54.63 156.25,54.62 156.65,54.62 157.04,54.62 157.44,54.61 157.83,54.6 158.23,54.6 158.62,54.59 159.02,54.59 159.41,54.58 159.81,54.57 160.2,54.56 160.6,54.56 160.99,54.55 161.39,54.54 161.78,54.54 162.18,54.53 162.57,54.52 162.97,54.53 163.36,54.53 163.76,54.54 164.15,54.54 164.55,54.53 164.94,54.52 165.34,54.52 165.73,54.52 166.13,54.51 166.52,54.5 166.92,54.49 167.31,54.48 167.71,54.48 168.1,54.48 168.5,54.48 168.89,54.48 169.29,54.47 169.68,54.47 170.08,54.46 170.47,54.46 170.87,54.46 171.26,54.46 171.66,54.46 172.05,54.45 172.45,54.45 172.84,54.44 173.24,54.43 173.63,54.43 174.03,54.44 174.42,54.44 174.82,54.44 175.21,54.43 175.61,54.42 176,54.42 176.4,54.42 176.79,54.42 177.19,54.42 177.58,54.42 177.98,54.41 178.37,54.41 178.77,54.4 179.16,54.39 179.56,54.38 179.95,54.38 180.35,54.39 180.74,54.39 181.14,54.38 181.53,54.38 181.93,54.37 182.32,54.36 182.72,54.35 183.11,54.34 183.51,54.34 183.9,54.34 184.3,54.33 184.69,54.33 185.09,54.33 185.48,54.33 185.88,54.33 186.27,54.33 186.67,54.33 187.06,54.34 187.46,54.34 187.85,54.34 188.25,54.34 188.64,54.33 189.04,54.33 189.43,54.32 189.83,54.32 190.22,54.31 190.62,54.3 191.01,54.3 191.41,54.3 191.8,54.3 192.2,54.3 192.59,54.3 192.99,54.31 193.38,54.31 193.78,54.31 194.17,54.31 194.57,54.31 194.96,54.31 195.36,54.31 195.75,54.3 196.15,54.3 196.54,54.3 196.94,54.29 197.33,54.29 197.73,54.29 198.12,54.29 198.52,54.3 198.91,54.3 199.31,54.29 199.7,54.29 200.1,54.29 200.49,54.28 200.89,54.28 201.28,54.27 201.68,54.27 202.07,54.26 202.47,54.26 202.86,54.26 203.26,54.25 203.65,54.25 204.05,54.25 204.44,54.26 204.84,54.26 205.23,54.25 205.63,54.25 206.02,54.25 206.42,54.25 206.81,54.25 207.21,54.24 207.6,54.24 208,54.24 208.39,54.24 208.79,54.24 209.18,54.23 209.58,54.23 209.97,54.23 210.37,54.22 210.76,54.22 211.16,54.21 211.55,54.21 211.95,54.22 212.34,54.22 212.74,54.23 213.13,54.23 213.53,54.23 213.92,54.22 214.32,54.22 214.71,54.21 215.11,54.21 215.5,54.21 215.9,54.21 216.29,54.21 216.69,54.21 217.08,54.21 217.48,54.2 217.87,54.2 218.27,54.2 218.66,54.2 219.06,54.21 219.45,54.21 219.85,54.21 220.24,54.21 220.64,54.21 221.03,54.2 221.43,54.2 221.82,54.19 222.22,54.19 222.61,54.18 223.01,54.19 223.4,54.19 223.8,54.19 224.19,54.18 224.59,54.18 224.98,54.18 225.38,54.19 225.77,54.2 226.17,54.2 226.56,54.2 226.96,54.2 227.35,54.19 227.75,54.19 228.14,54.18 228.54,54.18 228.93,54.18 229.33,54.19 229.72,54.2 230.12,54.21 230.51,54.21 230.91,54.2 231.3,54.2 231.7,54.2 232.09,54.2 232.49,54.2 232.88,54.2 233.28,54.2 233.67,54.19 234.07,54.19 234.46,54.18 234.85,54.18 235.25,54.18 235.64,54.19 236.04,54.2 236.43,54.21 236.83,54.22 237.22,54.23 237.62,54.23 238.01,54.23 238.41,54.22 238.8,54.22 239.2,54.22 239.59,54.22 239.99,54.23 240.38,54.23 240.78,54.23 241.17,54.23 241.57,54.23 241.96,54.23 242.36,54.23 242.75,54.23 243.15,54.24 243.54,54.25 243.94,54.25 244.33,54.26 244.73,54.26 245.12,54.26 245.52,54.27 245.91,54.27 246.31,54.27 246.7,54.26 247.1,54.26 247.49,54.26 247.89,54.27 248.28,54.27 248.68,54.27 249.07,54.27 249.47,54.27 249.86,54.27 250.26,54.27 250.65,54.28 251.05,54.28 251.44,54.28 251.84,54.28 252.23,54.28 252.63,54.27 253.02,54.27 253.42,54.27 253.81,54.27 254.21,54.27 254.6,54.27 255,54.27 255.39,54.26 255.79,54.25 256.18,54.24 256.58,54.24 256.97,54.25 257.37,54.26 257.76,54.28 258.16,54.28 258.55,54.26 258.95,54.21 259.34,54.14 259.74,54.07 260.13,54.01 260.53,53.98 260.92,53.97 261.32,53.97" stroke-dasharray="none" stroke="rgb(31,120,180)" stroke-width="0.75" opacity="1" stroke-opacity="1" fill="none"/>
          </g>
          <g id="Fig:densplot_01.xyplot.lines.group.6.panel.1.1.1">
            <polyline id="Fig:densplot_01.xyplot.lines.group.6.panel.1.1.1.1" points="59.74,54.27 60.13,56.18 60.53,64.67 60.92,89.09 61.31,134.8 61.71,188.63 62.1,222.22 62.5,219.82 62.89,193.31 63.28,163.59 63.68,140.71 64.07,124.64 64.46,112.98 64.86,104.19 65.25,97.43 65.65,92.14 66.04,87.93 66.43,84.5 66.83,81.67 67.22,79.3 67.62,77.26 68.01,75.5 68.4,73.96 68.8,72.6 69.19,71.36 69.59,70.26 69.98,69.32 70.37,68.5 70.77,67.76 71.16,67.11 71.55,66.52 71.95,65.98 72.34,65.46 72.74,64.98 73.13,64.54 73.52,64.14 73.92,63.73 74.31,63.34 74.71,62.98 75.1,62.65 75.49,62.35 75.89,62.07 76.28,61.82 76.68,61.58 77.07,61.36 77.46,61.17 77.86,61 78.25,60.84 78.65,60.67 79.04,60.49 79.43,60.33 79.83,60.16 80.22,59.99 80.61,59.82 81.01,59.66 81.4,59.52 81.8,59.37 82.19,59.23 82.58,59.11 82.98,59.01 83.37,58.92 83.77,58.83 84.16,58.73 84.55,58.62 84.95,58.52 85.34,58.44 85.74,58.37 86.13,58.28 86.52,58.18 86.92,58.11 87.31,58.06 87.7,58.01 88.1,57.93 88.49,57.84 88.89,57.75 89.28,57.68 89.67,57.63 90.07,57.58 90.46,57.53 90.86,57.46 91.25,57.39 91.64,57.3 92.04,57.22 92.43,57.16 92.83,57.13 93.22,57.1 93.61,57.07 94.01,57.03 94.4,56.99 94.8,56.96 95.19,56.92 95.58,56.86 95.98,56.81 96.37,56.77 96.76,56.73 97.16,56.69 97.55,56.64 97.95,56.59 98.34,56.54 98.73,56.5 99.13,56.46 99.52,56.4 99.92,56.34 100.31,56.28 100.7,56.23 101.1,56.19 101.49,56.17 101.89,56.16 102.28,56.16 102.67,56.15 103.07,56.14 103.46,56.11 103.85,56.08 104.25,56.05 104.64,56.01 105.04,55.96 105.43,55.93 105.82,55.92 106.22,55.92 106.61,55.91 107.01,55.87 107.4,55.84 107.79,55.82 108.19,55.81 108.58,55.79 108.98,55.75 109.37,55.72 109.76,55.69 110.16,55.67 110.55,55.66 110.94,55.65 111.34,55.64 111.73,55.62 112.13,55.61 112.52,55.59 112.91,55.57 113.31,55.55 113.7,55.53 114.1,55.5 114.49,55.48 114.88,55.46 115.28,55.43 115.67,55.41 116.07,55.39 116.46,55.37 116.85,55.37 117.25,55.36 117.64,55.35 118.04,55.34 118.43,55.33 118.82,55.32 119.22,55.32 119.61,55.31 120,55.29 120.4,55.27 120.79,55.25 121.19,55.23 121.58,55.23 121.97,55.23 122.37,55.22 122.76,55.21 123.16,55.19 123.55,55.17 123.94,55.15 124.34,55.14 124.73,55.13 125.13,55.13 125.52,55.13 125.91,55.13 126.31,55.11 126.7,55.09 127.09,55.07 127.49,55.05 127.88,55.04 128.28,55.03 128.67,55.02 129.06,55.02 129.46,55.01 129.85,55.01 130.25,55.01 130.64,55.01 131.03,55.02 131.43,55.02 131.82,55 132.22,54.98 132.61,54.95 133,54.93 133.4,54.91 133.79,54.89 134.19,54.89 134.58,54.88 134.97,54.87 135.37,54.86 135.76,54.86 136.15,54.85 136.55,54.85 136.94,54.85 137.34,54.85 137.73,54.84 138.12,54.82 138.52,54.8 138.91,54.79 139.31,54.79 139.7,54.79 140.09,54.79 140.49,54.79 140.88,54.79 141.28,54.78 141.67,54.77 142.06,54.75 142.46,54.74 142.85,54.74 143.24,54.74 143.64,54.74 144.03,54.73 144.43,54.7 144.82,54.68 145.21,54.67 145.61,54.68 146,54.69 146.4,54.69 146.79,54.69 147.18,54.68 147.58,54.68 147.97,54.67 148.37,54.67 148.76,54.66 149.15,54.65 149.55,54.65 149.94,54.65 150.34,54.65 150.73,54.64 151.12,54.63 151.52,54.63 151.91,54.64 152.3,54.63 152.7,54.62 153.09,54.61 153.49,54.6 153.88,54.6 154.27,54.6 154.67,54.6 155.06,54.6 155.46,54.6 155.85,54.59 156.24,54.58 156.64,54.57 157.03,54.56 157.43,54.55 157.82,54.54 158.21,54.54 158.61,54.54 159,54.53 159.39,54.53 159.79,54.52 160.18,54.52 160.58,54.51 160.97,54.5 161.36,54.5 161.76,54.5 162.15,54.51 162.55,54.52 162.94,54.52 163.33,54.51 163.73,54.5 164.12,54.49 164.52,54.49 164.91,54.49 165.3,54.48 165.7,54.49 166.09,54.49 166.49,54.49 166.88,54.49 167.27,54.49 167.67,54.48 168.06,54.48 168.45,54.48 168.85,54.48 169.24,54.48 169.64,54.47 170.03,54.48 170.42,54.48 170.82,54.5 171.21,54.51 171.61,54.52 172,54.54 172.39,54.55 172.79,54.55 173.18,54.56 173.58,54.56 173.97,54.57 174.36,54.57 174.76,54.58 175.15,54.59 175.54,54.6 175.94,54.62 176.33,54.64 176.73,54.66 177.12,54.68 177.51,54.68 177.91,54.68 178.3,54.68 178.7,54.69 179.09,54.7 179.48,54.72 179.88,54.73 180.27,54.74 180.67,54.74 181.06,54.75 181.45,54.74 181.85,54.72 182.24,54.71 182.64,54.71 183.03,54.69 183.42,54.67 183.82,54.66 184.21,54.65 184.6,54.64 185,54.63 185.39,54.62 185.79,54.6 186.18,54.58 186.57,54.56 186.97,54.54 187.36,54.52 187.76,54.5 188.15,54.48 188.54,54.46 188.94,54.45 189.33,54.43 189.73,54.42 190.12,54.41 190.51,54.41 190.91,54.41 191.3,54.4 191.69,54.39 192.09,54.37 192.48,54.36 192.88,54.35 193.27,54.34 193.66,54.34 194.06,54.34 194.45,54.33 194.85,54.33 195.24,54.32 195.63,54.32 196.03,54.3 196.42,54.29 196.82,54.28 197.21,54.28 197.6,54.28 198,54.27 198.39,54.25 198.79,54.24 199.18,54.24 199.57,54.24 199.97,54.25 200.36,54.26 200.75,54.26 201.15,54.26 201.54,54.24 201.94,54.24 202.33,54.24 202.72,54.24 203.12,54.25 203.51,54.25 203.91,54.25 204.3,54.24 204.69,54.23 205.09,54.22 205.48,54.22 205.88,54.22 206.27,54.22 206.66,54.22 207.06,54.22 207.45,54.22 207.84,54.21 208.24,54.21 208.63,54.21 209.03,54.21 209.42,54.22 209.81,54.22 210.21,54.23 210.6,54.22 211,54.22 211.39,54.22 211.78,54.21 212.18,54.21 212.57,54.21 212.97,54.2 213.36,54.2 213.75,54.2 214.15,54.2 214.54,54.19 214.93,54.19 215.33,54.18 215.72,54.18 216.12,54.19 216.51,54.2 216.9,54.2 217.3,54.2 217.69,54.19 218.09,54.18 218.48,54.18 218.87,54.18 219.27,54.18 219.66,54.19 220.06,54.2 220.45,54.2 220.84,54.2 221.24,54.2 221.63,54.19 222.03,54.18 222.42,54.18 222.81,54.18 223.21,54.18 223.6,54.17 223.99,54.16 224.39,54.16 224.78,54.16 225.18,54.17 225.57,54.17 225.96,54.17 226.36,54.17 226.75,54.17 227.15,54.16 227.54,54.16 227.93,54.16 228.33,54.15 228.72,54.15 229.12,54.15 229.51,54.16 229.9,54.16 230.3,54.16 230.69,54.16 231.08,54.16 231.48,54.16 231.87,54.16 232.27,54.15 232.66,54.15 233.05,54.14 233.45,54.14 233.84,54.14 234.24,54.14 234.63,54.14 235.02,54.14 235.42,54.14 235.81,54.14 236.21,54.14 236.6,54.13 236.99,54.13 237.39,54.13 237.78,54.13 238.18,54.13 238.57,54.13 238.96,54.13 239.36,54.13 239.75,54.13 240.14,54.13 240.54,54.12 240.93,54.12 241.33,54.11 241.72,54.12 242.11,54.12 242.51,54.13 242.9,54.13 243.3,54.12 243.69,54.12 244.08,54.11 244.48,54.11 244.87,54.11 245.27,54.11 245.66,54.11 246.05,54.11 246.45,54.1 246.84,54.1 247.23,54.1 247.63,54.11 248.02,54.11 248.42,54.12 248.81,54.12 249.2,54.11 249.6,54.11 249.99,54.11 250.39,54.11 250.78,54.11 251.17,54.11 251.57,54.12 251.96,54.12 252.36,54.11 252.75,54.11 253.14,54.1 253.54,54.09 253.93,54.08 254.33,54.08 254.72,54.09 255.11,54.09 255.51,54.1 255.9,54.1 256.29,54.1 256.69,54.09 257.08,54.09 257.48,54.09 257.87,54.09 258.26,54.09 258.66,54.08 259.05,54.06 259.45,54.03 259.84,54 260.23,53.98 260.63,53.97 261.02,53.97" stroke-dasharray="none" stroke="rgb(31,120,180)" stroke-width="0.75" opacity="1" stroke-opacity="1" fill="none"/>
          </g>
          <g id="Fig:densplot_01.xyplot.lines.group.7.panel.1.1.1">
            <polyline id="Fig:densplot_01.xyplot.lines.group.7.panel.1.1.1.1" points="59.31,54.12 59.71,54.84 60.1,57.74 60.5,66.36 60.89,85.26 61.29,115.5 61.68,150.06 62.08,176.17 62.48,184.62 62.87,176.23 63.27,158.99 63.66,140.93 64.06,126.11 64.45,115.05 64.85,106.89 65.24,100.67 65.64,95.74 66.04,91.7 66.43,88.29 66.83,85.37 67.22,82.85 67.62,80.65 68.01,78.71 68.41,76.97 68.81,75.43 69.2,74.08 69.6,72.91 69.99,71.87 70.39,70.91 70.78,70.04 71.18,69.26 71.57,68.54 71.97,67.88 72.37,67.26 72.76,66.68 73.16,66.13 73.55,65.61 73.95,65.14 74.34,64.73 74.74,64.36 75.14,64.02 75.53,63.68 75.93,63.35 76.32,63.04 76.72,62.76 77.11,62.49 77.51,62.23 77.9,61.96 78.3,61.72 78.7,61.49 79.09,61.29 79.49,61.1 79.88,60.91 80.28,60.73 80.67,60.57 81.07,60.42 81.46,60.28 81.86,60.14 82.26,60 82.65,59.85 83.05,59.71 83.44,59.58 83.84,59.45 84.23,59.34 84.63,59.25 85.03,59.16 85.42,59.07 85.82,58.96 86.21,58.84 86.61,58.73 87,58.62 87.4,58.52 87.79,58.43 88.19,58.33 88.59,58.25 88.98,58.17 89.38,58.11 89.77,58.05 90.17,58 90.56,57.95 90.96,57.9 91.36,57.85 91.75,57.78 92.15,57.71 92.54,57.64 92.94,57.57 93.33,57.5 93.73,57.45 94.12,57.4 94.52,57.34 94.92,57.28 95.31,57.22 95.71,57.18 96.1,57.14 96.5,57.1 96.89,57.05 97.29,57 97.69,56.95 98.08,56.91 98.48,56.88 98.87,56.84 99.27,56.8 99.66,56.76 100.06,56.73 100.45,56.7 100.85,56.66 101.25,56.62 101.64,56.57 102.04,56.53 102.43,56.48 102.83,56.44 103.22,56.41 103.62,56.38 104.02,56.36 104.41,56.34 104.81,56.31 105.2,56.29 105.6,56.26 105.99,56.24 106.39,56.22 106.78,56.2 107.18,56.18 107.58,56.16 107.97,56.13 108.37,56.11 108.76,56.08 109.16,56.06 109.55,56.03 109.95,56 110.35,55.98 110.74,55.95 111.14,55.92 111.53,55.89 111.93,55.87 112.32,55.85 112.72,55.84 113.11,55.82 113.51,55.81 113.91,55.79 114.3,55.77 114.7,55.74 115.09,55.72 115.49,55.71 115.88,55.7 116.28,55.68 116.67,55.66 117.07,55.64 117.47,55.61 117.86,55.59 118.26,55.57 118.65,55.56 119.05,55.55 119.44,55.54 119.84,55.52 120.24,55.5 120.63,55.49 121.03,55.47 121.42,55.46 121.82,55.44 122.21,55.41 122.61,55.39 123,55.37 123.4,55.35 123.8,55.33 124.19,55.33 124.59,55.32 124.98,55.31 125.38,55.3 125.77,55.29 126.17,55.27 126.57,55.25 126.96,55.23 127.36,55.22 127.75,55.21 128.15,55.2 128.54,55.19 128.94,55.19 129.33,55.19 129.73,55.19 130.13,55.18 130.52,55.18 130.92,55.16 131.31,55.15 131.71,55.14 132.1,55.12 132.5,55.1 132.9,55.1 133.29,55.1 133.69,55.1 134.08,55.09 134.48,55.08 134.87,55.06 135.27,55.05 135.66,55.03 136.06,55.01 136.46,55 136.85,54.99 137.25,54.99 137.64,54.99 138.04,54.99 138.43,54.99 138.83,54.98 139.23,54.96 139.62,54.95 140.02,54.94 140.41,54.93 140.81,54.92 141.2,54.91 141.6,54.9 141.99,54.89 142.39,54.88 142.79,54.87 143.18,54.87 143.58,54.87 143.97,54.87 144.37,54.87 144.76,54.86 145.16,54.85 145.56,54.84 145.95,54.83 146.35,54.82 146.74,54.82 147.14,54.82 147.53,54.82 147.93,54.82 148.32,54.81 148.72,54.8 149.12,54.79 149.51,54.78 149.91,54.76 150.3,54.75 150.7,54.73 151.09,54.73 151.49,54.73 151.88,54.74 152.28,54.73 152.68,54.72 153.07,54.71 153.47,54.71 153.86,54.7 154.26,54.7 154.65,54.69 155.05,54.69 155.45,54.69 155.84,54.69 156.24,54.69 156.63,54.69 157.03,54.69 157.42,54.69 157.82,54.69 158.21,54.69 158.61,54.68 159.01,54.67 159.4,54.66 159.8,54.65 160.19,54.64 160.59,54.63 160.98,54.63 161.38,54.63 161.78,54.63 162.17,54.63 162.57,54.64 162.96,54.63 163.36,54.63 163.75,54.61 164.15,54.6 164.54,54.59 164.94,54.58 165.34,54.58 165.73,54.58 166.13,54.58 166.52,54.58 166.92,54.57 167.31,54.57 167.71,54.56 168.11,54.56 168.5,54.56 168.9,54.55 169.29,54.55 169.69,54.55 170.08,54.54 170.48,54.53 170.87,54.52 171.27,54.52 171.67,54.51 172.06,54.51 172.46,54.51 172.85,54.51 173.25,54.52 173.64,54.52 174.04,54.51 174.44,54.51 174.83,54.5 175.23,54.49 175.62,54.47 176.02,54.46 176.41,54.45 176.81,54.45 177.2,54.44 177.6,54.44 178,54.44 178.39,54.44 178.79,54.45 179.18,54.45 179.58,54.45 179.97,54.45 180.37,54.44 180.77,54.45 181.16,54.45 181.56,54.45 181.95,54.44 182.35,54.44 182.74,54.44 183.14,54.44 183.53,54.44 183.93,54.44 184.33,54.43 184.72,54.43 185.12,54.43 185.51,54.42 185.91,54.42 186.3,54.43 186.7,54.43 187.1,54.42 187.49,54.42 187.89,54.41 188.28,54.41 188.68,54.41 189.07,54.41 189.47,54.4 189.86,54.4 190.26,54.4 190.66,54.4 191.05,54.41 191.45,54.41 191.84,54.41 192.24,54.41 192.63,54.41 193.03,54.42 193.42,54.42 193.82,54.43 194.22,54.44 194.61,54.44 195.01,54.44 195.4,54.44 195.8,54.44 196.19,54.44 196.59,54.45 196.99,54.46 197.38,54.46 197.78,54.45 198.17,54.45 198.57,54.45 198.96,54.44 199.36,54.44 199.75,54.44 200.15,54.44 200.55,54.45 200.94,54.45 201.34,54.46 201.73,54.46 202.13,54.46 202.52,54.46 202.92,54.46 203.32,54.46 203.71,54.45 204.11,54.44 204.5,54.44 204.9,54.44 205.29,54.45 205.69,54.46 206.08,54.46 206.48,54.46 206.88,54.46 207.27,54.46 207.67,54.46 208.06,54.46 208.46,54.46 208.85,54.45 209.25,54.45 209.65,54.44 210.04,54.44 210.44,54.43 210.83,54.43 211.23,54.43 211.62,54.42 212.02,54.42 212.41,54.42 212.81,54.42 213.21,54.42 213.6,54.41 214,54.41 214.39,54.41 214.79,54.41 215.18,54.41 215.58,54.41 215.98,54.4 216.37,54.4 216.77,54.39 217.16,54.39 217.56,54.38 217.95,54.37 218.35,54.36 218.74,54.36 219.14,54.35 219.54,54.36 219.93,54.36 220.33,54.37 220.72,54.36 221.12,54.36 221.51,54.35 221.91,54.34 222.31,54.33 222.7,54.32 223.1,54.31 223.49,54.31 223.89,54.31 224.28,54.3 224.68,54.3 225.07,54.29 225.47,54.28 225.87,54.28 226.26,54.27 226.66,54.26 227.05,54.26 227.45,54.26 227.84,54.25 228.24,54.26 228.63,54.25 229.03,54.25 229.43,54.24 229.82,54.23 230.22,54.23 230.61,54.23 231.01,54.22 231.4,54.21 231.8,54.21 232.2,54.2 232.59,54.2 232.99,54.2 233.38,54.2 233.78,54.2 234.17,54.2 234.57,54.19 234.96,54.18 235.36,54.17 235.76,54.16 236.15,54.16 236.55,54.17 236.94,54.17 237.34,54.18 237.73,54.17 238.13,54.17 238.53,54.17 238.92,54.16 239.32,54.16 239.71,54.17 240.11,54.17 240.5,54.17 240.9,54.16 241.29,54.16 241.69,54.16 242.09,54.16 242.48,54.16 242.88,54.16 243.27,54.16 243.67,54.16 244.06,54.15 244.46,54.15 244.86,54.15 245.25,54.15 245.65,54.15 246.04,54.15 246.44,54.15 246.83,54.14 247.23,54.14 247.62,54.14 248.02,54.14 248.42,54.14 248.81,54.14 249.21,54.14 249.6,54.14 250,54.14 250.39,54.14 250.79,54.14 251.19,54.14 251.58,54.14 251.98,54.14 252.37,54.14 252.77,54.14 253.16,54.14 253.56,54.14 253.95,54.14 254.35,54.14 254.75,54.14 255.14,54.13 255.54,54.13 255.93,54.12 256.33,54.12 256.72,54.12 257.12,54.12 257.52,54.12 257.91,54.12 258.31,54.12 258.7,54.1 259.1,54.07 259.49,54.04 259.89,54.01 260.28,53.98 260.68,53.97 261.08,53.97 261.47,53.97" stroke-dasharray="none" stroke="rgb(31,120,180)" stroke-width="0.75" opacity="1" stroke-opacity="1" fill="none"/>
          </g>
          <g id="Fig:densplot_01.xyplot.lines.group.8.panel.1.1.1">
            <polyline id="Fig:densplot_01.xyplot.lines.group.8.panel.1.1.1.1" points="59.02,54.1 59.42,54.59 59.82,56.35 60.21,61.23 60.61,71.98 61.01,90.57 61.4,115.66 61.8,141.41 62.2,160.05 62.59,166.59 62.99,161.53 63.39,149.49 63.78,135.64 64.18,123.22 64.58,113.29 64.98,105.64 65.37,99.71 65.77,95.01 66.17,91.17 66.56,87.96 66.96,85.21 67.36,82.82 67.75,80.72 68.15,78.87 68.55,77.25 68.94,75.81 69.34,74.51 69.74,73.35 70.13,72.31 70.53,71.39 70.93,70.56 71.32,69.81 71.72,69.12 72.12,68.49 72.51,67.89 72.91,67.33 73.31,66.77 73.7,66.24 74.1,65.74 74.5,65.3 74.89,64.9 75.29,64.54 75.69,64.2 76.09,63.88 76.48,63.56 76.88,63.25 77.28,62.96 77.67,62.69 78.07,62.44 78.47,62.21 78.86,61.99 79.26,61.8 79.66,61.62 80.05,61.44 80.45,61.25 80.85,61.07 81.24,60.89 81.64,60.72 82.04,60.55 82.43,60.38 82.83,60.22 83.23,60.05 83.62,59.9 84.02,59.77 84.42,59.67 84.81,59.58 85.21,59.5 85.61,59.4 86,59.29 86.4,59.18 86.8,59.07 87.2,58.98 87.59,58.88 87.99,58.8 88.39,58.72 88.78,58.64 89.18,58.56 89.58,58.49 89.97,58.41 90.37,58.33 90.77,58.25 91.16,58.17 91.56,58.09 91.96,58.01 92.35,57.93 92.75,57.85 93.15,57.78 93.54,57.73 93.94,57.69 94.34,57.66 94.73,57.63 95.13,57.59 95.53,57.54 95.92,57.47 96.32,57.41 96.72,57.35 97.11,57.3 97.51,57.26 97.91,57.21 98.31,57.17 98.7,57.13 99.1,57.09 99.5,57.07 99.89,57.04 100.29,57.01 100.69,56.98 101.08,56.93 101.48,56.88 101.88,56.82 102.27,56.77 102.67,56.73 103.07,56.69 103.46,56.65 103.86,56.61 104.26,56.57 104.65,56.53 105.05,56.5 105.45,56.48 105.84,56.47 106.24,56.44 106.64,56.42 107.03,56.39 107.43,56.36 107.83,56.33 108.22,56.3 108.62,56.27 109.02,56.24 109.41,56.22 109.81,56.19 110.21,56.16 110.61,56.14 111,56.1 111.4,56.07 111.8,56.04 112.19,56.02 112.59,56 112.99,55.99 113.38,55.97 113.78,55.95 114.18,55.92 114.57,55.89 114.97,55.87 115.37,55.84 115.76,55.82 116.16,55.8 116.56,55.78 116.95,55.78 117.35,55.78 117.75,55.77 118.14,55.76 118.54,55.74 118.94,55.71 119.33,55.69 119.73,55.67 120.13,55.65 120.52,55.64 120.92,55.62 121.32,55.6 121.72,55.58 122.11,55.57 122.51,55.57 122.91,55.56 123.3,55.56 123.7,55.54 124.1,55.52 124.49,55.49 124.89,55.46 125.29,55.43 125.68,55.4 126.08,55.38 126.48,55.37 126.87,55.36 127.27,55.36 127.67,55.35 128.06,55.35 128.46,55.35 128.86,55.34 129.25,55.33 129.65,55.31 130.05,55.28 130.44,55.26 130.84,55.25 131.24,55.24 131.63,55.23 132.03,55.22 132.43,55.22 132.83,55.21 133.22,55.2 133.62,55.19 134.02,55.18 134.41,55.16 134.81,55.15 135.21,55.13 135.6,55.12 136,55.11 136.4,55.1 136.79,55.09 137.19,55.08 137.59,55.06 137.98,55.05 138.38,55.05 138.78,55.06 139.17,55.06 139.57,55.06 139.97,55.05 140.36,55.04 140.76,55.03 141.16,55.01 141.55,54.99 141.95,54.98 142.35,54.97 142.74,54.98 143.14,54.98 143.54,54.99 143.94,54.99 144.33,54.99 144.73,54.98 145.13,54.96 145.52,54.95 145.92,54.93 146.32,54.91 146.71,54.9 147.11,54.89 147.51,54.89 147.9,54.89 148.3,54.9 148.7,54.9 149.09,54.89 149.49,54.87 149.89,54.86 150.28,54.85 150.68,54.84 151.08,54.83 151.47,54.83 151.87,54.83 152.27,54.82 152.66,54.81 153.06,54.81 153.46,54.8 153.85,54.79 154.25,54.79 154.65,54.79 155.05,54.79 155.44,54.78 155.84,54.78 156.24,54.76 156.63,54.75 157.03,54.74 157.43,54.72 157.82,54.71 158.22,54.71 158.62,54.71 159.01,54.7 159.41,54.71 159.81,54.71 160.2,54.71 160.6,54.71 161,54.71 161.39,54.7 161.79,54.68 162.19,54.66 162.58,54.65 162.98,54.64 163.38,54.63 163.77,54.63 164.17,54.63 164.57,54.62 164.96,54.62 165.36,54.62 165.76,54.62 166.16,54.62 166.55,54.61 166.95,54.6 167.35,54.6 167.74,54.6 168.14,54.59 168.54,54.59 168.93,54.58 169.33,54.57 169.73,54.56 170.12,54.56 170.52,54.55 170.92,54.55 171.31,54.56 171.71,54.56 172.11,54.57 172.5,54.57 172.9,54.57 173.3,54.57 173.69,54.56 174.09,54.56 174.49,54.55 174.88,54.54 175.28,54.54 175.68,54.54 176.07,54.54 176.47,54.53 176.87,54.52 177.27,54.51 177.66,54.5 178.06,54.5 178.46,54.5 178.85,54.5 179.25,54.51 179.65,54.51 180.04,54.51 180.44,54.51 180.84,54.5 181.23,54.5 181.63,54.49 182.03,54.49 182.42,54.49 182.82,54.49 183.22,54.49 183.61,54.49 184.01,54.49 184.41,54.48 184.8,54.47 185.2,54.46 185.6,54.46 185.99,54.46 186.39,54.46 186.79,54.47 187.18,54.47 187.58,54.47 187.98,54.46 188.38,54.46 188.77,54.45 189.17,54.45 189.57,54.45 189.96,54.45 190.36,54.45 190.76,54.46 191.15,54.46 191.55,54.46 191.95,54.45 192.34,54.45 192.74,54.44 193.14,54.44 193.53,54.44 193.93,54.44 194.33,54.44 194.72,54.44 195.12,54.44 195.52,54.45 195.91,54.45 196.31,54.46 196.71,54.45 197.1,54.45 197.5,54.44 197.9,54.43 198.29,54.43 198.69,54.43 199.09,54.44 199.49,54.45 199.88,54.47 200.28,54.48 200.68,54.49 201.07,54.5 201.47,54.5 201.87,54.51 202.26,54.51 202.66,54.52 203.06,54.53 203.45,54.53 203.85,54.54 204.25,54.55 204.64,54.55 205.04,54.56 205.44,54.56 205.83,54.56 206.23,54.56 206.63,54.56 207.02,54.56 207.42,54.57 207.82,54.57 208.21,54.57 208.61,54.56 209.01,54.56 209.4,54.56 209.8,54.55 210.2,54.55 210.6,54.55 210.99,54.55 211.39,54.55 211.79,54.55 212.18,54.55 212.58,54.55 212.98,54.54 213.37,54.54 213.77,54.53 214.17,54.51 214.56,54.5 214.96,54.48 215.36,54.47 215.75,54.46 216.15,54.46 216.55,54.46 216.94,54.46 217.34,54.45 217.74,54.44 218.13,54.43 218.53,54.41 218.93,54.39 219.32,54.37 219.72,54.36 220.12,54.35 220.51,54.34 220.91,54.34 221.31,54.33 221.71,54.32 222.1,54.31 222.5,54.29 222.9,54.27 223.29,54.26 223.69,54.25 224.09,54.24 224.48,54.24 224.88,54.25 225.28,54.25 225.67,54.25 226.07,54.24 226.47,54.24 226.86,54.24 227.26,54.24 227.66,54.23 228.05,54.23 228.45,54.22 228.85,54.22 229.24,54.22 229.64,54.22 230.04,54.22 230.43,54.22 230.83,54.22 231.23,54.22 231.62,54.21 232.02,54.21 232.42,54.21 232.82,54.21 233.21,54.21 233.61,54.21 234.01,54.21 234.4,54.2 234.8,54.2 235.2,54.2 235.59,54.21 235.99,54.21 236.39,54.21 236.78,54.21 237.18,54.21 237.58,54.21 237.97,54.2 238.37,54.19 238.77,54.18 239.16,54.18 239.56,54.17 239.96,54.17 240.35,54.17 240.75,54.17 241.15,54.18 241.54,54.18 241.94,54.18 242.34,54.18 242.73,54.19 243.13,54.19 243.53,54.18 243.93,54.18 244.32,54.18 244.72,54.18 245.12,54.18 245.51,54.18 245.91,54.18 246.31,54.18 246.7,54.18 247.1,54.18 247.5,54.18 247.89,54.17 248.29,54.17 248.69,54.17 249.08,54.17 249.48,54.17 249.88,54.17 250.27,54.16 250.67,54.16 251.07,54.16 251.46,54.15 251.86,54.15 252.26,54.15 252.65,54.15 253.05,54.15 253.45,54.16 253.84,54.16 254.24,54.16 254.64,54.17 255.04,54.17 255.43,54.16 255.83,54.16 256.23,54.16 256.62,54.16 257.02,54.16 257.42,54.15 257.81,54.14 258.21,54.13 258.61,54.11 259,54.08 259.4,54.05 259.8,54.02 260.19,53.99 260.59,53.98 260.99,53.97 261.38,53.97 261.78,53.97" stroke-dasharray="none" stroke="rgb(31,120,180)" stroke-width="0.75" opacity="1" stroke-opacity="1" fill="none"/>
          </g>
          <g id="Fig:densplot_01.xyplot.lines.group.9.panel.1.1.1">
            <polyline id="Fig:densplot_01.xyplot.lines.group.9.panel.1.1.1.1" points="59.37,54.13 59.77,54.9 60.17,58.04 60.56,67.27 60.96,87.08 61.35,118.05 61.75,152.36 62.14,176.83 62.54,182.85 62.93,172.63 63.33,155.12 63.72,138.06 64.12,124.56 64.51,114.56 64.91,107.07 65.3,101.22 65.7,96.45 66.1,92.45 66.49,89.06 66.89,86.16 67.28,83.66 67.68,81.48 68.07,79.54 68.47,77.82 68.86,76.28 69.26,74.91 69.65,73.69 70.05,72.6 70.44,71.63 70.84,70.74 71.23,69.9 71.63,69.11 72.03,68.37 72.42,67.7 72.82,67.1 73.21,66.58 73.61,66.1 74,65.63 74.4,65.17 74.79,64.72 75.19,64.31 75.58,63.93 75.98,63.6 76.37,63.3 76.77,63.03 77.16,62.77 77.56,62.52 77.96,62.27 78.35,62.04 78.75,61.81 79.14,61.59 79.54,61.38 79.93,61.18 80.33,60.99 80.72,60.79 81.12,60.59 81.51,60.39 81.91,60.2 82.3,60.04 82.7,59.9 83.09,59.77 83.49,59.64 83.88,59.5 84.28,59.38 84.68,59.29 85.07,59.2 85.47,59.11 85.86,59.02 86.26,58.91 86.65,58.8 87.05,58.69 87.44,58.61 87.84,58.53 88.23,58.45 88.63,58.38 89.02,58.29 89.42,58.2 89.81,58.12 90.21,58.04 90.61,57.96 91,57.88 91.4,57.8 91.79,57.73 92.19,57.68 92.58,57.64 92.98,57.59 93.37,57.54 93.77,57.48 94.16,57.43 94.56,57.37 94.95,57.31 95.35,57.25 95.74,57.18 96.14,57.13 96.54,57.08 96.93,57.03 97.33,56.98 97.72,56.93 98.12,56.88 98.51,56.84 98.91,56.8 99.3,56.76 99.7,56.72 100.09,56.68 100.49,56.65 100.88,56.63 101.28,56.6 101.67,56.57 102.07,56.54 102.47,56.5 102.86,56.48 103.26,56.46 103.65,56.43 104.05,56.38 104.44,56.33 104.84,56.28 105.23,56.24 105.63,56.2 106.02,56.17 106.42,56.13 106.81,56.11 107.21,56.1 107.6,56.1 108,56.09 108.39,56.07 108.79,56.04 109.19,56.01 109.58,55.98 109.98,55.95 110.37,55.92 110.77,55.9 111.16,55.88 111.56,55.85 111.95,55.83 112.35,55.81 112.74,55.8 113.14,55.79 113.53,55.77 113.93,55.74 114.32,55.7 114.72,55.66 115.12,55.62 115.51,55.6 115.91,55.59 116.3,55.58 116.7,55.57 117.09,55.57 117.49,55.56 117.88,55.55 118.28,55.53 118.67,55.49 119.07,55.45 119.46,55.42 119.86,55.39 120.25,55.37 120.65,55.36 121.05,55.36 121.44,55.35 121.84,55.33 122.23,55.31 122.63,55.3 123.02,55.29 123.42,55.3 123.81,55.3 124.21,55.3 124.6,55.3 125,55.29 125.39,55.27 125.79,55.25 126.18,55.24 126.58,55.22 126.97,55.2 127.37,55.18 127.77,55.16 128.16,55.15 128.56,55.13 128.95,55.12 129.35,55.12 129.74,55.12 130.14,55.13 130.53,55.12 130.93,55.11 131.32,55.09 131.72,55.07 132.11,55.06 132.51,55.05 132.9,55.05 133.3,55.04 133.7,55.04 134.09,55.03 134.49,55.02 134.88,55.02 135.28,55.02 135.67,55.01 136.07,54.99 136.46,54.97 136.86,54.95 137.25,54.94 137.65,54.93 138.04,54.93 138.44,54.92 138.83,54.91 139.23,54.9 139.63,54.89 140.02,54.89 140.42,54.89 140.81,54.9 141.21,54.9 141.6,54.9 142,54.9 142.39,54.89 142.79,54.87 143.18,54.85 143.58,54.83 143.97,54.81 144.37,54.8 144.76,54.79 145.16,54.79 145.56,54.78 145.95,54.78 146.35,54.77 146.74,54.77 147.14,54.76 147.53,54.76 147.93,54.76 148.32,54.76 148.72,54.76 149.11,54.76 149.51,54.75 149.9,54.73 150.3,54.71 150.69,54.7 151.09,54.7 151.48,54.7 151.88,54.69 152.28,54.68 152.67,54.67 153.07,54.66 153.46,54.66 153.86,54.66 154.25,54.67 154.65,54.66 155.04,54.66 155.44,54.65 155.83,54.63 156.23,54.62 156.62,54.61 157.02,54.61 157.41,54.62 157.81,54.62 158.21,54.61 158.6,54.6 159,54.59 159.39,54.58 159.79,54.58 160.18,54.58 160.58,54.58 160.97,54.57 161.37,54.57 161.76,54.57 162.16,54.57 162.55,54.57 162.95,54.57 163.34,54.56 163.74,54.56 164.14,54.55 164.53,54.55 164.93,54.55 165.32,54.54 165.72,54.54 166.11,54.53 166.51,54.53 166.9,54.52 167.3,54.52 167.69,54.52 168.09,54.52 168.48,54.52 168.88,54.52 169.27,54.52 169.67,54.51 170.06,54.5 170.46,54.5 170.86,54.49 171.25,54.49 171.65,54.5 172.04,54.5 172.44,54.5 172.83,54.49 173.23,54.48 173.62,54.48 174.02,54.47 174.41,54.46 174.81,54.46 175.2,54.45 175.6,54.45 175.99,54.45 176.39,54.45 176.79,54.45 177.18,54.45 177.58,54.44 177.97,54.43 178.37,54.44 178.76,54.44 179.16,54.45 179.55,54.46 179.95,54.46 180.34,54.46 180.74,54.46 181.13,54.46 181.53,54.46 181.92,54.45 182.32,54.45 182.72,54.45 183.11,54.45 183.51,54.45 183.9,54.45 184.3,54.45 184.69,54.45 185.09,54.45 185.48,54.45 185.88,54.45 186.27,54.44 186.67,54.44 187.06,54.43 187.46,54.44 187.85,54.44 188.25,54.44 188.65,54.44 189.04,54.43 189.44,54.42 189.83,54.43 190.23,54.44 190.62,54.45 191.02,54.45 191.41,54.46 191.81,54.46 192.2,54.46 192.6,54.46 192.99,54.47 193.39,54.47 193.78,54.48 194.18,54.48 194.57,54.49 194.97,54.49 195.37,54.5 195.76,54.5 196.16,54.49 196.55,54.49 196.95,54.48 197.34,54.48 197.74,54.48 198.13,54.48 198.53,54.48 198.92,54.48 199.32,54.47 199.71,54.47 200.11,54.48 200.5,54.48 200.9,54.48 201.3,54.48 201.69,54.47 202.09,54.47 202.48,54.46 202.88,54.46 203.27,54.46 203.67,54.47 204.06,54.46 204.46,54.46 204.85,54.45 205.25,54.45 205.64,54.45 206.04,54.45 206.43,54.44 206.83,54.43 207.23,54.43 207.62,54.42 208.02,54.41 208.41,54.41 208.81,54.4 209.2,54.39 209.6,54.38 209.99,54.38 210.39,54.38 210.78,54.37 211.18,54.37 211.57,54.36 211.97,54.36 212.36,54.35 212.76,54.35 213.16,54.34 213.55,54.34 213.95,54.33 214.34,54.32 214.74,54.31 215.13,54.3 215.53,54.3 215.92,54.29 216.32,54.29 216.71,54.29 217.11,54.28 217.5,54.27 217.9,54.26 218.29,54.26 218.69,54.26 219.08,54.26 219.48,54.25 219.88,54.24 220.27,54.23 220.67,54.22 221.06,54.22 221.46,54.21 221.85,54.21 222.25,54.21 222.64,54.21 223.04,54.21 223.43,54.21 223.83,54.21 224.22,54.2 224.62,54.19 225.01,54.19 225.41,54.19 225.81,54.19 226.2,54.19 226.6,54.19 226.99,54.19 227.39,54.18 227.78,54.18 228.18,54.18 228.57,54.18 228.97,54.18 229.36,54.18 229.76,54.18 230.15,54.18 230.55,54.18 230.94,54.18 231.34,54.18 231.74,54.17 232.13,54.17 232.53,54.17 232.92,54.16 233.32,54.16 233.71,54.16 234.11,54.16 234.5,54.16 234.9,54.15 235.29,54.15 235.69,54.15 236.08,54.14 236.48,54.14 236.87,54.14 237.27,54.14 237.66,54.14 238.06,54.14 238.46,54.14 238.85,54.14 239.25,54.14 239.64,54.14 240.04,54.14 240.43,54.13 240.83,54.13 241.22,54.13 241.62,54.13 242.01,54.13 242.41,54.13 242.8,54.13 243.2,54.13 243.59,54.13 243.99,54.13 244.39,54.13 244.78,54.13 245.18,54.13 245.57,54.12 245.97,54.12 246.36,54.12 246.76,54.12 247.15,54.12 247.55,54.12 247.94,54.12 248.34,54.12 248.73,54.12 249.13,54.12 249.52,54.12 249.92,54.12 250.32,54.11 250.71,54.12 251.11,54.12 251.5,54.12 251.9,54.13 252.29,54.13 252.69,54.12 253.08,54.12 253.48,54.11 253.87,54.11 254.27,54.11 254.66,54.11 255.06,54.11 255.45,54.11 255.85,54.11 256.25,54.11 256.64,54.11 257.04,54.11 257.43,54.11 257.83,54.1 258.22,54.1 258.62,54.09 259.01,54.07 259.41,54.04 259.8,54.01 260.2,53.99 260.59,53.97 260.99,53.97 261.38,53.97" stroke-dasharray="none" stroke="rgb(31,120,180)" stroke-width="0.75" opacity="1" stroke-opacity="1" fill="none"/>
          </g>
          <g id="Fig:densplot_01.xyplot.lines.group.10.panel.1.1.1">
            <polyline id="Fig:densplot_01.xyplot.lines.group.10.panel.1.1.1.1" points="59,54.09 59.4,54.55 59.79,56.17 60.19,60.71 60.59,70.75 60.98,88.28 61.38,112.24 61.78,137.31 62.18,156.17 62.57,163.79 62.97,160.23 63.37,149.54 63.76,136.55 64.16,124.53 64.56,114.68 64.95,106.97 65.35,100.95 65.75,96.17 66.14,92.28 66.54,89.01 66.94,86.18 67.33,83.68 67.73,81.44 68.13,79.46 68.53,77.7 68.92,76.16 69.32,74.81 69.72,73.61 70.11,72.56 70.51,71.63 70.91,70.8 71.3,70.04 71.7,69.33 72.1,68.64 72.49,67.98 72.89,67.35 73.29,66.75 73.68,66.21 74.08,65.72 74.48,65.27 74.88,64.87 75.27,64.5 75.67,64.16 76.07,63.83 76.46,63.51 76.86,63.21 77.26,62.93 77.65,62.68 78.05,62.45 78.45,62.23 78.84,62.01 79.24,61.78 79.64,61.56 80.03,61.35 80.43,61.16 80.83,61 81.23,60.85 81.62,60.7 82.02,60.54 82.42,60.37 82.81,60.2 83.21,60.04 83.61,59.9 84,59.79 84.4,59.67 84.8,59.56 85.19,59.43 85.59,59.31 85.99,59.19 86.38,59.08 86.78,58.99 87.18,58.9 87.58,58.82 87.97,58.74 88.37,58.65 88.77,58.57 89.16,58.49 89.56,58.41 89.96,58.34 90.35,58.27 90.75,58.2 91.15,58.14 91.54,58.07 91.94,58.01 92.34,57.94 92.73,57.89 93.13,57.85 93.53,57.81 93.93,57.77 94.32,57.72 94.72,57.65 95.12,57.58 95.51,57.5 95.91,57.42 96.31,57.35 96.7,57.3 97.1,57.26 97.5,57.23 97.89,57.21 98.29,57.18 98.69,57.14 99.08,57.1 99.48,57.05 99.88,57 100.28,56.95 100.67,56.91 101.07,56.87 101.47,56.84 101.86,56.8 102.26,56.76 102.66,56.72 103.05,56.67 103.45,56.63 103.85,56.59 104.24,56.55 104.64,56.51 105.04,56.48 105.43,56.46 105.83,56.44 106.23,56.42 106.63,56.4 107.02,56.38 107.42,56.36 107.82,56.33 108.21,56.3 108.61,56.27 109.01,56.23 109.4,56.21 109.8,56.19 110.2,56.17 110.59,56.15 110.99,56.13 111.39,56.11 111.78,56.08 112.18,56.06 112.58,56.03 112.98,56 113.37,55.97 113.77,55.94 114.17,55.91 114.56,55.89 114.96,55.87 115.36,55.85 115.75,55.83 116.15,55.81 116.55,55.79 116.94,55.77 117.34,55.76 117.74,55.74 118.13,55.73 118.53,55.7 118.93,55.67 119.33,55.65 119.72,55.63 120.12,55.62 120.52,55.61 120.91,55.61 121.31,55.61 121.71,55.6 122.1,55.58 122.5,55.54 122.9,55.51 123.29,55.48 123.69,55.46 124.09,55.45 124.48,55.44 124.88,55.43 125.28,55.43 125.68,55.42 126.07,55.42 126.47,55.41 126.87,55.4 127.26,55.39 127.66,55.38 128.06,55.37 128.45,55.36 128.85,55.35 129.25,55.33 129.64,55.32 130.04,55.31 130.44,55.3 130.83,55.28 131.23,55.27 131.63,55.26 132.03,55.25 132.42,55.24 132.82,55.24 133.22,55.23 133.61,55.22 134.01,55.21 134.41,55.2 134.8,55.17 135.2,55.15 135.6,55.13 135.99,55.11 136.39,55.11 136.79,55.1 137.18,55.1 137.58,55.1 137.98,55.1 138.38,55.09 138.77,55.08 139.17,55.07 139.57,55.06 139.96,55.05 140.36,55.03 140.76,55.02 141.15,55.02 141.55,55.01 141.95,55 142.34,54.99 142.74,54.98 143.14,54.96 143.53,54.94 143.93,54.93 144.33,54.92 144.73,54.92 145.12,54.92 145.52,54.92 145.92,54.92 146.31,54.91 146.71,54.9 147.11,54.89 147.5,54.89 147.9,54.89 148.3,54.89 148.69,54.89 149.09,54.89 149.49,54.88 149.88,54.88 150.28,54.87 150.68,54.87 151.08,54.86 151.47,54.85 151.87,54.84 152.27,54.83 152.66,54.83 153.06,54.83 153.46,54.82 153.85,54.82 154.25,54.82 154.65,54.82 155.04,54.81 155.44,54.8 155.84,54.79 156.23,54.78 156.63,54.77 157.03,54.76 157.43,54.76 157.82,54.76 158.22,54.76 158.62,54.76 159.01,54.75 159.41,54.75 159.81,54.74 160.2,54.73 160.6,54.72 161,54.72 161.39,54.71 161.79,54.7 162.19,54.69 162.58,54.69 162.98,54.68 163.38,54.68 163.78,54.68 164.17,54.67 164.57,54.66 164.97,54.66 165.36,54.66 165.76,54.66 166.16,54.66 166.55,54.66 166.95,54.66 167.35,54.65 167.74,54.65 168.14,54.64 168.54,54.63 168.93,54.62 169.33,54.61 169.73,54.6 170.13,54.6 170.52,54.61 170.92,54.61 171.32,54.61 171.71,54.61 172.11,54.61 172.51,54.6 172.9,54.59 173.3,54.57 173.7,54.56 174.09,54.55 174.49,54.54 174.89,54.54 175.28,54.54 175.68,54.54 176.08,54.54 176.48,54.54 176.87,54.54 177.27,54.54 177.67,54.54 178.06,54.54 178.46,54.53 178.86,54.53 179.25,54.53 179.65,54.53 180.05,54.52 180.44,54.51 180.84,54.5 181.24,54.49 181.63,54.48 182.03,54.47 182.43,54.47 182.83,54.47 183.22,54.48 183.62,54.48 184.02,54.48 184.41,54.48 184.81,54.48 185.21,54.48 185.6,54.47 186,54.47 186.4,54.47 186.79,54.46 187.19,54.45 187.59,54.45 187.98,54.44 188.38,54.43 188.78,54.43 189.18,54.43 189.57,54.42 189.97,54.42 190.37,54.42 190.76,54.42 191.16,54.42 191.56,54.42 191.95,54.42 192.35,54.42 192.75,54.42 193.14,54.42 193.54,54.42 193.94,54.42 194.33,54.42 194.73,54.42 195.13,54.42 195.53,54.42 195.92,54.42 196.32,54.41 196.72,54.4 197.11,54.4 197.51,54.4 197.91,54.39 198.3,54.39 198.7,54.39 199.1,54.39 199.49,54.39 199.89,54.38 200.29,54.38 200.68,54.37 201.08,54.37 201.48,54.37 201.88,54.37 202.27,54.37 202.67,54.37 203.07,54.37 203.46,54.37 203.86,54.37 204.26,54.37 204.65,54.37 205.05,54.37 205.45,54.37 205.84,54.37 206.24,54.36 206.64,54.36 207.03,54.36 207.43,54.36 207.83,54.36 208.23,54.36 208.62,54.36 209.02,54.35 209.42,54.35 209.81,54.35 210.21,54.35 210.61,54.34 211,54.34 211.4,54.34 211.8,54.34 212.19,54.34 212.59,54.35 212.99,54.36 213.38,54.37 213.78,54.37 214.18,54.37 214.58,54.37 214.97,54.37 215.37,54.37 215.77,54.38 216.16,54.38 216.56,54.37 216.96,54.37 217.35,54.37 217.75,54.37 218.15,54.37 218.54,54.37 218.94,54.36 219.34,54.36 219.73,54.36 220.13,54.37 220.53,54.38 220.93,54.39 221.32,54.4 221.72,54.4 222.12,54.41 222.51,54.41 222.91,54.41 223.31,54.41 223.7,54.42 224.1,54.42 224.5,54.42 224.89,54.42 225.29,54.43 225.69,54.43 226.08,54.44 226.48,54.44 226.88,54.45 227.28,54.46 227.67,54.46 228.07,54.46 228.47,54.46 228.86,54.45 229.26,54.45 229.66,54.45 230.05,54.45 230.45,54.46 230.85,54.46 231.24,54.45 231.64,54.45 232.04,54.44 232.43,54.43 232.83,54.42 233.23,54.41 233.63,54.39 234.02,54.38 234.42,54.38 234.82,54.37 235.21,54.37 235.61,54.37 236.01,54.37 236.4,54.37 236.8,54.37 237.2,54.37 237.59,54.37 237.99,54.36 238.39,54.36 238.78,54.35 239.18,54.35 239.58,54.34 239.98,54.33 240.37,54.33 240.77,54.32 241.17,54.31 241.56,54.31 241.96,54.31 242.36,54.31 242.75,54.31 243.15,54.31 243.55,54.31 243.94,54.3 244.34,54.3 244.74,54.3 245.13,54.3 245.53,54.29 245.93,54.29 246.33,54.28 246.72,54.27 247.12,54.26 247.52,54.25 247.91,54.24 248.31,54.23 248.71,54.23 249.1,54.22 249.5,54.22 249.9,54.21 250.29,54.21 250.69,54.21 251.09,54.21 251.48,54.21 251.88,54.21 252.28,54.2 252.68,54.2 253.07,54.2 253.47,54.2 253.87,54.19 254.26,54.19 254.66,54.19 255.06,54.19 255.45,54.19 255.85,54.19 256.25,54.19 256.64,54.19 257.04,54.19 257.44,54.18 257.83,54.17 258.23,54.16 258.63,54.13 259.03,54.1 259.42,54.07 259.82,54.03 260.22,54 260.61,53.98 261.01,53.97 261.41,53.97 261.8,53.97" stroke-dasharray="none" stroke="rgb(31,120,180)" stroke-width="0.75" opacity="1" stroke-opacity="1" fill="none"/>
          </g>
          <g id="Fig:densplot_01.xyplot.lines.group.11.panel.1.1.1">
            <polyline id="Fig:densplot_01.xyplot.lines.group.11.panel.1.1.1.1" points="59.06,54.12 59.46,54.69 59.85,56.71 60.25,62.3 60.65,74.46 61.04,95.12 61.44,122.33 61.84,149.24 62.23,167.31 62.63,171.7 63.03,163.97 63.42,149.85 63.82,134.93 64.21,122.21 64.61,112.31 65.01,104.74 65.4,98.83 65.8,94.12 66.2,90.27 66.59,87.06 66.99,84.33 67.39,81.96 67.78,79.87 68.18,78.02 68.58,76.39 68.97,74.97 69.37,73.74 69.77,72.65 70.16,71.67 70.56,70.77 70.96,69.95 71.35,69.2 71.75,68.5 72.15,67.84 72.54,67.22 72.94,66.65 73.34,66.13 73.73,65.66 74.13,65.23 74.53,64.83 74.92,64.46 75.32,64.1 75.72,63.76 76.11,63.45 76.51,63.15 76.91,62.88 77.3,62.63 77.7,62.39 78.1,62.16 78.49,61.94 78.89,61.71 79.29,61.49 79.68,61.29 80.08,61.11 80.48,60.94 80.87,60.79 81.27,60.65 81.67,60.51 82.06,60.37 82.46,60.22 82.86,60.06 83.25,59.91 83.65,59.77 84.04,59.65 84.44,59.54 84.84,59.44 85.23,59.34 85.63,59.23 86.03,59.13 86.42,59.03 86.82,58.93 87.22,58.86 87.61,58.78 88.01,58.69 88.41,58.59 88.8,58.49 89.2,58.4 89.6,58.33 89.99,58.27 90.39,58.21 90.79,58.14 91.18,58.07 91.58,58 91.98,57.94 92.37,57.89 92.77,57.84 93.17,57.79 93.56,57.74 93.96,57.68 94.36,57.63 94.75,57.57 95.15,57.51 95.55,57.45 95.94,57.39 96.34,57.34 96.74,57.29 97.13,57.25 97.53,57.2 97.93,57.16 98.32,57.12 98.72,57.08 99.12,57.04 99.51,57 99.91,56.95 100.31,56.91 100.7,56.86 101.1,56.81 101.5,56.76 101.89,56.71 102.29,56.66 102.69,56.62 103.08,56.58 103.48,56.56 103.88,56.54 104.27,56.52 104.67,56.5 105.06,56.48 105.46,56.45 105.86,56.41 106.25,56.38 106.65,56.33 107.05,56.29 107.44,56.26 107.84,56.23 108.24,56.22 108.63,56.2 109.03,56.19 109.43,56.16 109.82,56.13 110.22,56.1 110.62,56.07 111.01,56.05 111.41,56.03 111.81,56.02 112.2,56 112.6,55.97 113,55.95 113.39,55.92 113.79,55.89 114.19,55.87 114.58,55.85 114.98,55.84 115.38,55.83 115.77,55.81 116.17,55.79 116.57,55.77 116.96,55.76 117.36,55.74 117.76,55.73 118.15,55.71 118.55,55.7 118.95,55.69 119.34,55.67 119.74,55.66 120.14,55.64 120.53,55.61 120.93,55.59 121.33,55.56 121.72,55.53 122.12,55.52 122.52,55.5 122.91,55.48 123.31,55.46 123.71,55.44 124.1,55.43 124.5,55.43 124.89,55.42 125.29,55.42 125.69,55.42 126.08,55.41 126.48,55.39 126.88,55.38 127.27,55.35 127.67,55.33 128.07,55.3 128.46,55.27 128.86,55.25 129.26,55.23 129.65,55.22 130.05,55.21 130.45,55.21 130.84,55.21 131.24,55.21 131.64,55.21 132.03,55.2 132.43,55.2 132.83,55.19 133.22,55.17 133.62,55.16 134.02,55.14 134.41,55.12 134.81,55.1 135.21,55.09 135.6,55.08 136,55.07 136.4,55.07 136.79,55.07 137.19,55.07 137.59,55.08 137.98,55.08 138.38,55.07 138.78,55.05 139.17,55.03 139.57,55.01 139.97,54.99 140.36,54.99 140.76,54.99 141.16,55 141.55,55 141.95,55.01 142.35,55 142.74,54.99 143.14,54.97 143.54,54.95 143.93,54.93 144.33,54.92 144.73,54.92 145.12,54.92 145.52,54.91 145.91,54.91 146.31,54.9 146.71,54.9 147.1,54.9 147.5,54.91 147.9,54.91 148.29,54.9 148.69,54.89 149.09,54.88 149.48,54.86 149.88,54.85 150.28,54.84 150.67,54.83 151.07,54.82 151.47,54.81 151.86,54.81 152.26,54.8 152.66,54.8 153.05,54.8 153.45,54.8 153.85,54.79 154.24,54.79 154.64,54.78 155.04,54.78 155.43,54.77 155.83,54.76 156.23,54.75 156.62,54.74 157.02,54.74 157.42,54.73 157.81,54.73 158.21,54.73 158.61,54.73 159,54.73 159.4,54.72 159.8,54.72 160.19,54.71 160.59,54.71 160.99,54.71 161.38,54.7 161.78,54.69 162.18,54.68 162.57,54.66 162.97,54.64 163.37,54.63 163.76,54.62 164.16,54.62 164.56,54.63 164.95,54.63 165.35,54.63 165.74,54.62 166.14,54.61 166.54,54.61 166.93,54.6 167.33,54.59 167.73,54.58 168.12,54.58 168.52,54.58 168.92,54.58 169.31,54.58 169.71,54.58 170.11,54.59 170.5,54.58 170.9,54.57 171.3,54.57 171.69,54.56 172.09,54.56 172.49,54.56 172.88,54.56 173.28,54.55 173.68,54.55 174.07,54.54 174.47,54.54 174.87,54.54 175.26,54.54 175.66,54.54 176.06,54.54 176.45,54.53 176.85,54.53 177.25,54.53 177.64,54.53 178.04,54.52 178.44,54.51 178.83,54.5 179.23,54.49 179.63,54.48 180.02,54.47 180.42,54.47 180.82,54.47 181.21,54.48 181.61,54.48 182.01,54.47 182.4,54.47 182.8,54.46 183.2,54.45 183.59,54.44 183.99,54.44 184.39,54.44 184.78,54.44 185.18,54.44 185.57,54.43 185.97,54.42 186.37,54.41 186.76,54.41 187.16,54.41 187.56,54.41 187.95,54.42 188.35,54.42 188.75,54.42 189.14,54.42 189.54,54.42 189.94,54.42 190.33,54.42 190.73,54.41 191.13,54.41 191.52,54.42 191.92,54.42 192.32,54.43 192.71,54.43 193.11,54.43 193.51,54.43 193.9,54.43 194.3,54.43 194.7,54.43 195.09,54.44 195.49,54.44 195.89,54.45 196.28,54.46 196.68,54.46 197.08,54.46 197.47,54.47 197.87,54.47 198.27,54.46 198.66,54.46 199.06,54.46 199.46,54.46 199.85,54.47 200.25,54.49 200.65,54.51 201.04,54.53 201.44,54.55 201.84,54.55 202.23,54.56 202.63,54.56 203.03,54.56 203.42,54.56 203.82,54.57 204.22,54.57 204.61,54.58 205.01,54.6 205.41,54.61 205.8,54.61 206.2,54.62 206.59,54.62 206.99,54.62 207.39,54.61 207.78,54.61 208.18,54.62 208.58,54.62 208.97,54.62 209.37,54.62 209.77,54.61 210.16,54.59 210.56,54.57 210.96,54.56 211.35,54.54 211.75,54.54 212.15,54.53 212.54,54.52 212.94,54.51 213.34,54.5 213.73,54.49 214.13,54.48 214.53,54.48 214.92,54.47 215.32,54.46 215.72,54.45 216.11,54.44 216.51,54.43 216.91,54.42 217.3,54.41 217.7,54.39 218.1,54.37 218.49,54.36 218.89,54.35 219.29,54.34 219.68,54.33 220.08,54.32 220.48,54.31 220.87,54.3 221.27,54.3 221.67,54.29 222.06,54.29 222.46,54.29 222.86,54.29 223.25,54.28 223.65,54.27 224.05,54.26 224.44,54.25 224.84,54.24 225.24,54.24 225.63,54.25 226.03,54.25 226.42,54.25 226.82,54.25 227.22,54.24 227.61,54.24 228.01,54.24 228.41,54.23 228.8,54.23 229.2,54.23 229.6,54.23 229.99,54.24 230.39,54.24 230.79,54.24 231.18,54.24 231.58,54.23 231.98,54.23 232.37,54.23 232.77,54.22 233.17,54.22 233.56,54.21 233.96,54.21 234.36,54.21 234.75,54.2 235.15,54.2 235.55,54.2 235.94,54.21 236.34,54.21 236.74,54.21 237.13,54.21 237.53,54.21 237.93,54.21 238.32,54.21 238.72,54.21 239.12,54.2 239.51,54.2 239.91,54.19 240.31,54.19 240.7,54.19 241.1,54.19 241.5,54.19 241.89,54.19 242.29,54.2 242.69,54.2 243.08,54.19 243.48,54.19 243.88,54.19 244.27,54.19 244.67,54.19 245.07,54.19 245.46,54.19 245.86,54.18 246.26,54.17 246.65,54.17 247.05,54.16 247.44,54.16 247.84,54.16 248.24,54.16 248.63,54.16 249.03,54.16 249.43,54.16 249.82,54.16 250.22,54.16 250.62,54.16 251.01,54.16 251.41,54.16 251.81,54.16 252.2,54.16 252.6,54.16 253,54.16 253.39,54.16 253.79,54.16 254.19,54.16 254.58,54.16 254.98,54.15 255.38,54.15 255.77,54.15 256.17,54.15 256.57,54.15 256.96,54.15 257.36,54.15 257.76,54.14 258.15,54.14 258.55,54.12 258.95,54.09 259.34,54.06 259.74,54.03 260.14,54 260.53,53.98 260.93,53.97 261.33,53.97 261.72,53.97" stroke-dasharray="none" stroke="rgb(31,120,180)" stroke-width="0.75" opacity="1" stroke-opacity="1" fill="none"/>
          </g>
          <g id="Fig:densplot_01.xyplot.lines.group.12.panel.1.1.1">
            <polyline id="Fig:densplot_01.xyplot.lines.group.12.panel.1.1.1.1" points="59.34,54.15 59.74,55.01 60.13,58.44 60.53,68.44 60.92,89.85 61.32,123.21 61.72,159.97 62.11,186.01 62.51,192.23 62.9,180.85 63.3,161.23 63.69,141.77 64.09,126.13 64.48,114.46 64.88,105.73 65.28,99.03 65.67,93.72 66.07,89.43 66.46,85.91 66.86,82.99 67.25,80.54 67.65,78.46 68.04,76.67 68.44,75.14 68.83,73.82 69.23,72.66 69.63,71.6 70.02,70.61 70.42,69.69 70.81,68.84 71.21,68.09 71.6,67.4 72,66.78 72.39,66.22 72.79,65.74 73.19,65.3 73.58,64.9 73.98,64.53 74.37,64.16 74.77,63.82 75.16,63.5 75.56,63.2 75.95,62.91 76.35,62.62 76.74,62.33 77.14,62.04 77.54,61.77 77.93,61.53 78.33,61.31 78.72,61.13 79.12,60.98 79.51,60.84 79.91,60.7 80.3,60.56 80.7,60.41 81.09,60.26 81.49,60.09 81.89,59.93 82.28,59.79 82.68,59.68 83.07,59.58 83.47,59.49 83.86,59.4 84.26,59.3 84.65,59.18 85.05,59.06 85.45,58.94 85.84,58.83 86.24,58.73 86.63,58.64 87.03,58.55 87.42,58.47 87.82,58.4 88.21,58.32 88.61,58.25 89,58.17 89.4,58.1 89.8,58.03 90.19,57.96 90.59,57.88 90.98,57.8 91.38,57.73 91.77,57.66 92.17,57.61 92.56,57.56 92.96,57.53 93.36,57.5 93.75,57.45 94.15,57.39 94.54,57.32 94.94,57.26 95.33,57.21 95.73,57.17 96.12,57.14 96.52,57.1 96.91,57.06 97.31,57.01 97.71,56.96 98.1,56.9 98.5,56.85 98.89,56.8 99.29,56.75 99.68,56.71 100.08,56.66 100.47,56.62 100.87,56.6 101.26,56.57 101.66,56.55 102.06,56.53 102.45,56.51 102.85,56.48 103.24,56.44 103.64,56.4 104.03,56.36 104.43,56.32 104.82,56.29 105.22,56.25 105.62,56.22 106.01,56.19 106.41,56.17 106.8,56.15 107.2,56.14 107.59,56.14 107.99,56.12 108.38,56.09 108.78,56.06 109.17,56.04 109.57,56.02 109.97,56 110.36,55.97 110.76,55.95 111.15,55.92 111.55,55.89 111.94,55.86 112.34,55.83 112.73,55.8 113.13,55.78 113.53,55.77 113.92,55.76 114.32,55.75 114.71,55.73 115.11,55.7 115.5,55.66 115.9,55.63 116.29,55.6 116.69,55.58 117.08,55.56 117.48,55.55 117.88,55.54 118.27,55.54 118.67,55.53 119.06,55.52 119.46,55.5 119.85,55.47 120.25,55.45 120.64,55.42 121.04,55.4 121.43,55.38 121.83,55.37 122.23,55.37 122.62,55.37 123.02,55.38 123.41,55.38 123.81,55.37 124.2,55.36 124.6,55.34 124.99,55.31 125.39,55.29 125.79,55.26 126.18,55.24 126.58,55.23 126.97,55.21 127.37,55.19 127.76,55.18 128.16,55.18 128.55,55.18 128.95,55.18 129.34,55.18 129.74,55.17 130.14,55.16 130.53,55.15 130.93,55.14 131.32,55.13 131.72,55.11 132.11,55.1 132.51,55.09 132.9,55.07 133.3,55.06 133.7,55.05 134.09,55.04 134.49,55.04 134.88,55.04 135.28,55.03 135.67,55.02 136.07,55.02 136.46,55.01 136.86,55.01 137.25,55.01 137.65,55.02 138.05,55.02 138.44,55.01 138.84,55 139.23,54.98 139.63,54.97 140.02,54.95 140.42,54.92 140.81,54.9 141.21,54.88 141.6,54.87 142,54.87 142.4,54.87 142.79,54.87 143.19,54.87 143.58,54.88 143.98,54.88 144.37,54.87 144.77,54.87 145.16,54.86 145.56,54.84 145.96,54.83 146.35,54.82 146.75,54.81 147.14,54.8 147.54,54.78 147.93,54.77 148.33,54.76 148.72,54.75 149.12,54.75 149.51,54.76 149.91,54.77 150.31,54.77 150.7,54.77 151.1,54.77 151.49,54.77 151.89,54.76 152.28,54.75 152.68,54.74 153.07,54.73 153.47,54.71 153.87,54.69 154.26,54.68 154.66,54.67 155.05,54.67 155.45,54.68 155.84,54.68 156.24,54.68 156.63,54.67 157.03,54.66 157.42,54.65 157.82,54.64 158.22,54.64 158.61,54.63 159.01,54.62 159.4,54.61 159.8,54.61 160.19,54.61 160.59,54.62 160.98,54.63 161.38,54.63 161.77,54.63 162.17,54.63 162.57,54.63 162.96,54.63 163.36,54.63 163.75,54.63 164.15,54.62 164.54,54.6 164.94,54.59 165.33,54.57 165.73,54.56 166.13,54.56 166.52,54.55 166.92,54.54 167.31,54.53 167.71,54.53 168.1,54.52 168.5,54.51 168.89,54.51 169.29,54.51 169.68,54.52 170.08,54.53 170.48,54.53 170.87,54.53 171.27,54.52 171.66,54.51 172.06,54.5 172.45,54.5 172.85,54.49 173.24,54.49 173.64,54.49 174.04,54.48 174.43,54.48 174.83,54.48 175.22,54.48 175.62,54.48 176.01,54.48 176.41,54.48 176.8,54.48 177.2,54.47 177.59,54.47 177.99,54.47 178.39,54.46 178.78,54.46 179.18,54.46 179.57,54.45 179.97,54.45 180.36,54.45 180.76,54.46 181.15,54.47 181.55,54.49 181.94,54.5 182.34,54.52 182.74,54.52 183.13,54.53 183.53,54.54 183.92,54.55 184.32,54.56 184.71,54.57 185.11,54.58 185.5,54.59 185.9,54.61 186.3,54.61 186.69,54.62 187.09,54.63 187.48,54.64 187.88,54.65 188.27,54.66 188.67,54.68 189.06,54.7 189.46,54.72 189.85,54.74 190.25,54.75 190.65,54.75 191.04,54.74 191.44,54.73 191.83,54.72 192.23,54.72 192.62,54.72 193.02,54.72 193.41,54.72 193.81,54.71 194.21,54.69 194.6,54.67 195,54.66 195.39,54.65 195.79,54.63 196.18,54.62 196.58,54.6 196.97,54.58 197.37,54.56 197.76,54.55 198.16,54.54 198.56,54.53 198.95,54.51 199.35,54.49 199.74,54.47 200.14,54.45 200.53,54.43 200.93,54.41 201.32,54.4 201.72,54.38 202.11,54.37 202.51,54.36 202.91,54.35 203.3,54.35 203.7,54.34 204.09,54.34 204.49,54.34 204.88,54.34 205.28,54.33 205.67,54.33 206.07,54.32 206.47,54.31 206.86,54.3 207.26,54.29 207.65,54.29 208.05,54.28 208.44,54.28 208.84,54.28 209.23,54.27 209.63,54.27 210.02,54.27 210.42,54.27 210.82,54.27 211.21,54.27 211.61,54.27 212,54.26 212.4,54.26 212.79,54.26 213.19,54.25 213.58,54.25 213.98,54.24 214.38,54.24 214.77,54.23 215.17,54.23 215.56,54.23 215.96,54.24 216.35,54.24 216.75,54.24 217.14,54.23 217.54,54.24 217.93,54.24 218.33,54.25 218.73,54.25 219.12,54.25 219.52,54.25 219.91,54.24 220.31,54.24 220.7,54.23 221.1,54.23 221.49,54.22 221.89,54.22 222.28,54.21 222.68,54.21 223.08,54.2 223.47,54.2 223.87,54.2 224.26,54.2 224.66,54.19 225.05,54.19 225.45,54.2 225.84,54.2 226.24,54.21 226.64,54.21 227.03,54.21 227.43,54.21 227.82,54.21 228.22,54.2 228.61,54.19 229.01,54.19 229.4,54.19 229.8,54.19 230.19,54.19 230.59,54.19 230.99,54.18 231.38,54.18 231.78,54.18 232.17,54.17 232.57,54.17 232.96,54.17 233.36,54.17 233.75,54.17 234.15,54.18 234.55,54.18 234.94,54.18 235.34,54.18 235.73,54.18 236.13,54.18 236.52,54.17 236.92,54.17 237.31,54.16 237.71,54.16 238.1,54.15 238.5,54.15 238.9,54.15 239.29,54.15 239.69,54.15 240.08,54.16 240.48,54.16 240.87,54.16 241.27,54.16 241.66,54.16 242.06,54.16 242.45,54.16 242.85,54.16 243.25,54.16 243.64,54.16 244.04,54.16 244.43,54.15 244.83,54.15 245.22,54.15 245.62,54.16 246.01,54.16 246.41,54.16 246.81,54.15 247.2,54.15 247.6,54.14 247.99,54.14 248.39,54.14 248.78,54.14 249.18,54.14 249.57,54.14 249.97,54.14 250.36,54.14 250.76,54.14 251.16,54.13 251.55,54.13 251.95,54.13 252.34,54.13 252.74,54.13 253.13,54.12 253.53,54.12 253.92,54.12 254.32,54.12 254.72,54.12 255.11,54.12 255.51,54.12 255.9,54.12 256.3,54.12 256.69,54.12 257.09,54.12 257.48,54.13 257.88,54.13 258.27,54.12 258.67,54.1 259.07,54.07 259.46,54.04 259.86,54.01 260.25,53.98 260.65,53.97 261.04,53.97 261.44,53.97" stroke-dasharray="none" stroke="rgb(31,120,180)" stroke-width="0.75" opacity="1" stroke-opacity="1" fill="none"/>
          </g>
        </g>
        <g id="Fig:densplot_01.panel.1.1.off.vp.2">
          <g id="Fig:densplot_01.border.panel.1.1.1">
            <rect id="Fig:densplot_01.border.panel.1.1.1.1" x="44.8" y="42.19" width="231.2" height="191.81" transform="" stroke="rgb(0,0,0)" stroke-dasharray="none" stroke-width="0.75" opacity="1" fill="none" stroke-opacity="1" fill-opacity="0"/>
          </g>
        </g>
        <g id="Fig:densplot_01..1"/>
      </g>
    </g>
  </g>
</svg>