<?xml version="1.0" encoding="ISO8859-1"?>
<svg xmlns="http://www.w3.org/2000/svg" xmlns:xlink="http://www.w3.org/1999/xlink" width="288px" height="252px" viewBox="0 0 288 252" version="1.1" id="Fig:dens">
  <metadata xmlns:gridsvg="http://www.stat.auckland.ac.nz/~paul/R/gridSVG/">
    <gridsvg:generator name="gridSVG" version="1.7-1" time="2020-05-03 14:59:00"/>
    <gridsvg:argument name="name" value="./results/QCDir.Norm/dens.svg"/>
    <gridsvg:argument name="exportCoords" value="none"/>
    <gridsvg:argument name="exportMappings" value="none"/>
    <gridsvg:argument name="exportJS" value="none"/>
    <gridsvg:argument name="res" value="72"/>
    <gridsvg:argument name="prefix" value="Fig:dens"/>
    <gridsvg:argument name="addClasses" value="FALSE"/>
    <gridsvg:argument name="indent" value="TRUE"/>
    <gridsvg:argument name="htmlWrapper" value="FALSE"/>
    <gridsvg:argument name="usePaths" value="none"/>
    <gridsvg:argument name="uniqueNames" value="TRUE"/>
    <gridsvg:separator name="id.sep" value="."/>
    <gridsvg:separator name="gPath.sep" value="::"/>
    <gridsvg:separator name="vpPath.sep" value="::"/>
  </metadata>
  <g transform="translate(0, 252) scale(1, -1)">
    <g id="Fig:densgridSVG" fill="none" stroke="rgb(0,0,0)" stroke-dasharray="none" stroke-width="0.75" font-size="12" font-family="Helvetica, Arial, FreeSans, Liberation Sans, Nimbus Sans L, sans-serif" opacity="1" stroke-linecap="round" stroke-linejoin="round" stroke-miterlimit="10" stroke-opacity="1" fill-opacity="0" font-weight="normal" font-style="normal">
      <g id="Fig:densplot_01.background.1">
        <rect id="Fig:densplot_01.background.1.1" x="0" y="0" width="288" height="252" transform="" fill="none" stroke="none" stroke-opacity="0" fill-opacity="0"/>
      </g>
      <g id="Fig:densplot_01.toplevel.vp.1" font-size="12">
        <g id="Fig:densplot_01.ylab.vp.1">
          <g id="Fig:densplot_01.ylab.1">
            <g id="Fig:densplot_01.ylab.1.1" transform="translate(10.31, 138.09)" stroke-width="0.1">
              <g id="Fig:densplot_01.ylab.1.1.scale" transform="scale(1, -1)">
                <text x="0" y="0" id="Fig:densplot_01.ylab.1.1.text" transform="rotate(-90)" text-anchor="middle" opacity="1" stroke="rgb(0,0,0)" fill="rgb(0,0,0)" stroke-opacity="1" fill-opacity="1" font-size="12" font-weight="normal" font-style="normal">
                  <tspan id="Fig:densplot_01.ylab.1.1.tspan.1" dy="4.31" x="0">Density</tspan>
                </text>
              </g>
            </g>
          </g>
        </g>
        <g id="Fig:densplot_01.figure.vp.1"/>
        <defs>
          <clipPath id="Fig:densplot_01.panel.1.1.vp.1.clipPath">
            <rect x="44.8" y="42.19" width="231.2" height="191.81" fill="none" stroke="none"/>
          </clipPath>
        </defs>
        <g id="Fig:densplot_01.panel.1.1.vp.1" clip-path="url(#Fig:densplot_01.panel.1.1.vp.1.clipPath)"/>
        <g id="Fig:densplot_01.strip.1.1.off.vp.1"/>
        <g id="Fig:densplot_01.strip.left.1.1.off.vp.1">
          <g id="Fig:densplot_01.ticks.left.panel.1.1.1">
            <polyline id="Fig:densplot_01.ticks.left.panel.1.1.1.1" points="44.8,53.94 39.13,53.94" stroke="rgb(0,0,0)" opacity="1" stroke-dasharray="none" stroke-width="0.75" stroke-opacity="1" fill="none"/>
            <polyline id="Fig:densplot_01.ticks.left.panel.1.1.1.2" points="44.8,99.86 39.13,99.86" stroke="rgb(0,0,0)" opacity="1" stroke-dasharray="none" stroke-width="0.75" stroke-opacity="1" fill="none"/>
            <polyline id="Fig:densplot_01.ticks.left.panel.1.1.1.3" points="44.8,145.78 39.13,145.78" stroke="rgb(0,0,0)" opacity="1" stroke-dasharray="none" stroke-width="0.75" stroke-opacity="1" fill="none"/>
            <polyline id="Fig:densplot_01.ticks.left.panel.1.1.1.4" points="44.8,191.7 39.13,191.7" stroke="rgb(0,0,0)" opacity="1" stroke-dasharray="none" stroke-width="0.75" stroke-opacity="1" fill="none"/>
          </g>
          <g id="Fig:densplot_01.ticklabels.left.panel.1.1.1">
            <g id="Fig:densplot_01.ticklabels.left.panel.1.1.1.1" transform="translate(33.47, 53.94)" stroke-width="0.1">
              <g id="Fig:densplot_01.ticklabels.left.panel.1.1.1.1.scale" transform="scale(1, -1)">
                <text x="0" y="0" id="Fig:densplot_01.ticklabels.left.panel.1.1.1.1.text" transform="rotate(-90)" text-anchor="middle" stroke="rgb(0,0,0)" opacity="1" fill="rgb(0,0,0)" stroke-opacity="1" fill-opacity="1" font-size="9.6" font-weight="normal" font-style="normal">
                  <tspan id="Fig:densplot_01.ticklabels.left.panel.1.1.1.1.tspan.1" dy="0" x="0">0.00</tspan>
                </text>
              </g>
            </g>
            <g id="Fig:densplot_01.ticklabels.left.panel.1.1.1.2" transform="translate(33.47, 99.86)" stroke-width="0.1">
              <g id="Fig:densplot_01.ticklabels.left.panel.1.1.1.2.scale" transform="scale(1, -1)">
                <text x="0" y="0" id="Fig:densplot_01.ticklabels.left.panel.1.1.1.2.text" transform="rotate(-90)" text-anchor="middle" stroke="rgb(0,0,0)" opacity="1" fill="rgb(0,0,0)" stroke-opacity="1" fill-opacity="1" font-size="9.6" font-weight="normal" font-style="normal">
                  <tspan id="Fig:densplot_01.ticklabels.left.panel.1.1.1.2.tspan.1" dy="0" x="0">0.05</tspan>
                </text>
              </g>
            </g>
            <g id="Fig:densplot_01.ticklabels.left.panel.1.1.1.3" transform="translate(33.47, 145.78)" stroke-width="0.1">
              <g id="Fig:densplot_01.ticklabels.left.panel.1.1.1.3.scale" transform="scale(1, -1)">
                <text x="0" y="0" id="Fig:densplot_01.ticklabels.left.panel.1.1.1.3.text" transform="rotate(-90)" text-anchor="middle" stroke="rgb(0,0,0)" opacity="1" fill="rgb(0,0,0)" stroke-opacity="1" fill-opacity="1" font-size="9.6" font-weight="normal" font-style="normal">
                  <tspan id="Fig:densplot_01.ticklabels.left.panel.1.1.1.3.tspan.1" dy="0" x="0">0.10</tspan>
                </text>
              </g>
            </g>
            <g id="Fig:densplot_01.ticklabels.left.panel.1.1.1.4" transform="translate(33.47, 191.7)" stroke-width="0.1">
              <g id="Fig:densplot_01.ticklabels.left.panel.1.1.1.4.scale" transform="scale(1, -1)">
                <text x="0" y="0" id="Fig:densplot_01.ticklabels.left.panel.1.1.1.4.text" transform="rotate(-90)" text-anchor="middle" stroke="rgb(0,0,0)" opacity="1" fill="rgb(0,0,0)" stroke-opacity="1" fill-opacity="1" font-size="9.6" font-weight="normal" font-style="normal">
                  <tspan id="Fig:densplot_01.ticklabels.left.panel.1.1.1.4.tspan.1" dy="0" x="0">0.15</tspan>
                </text>
              </g>
            </g>
          </g>
        </g>
        <g id="Fig:densplot_01.panel.1.1.off.vp.1">
          <g id="Fig:densplot_01.ticks.bottom.panel.1.1.1">
            <polyline id="Fig:densplot_01.ticks.bottom.panel.1.1.1.1" points="52.25,42.19 52.25,36.52" stroke="rgb(0,0,0)" opacity="1" stroke-dasharray="none" stroke-width="0.75" stroke-opacity="1" fill="none"/>
            <polyline id="Fig:densplot_01.ticks.bottom.panel.1.1.1.2" points="86.88,42.19 86.88,36.52" stroke="rgb(0,0,0)" opacity="1" stroke-dasharray="none" stroke-width="0.75" stroke-opacity="1" fill="none"/>
            <polyline id="Fig:densplot_01.ticks.bottom.panel.1.1.1.3" points="121.52,42.19 121.52,36.52" stroke="rgb(0,0,0)" opacity="1" stroke-dasharray="none" stroke-width="0.75" stroke-opacity="1" fill="none"/>
            <polyline id="Fig:densplot_01.ticks.bottom.panel.1.1.1.4" points="156.16,42.19 156.16,36.52" stroke="rgb(0,0,0)" opacity="1" stroke-dasharray="none" stroke-width="0.75" stroke-opacity="1" fill="none"/>
            <polyline id="Fig:densplot_01.ticks.bottom.panel.1.1.1.5" points="190.79,42.19 190.79,36.52" stroke="rgb(0,0,0)" opacity="1" stroke-dasharray="none" stroke-width="0.75" stroke-opacity="1" fill="none"/>
            <polyline id="Fig:densplot_01.ticks.bottom.panel.1.1.1.6" points="225.43,42.19 225.43,36.52" stroke="rgb(0,0,0)" opacity="1" stroke-dasharray="none" stroke-width="0.75" stroke-opacity="1" fill="none"/>
            <polyline id="Fig:densplot_01.ticks.bottom.panel.1.1.1.7" points="260.06,42.19 260.06,36.52" stroke="rgb(0,0,0)" opacity="1" stroke-dasharray="none" stroke-width="0.75" stroke-opacity="1" fill="none"/>
          </g>
          <g id="Fig:densplot_01.ticklabels.bottom.panel.1.1.1">
            <g id="Fig:densplot_01.ticklabels.bottom.panel.1.1.1.1" transform="translate(52.25, 30.85)" stroke-width="0.1">
              <g id="Fig:densplot_01.ticklabels.bottom.panel.1.1.1.1.scale" transform="scale(1, -1)">
                <text x="0" y="0" id="Fig:densplot_01.ticklabels.bottom.panel.1.1.1.1.text" text-anchor="middle" stroke="rgb(0,0,0)" opacity="1" fill="rgb(0,0,0)" stroke-opacity="1" fill-opacity="1" font-size="9.6" font-weight="normal" font-style="normal">
                  <tspan id="Fig:densplot_01.ticklabels.bottom.panel.1.1.1.1.tspan.1" dy="7.18" x="0">2</tspan>
                </text>
              </g>
            </g>
            <g id="Fig:densplot_01.ticklabels.bottom.panel.1.1.1.2" transform="translate(86.88, 30.85)" stroke-width="0.1">
              <g id="Fig:densplot_01.ticklabels.bottom.panel.1.1.1.2.scale" transform="scale(1, -1)">
                <text x="0" y="0" id="Fig:densplot_01.ticklabels.bottom.panel.1.1.1.2.text" text-anchor="middle" stroke="rgb(0,0,0)" opacity="1" fill="rgb(0,0,0)" stroke-opacity="1" fill-opacity="1" font-size="9.6" font-weight="normal" font-style="normal">
                  <tspan id="Fig:densplot_01.ticklabels.bottom.panel.1.1.1.2.tspan.1" dy="7.18" x="0">4</tspan>
                </text>
              </g>
            </g>
            <g id="Fig:densplot_01.ticklabels.bottom.panel.1.1.1.3" transform="translate(121.52, 30.85)" stroke-width="0.1">
              <g id="Fig:densplot_01.ticklabels.bottom.panel.1.1.1.3.scale" transform="scale(1, -1)">
                <text x="0" y="0" id="Fig:densplot_01.ticklabels.bottom.panel.1.1.1.3.text" text-anchor="middle" stroke="rgb(0,0,0)" opacity="1" fill="rgb(0,0,0)" stroke-opacity="1" fill-opacity="1" font-size="9.6" font-weight="normal" font-style="normal">
                  <tspan id="Fig:densplot_01.ticklabels.bottom.panel.1.1.1.3.tspan.1" dy="7.18" x="0">6</tspan>
                </text>
              </g>
            </g>
            <g id="Fig:densplot_01.ticklabels.bottom.panel.1.1.1.4" transform="translate(156.16, 30.85)" stroke-width="0.1">
              <g id="Fig:densplot_01.ticklabels.bottom.panel.1.1.1.4.scale" transform="scale(1, -1)">
                <text x="0" y="0" id="Fig:densplot_01.ticklabels.bottom.panel.1.1.1.4.text" text-anchor="middle" stroke="rgb(0,0,0)" opacity="1" fill="rgb(0,0,0)" stroke-opacity="1" fill-opacity="1" font-size="9.6" font-weight="normal" font-style="normal">
                  <tspan id="Fig:densplot_01.ticklabels.bottom.panel.1.1.1.4.tspan.1" dy="7.18" x="0">8</tspan>
                </text>
              </g>
            </g>
            <g id="Fig:densplot_01.ticklabels.bottom.panel.1.1.1.5" transform="translate(190.79, 30.85)" stroke-width="0.1">
              <g id="Fig:densplot_01.ticklabels.bottom.panel.1.1.1.5.scale" transform="scale(1, -1)">
                <text x="0" y="0" id="Fig:densplot_01.ticklabels.bottom.panel.1.1.1.5.text" text-anchor="middle" stroke="rgb(0,0,0)" opacity="1" fill="rgb(0,0,0)" stroke-opacity="1" fill-opacity="1" font-size="9.6" font-weight="normal" font-style="normal">
                  <tspan id="Fig:densplot_01.ticklabels.bottom.panel.1.1.1.5.tspan.1" dy="7.18" x="0">10</tspan>
                </text>
              </g>
            </g>
            <g id="Fig:densplot_01.ticklabels.bottom.panel.1.1.1.6" transform="translate(225.43, 30.85)" stroke-width="0.1">
              <g id="Fig:densplot_01.ticklabels.bottom.panel.1.1.1.6.scale" transform="scale(1, -1)">
                <text x="0" y="0" id="Fig:densplot_01.ticklabels.bottom.panel.1.1.1.6.text" text-anchor="middle" stroke="rgb(0,0,0)" opacity="1" fill="rgb(0,0,0)" stroke-opacity="1" fill-opacity="1" font-size="9.6" font-weight="normal" font-style="normal">
                  <tspan id="Fig:densplot_01.ticklabels.bottom.panel.1.1.1.6.tspan.1" dy="7.18" x="0">12</tspan>
                </text>
              </g>
            </g>
            <g id="Fig:densplot_01.ticklabels.bottom.panel.1.1.1.7" transform="translate(260.06, 30.85)" stroke-width="0.1">
              <g id="Fig:densplot_01.ticklabels.bottom.panel.1.1.1.7.scale" transform="scale(1, -1)">
                <text x="0" y="0" id="Fig:densplot_01.ticklabels.bottom.panel.1.1.1.7.text" text-anchor="middle" stroke="rgb(0,0,0)" opacity="1" fill="rgb(0,0,0)" stroke-opacity="1" fill-opacity="1" font-size="9.6" font-weight="normal" font-style="normal">
                  <tspan id="Fig:densplot_01.ticklabels.bottom.panel.1.1.1.7.tspan.1" dy="7.18" x="0">14</tspan>
                </text>
              </g>
            </g>
          </g>
        </g>
        <defs>
          <clipPath id="Fig:densplot_01.panel.1.1.vp.2.clipPath">
            <rect x="44.8" y="42.19" width="231.2" height="191.81" fill="none" stroke="none"/>
          </clipPath>
        </defs>
        <g id="Fig:densplot_01.panel.1.1.vp.2" clip-path="url(#Fig:densplot_01.panel.1.1.vp.2.clipPath)">
          <g id="Fig:densplot_01.xyplot.lines.group.1.panel.1.1.1">
            <polyline id="Fig:densplot_01.xyplot.lines.group.1.panel.1.1.1.1" points="59.12,53.99 59.51,54.01 59.91,54.03 60.3,54.05 60.7,54.08 61.1,54.13 61.49,54.18 61.89,54.24 62.29,54.32 62.68,54.41 63.08,54.53 63.48,54.67 63.87,54.84 64.27,55.03 64.67,55.26 65.06,55.53 65.46,55.85 65.85,56.21 66.25,56.63 66.65,57.1 67.04,57.64 67.44,58.23 67.84,58.9 68.23,59.64 68.63,60.46 69.03,61.35 69.42,62.31 69.82,63.34 70.22,64.44 70.61,65.62 71.01,66.87 71.4,68.18 71.8,69.54 72.2,70.96 72.59,72.41 72.99,73.91 73.39,75.43 73.78,76.97 74.18,78.52 74.58,80.07 74.97,81.62 75.37,83.16 75.77,84.67 76.16,86.16 76.56,87.62 76.95,89.03 77.35,90.41 77.75,91.75 78.14,93.04 78.54,94.28 78.94,95.47 79.33,96.62 79.73,97.73 80.13,98.8 80.52,99.83 80.92,100.83 81.32,101.79 81.71,102.74 82.11,103.66 82.5,104.57 82.9,105.47 83.3,106.37 83.69,107.26 84.09,108.15 84.49,109.05 84.88,109.95 85.28,110.85 85.68,111.77 86.07,112.69 86.47,113.62 86.87,114.55 87.26,115.49 87.66,116.43 88.05,117.37 88.45,118.3 88.85,119.22 89.24,120.14 89.64,121.04 90.04,121.92 90.43,122.79 90.83,123.63 91.23,124.44 91.62,125.23 92.02,126 92.42,126.74 92.81,127.45 93.21,128.13 93.6,128.79 94,129.42 94.4,130.03 94.79,130.63 95.19,131.21 95.59,131.78 95.98,132.35 96.38,132.91 96.78,133.47 97.17,134.04 97.57,134.62 97.97,135.21 98.36,135.82 98.76,136.45 99.15,137.1 99.55,137.78 99.95,138.48 100.34,139.21 100.74,139.96 101.14,140.74 101.53,141.55 101.93,142.38 102.33,143.23 102.72,144.11 103.12,145.01 103.52,145.92 103.91,146.85 104.31,147.8 104.7,148.76 105.1,149.73 105.5,150.71 105.89,151.7 106.29,152.7 106.69,153.7 107.08,154.7 107.48,155.71 107.88,156.73 108.27,157.74 108.67,158.76 109.07,159.78 109.46,160.8 109.86,161.83 110.25,162.85 110.65,163.87 111.05,164.89 111.44,165.92 111.84,166.94 112.24,167.96 112.63,168.99 113.03,170.01 113.43,171.04 113.82,172.06 114.22,173.09 114.62,174.12 115.01,175.16 115.41,176.2 115.8,177.24 116.2,178.29 116.6,179.34 116.99,180.4 117.39,181.47 117.79,182.55 118.18,183.63 118.58,184.72 118.98,185.82 119.37,186.93 119.77,188.05 120.17,189.18 120.56,190.31 120.96,191.45 121.35,192.6 121.75,193.75 122.15,194.91 122.54,196.07 122.94,197.23 123.34,198.39 123.73,199.54 124.13,200.69 124.53,201.83 124.92,202.96 125.32,204.08 125.71,205.18 126.11,206.26 126.51,207.32 126.9,208.35 127.3,209.36 127.7,210.33 128.09,211.26 128.49,212.16 128.89,213.03 129.28,213.84 129.68,214.61 130.08,215.33 130.47,216 130.87,216.62 131.26,217.18 131.66,217.69 132.06,218.14 132.45,218.52 132.85,218.84 133.25,219.1 133.64,219.3 134.04,219.44 134.44,219.53 134.83,219.54 135.23,219.49 135.63,219.38 136.02,219.22 136.42,219 136.81,218.73 137.21,218.41 137.61,218.03 138,217.6 138.4,217.12 138.8,216.6 139.19,216.03 139.59,215.41 139.99,214.75 140.38,214.04 140.78,213.28 141.18,212.47 141.57,211.62 141.97,210.72 142.36,209.77 142.76,208.76 143.16,207.71 143.55,206.59 143.95,205.43 144.35,204.22 144.74,202.95 145.14,201.63 145.54,200.26 145.93,198.84 146.33,197.38 146.73,195.88 147.12,194.34 147.52,192.76 147.91,191.15 148.31,189.52 148.71,187.88 149.1,186.22 149.5,184.55 149.9,182.89 150.29,181.23 150.69,179.58 151.09,177.95 151.48,176.33 151.88,174.75 152.28,173.19 152.67,171.67 153.07,170.2 153.46,168.76 153.86,167.37 154.26,166.03 154.65,164.73 155.05,163.48 155.45,162.28 155.84,161.15 156.24,160.06 156.64,159.02 157.03,158.03 157.43,157.09 157.83,156.19 158.22,155.35 158.62,154.56 159.01,153.8 159.41,153.09 159.81,152.42 160.2,151.78 160.6,151.19 161,150.63 161.39,150.11 161.79,149.62 162.19,149.16 162.58,148.73 162.98,148.32 163.38,147.96 163.77,147.62 164.17,147.31 164.56,147.03 164.96,146.77 165.36,146.54 165.75,146.35 166.15,146.18 166.55,146.03 166.94,145.92 167.34,145.82 167.74,145.75 168.13,145.71 168.53,145.7 168.93,145.7 169.32,145.73 169.72,145.78 170.11,145.84 170.51,145.93 170.91,146.03 171.3,146.15 171.7,146.28 172.1,146.43 172.49,146.58 172.89,146.75 173.29,146.92 173.68,147.1 174.08,147.28 174.48,147.46 174.87,147.64 175.27,147.82 175.66,147.99 176.06,148.16 176.46,148.32 176.85,148.46 177.25,148.59 177.65,148.71 178.04,148.81 178.44,148.89 178.84,148.95 179.23,148.99 179.63,149.01 180.03,149.02 180.42,149.01 180.82,148.98 181.21,148.94 181.61,148.89 182.01,148.84 182.4,148.77 182.8,148.71 183.2,148.64 183.59,148.58 183.99,148.53 184.39,148.48 184.78,148.45 185.18,148.42 185.58,148.41 185.97,148.42 186.37,148.44 186.76,148.48 187.16,148.53 187.56,148.59 187.95,148.66 188.35,148.75 188.75,148.84 189.14,148.94 189.54,149.03 189.94,149.13 190.33,149.22 190.73,149.31 191.13,149.39 191.52,149.46 191.92,149.51 192.31,149.55 192.71,149.57 193.11,149.57 193.5,149.55 193.9,149.52 194.3,149.45 194.69,149.37 195.09,149.26 195.49,149.14 195.88,148.99 196.28,148.83 196.68,148.65 197.07,148.44 197.47,148.23 197.86,148 198.26,147.75 198.66,147.49 199.05,147.22 199.45,146.94 199.85,146.64 200.24,146.33 200.64,146.01 201.04,145.67 201.43,145.33 201.83,144.96 202.23,144.58 202.62,144.19 203.02,143.78 203.41,143.35 203.81,142.9 204.21,142.43 204.6,141.94 205,141.43 205.4,140.9 205.79,140.36 206.19,139.79 206.59,139.21 206.98,138.61 207.38,138 207.78,137.37 208.17,136.73 208.57,136.09 208.96,135.43 209.36,134.77 209.76,134.1 210.15,133.43 210.55,132.76 210.95,132.09 211.34,131.42 211.74,130.75 212.14,130.08 212.53,129.41 212.93,128.75 213.33,128.08 213.72,127.42 214.12,126.76 214.51,126.1 214.91,125.44 215.31,124.77 215.7,124.1 216.1,123.43 216.5,122.76 216.89,122.07 217.29,121.38 217.69,120.68 218.08,119.97 218.48,119.25 218.88,118.51 219.27,117.77 219.67,117.01 220.06,116.23 220.46,115.45 220.86,114.65 221.25,113.83 221.65,113.01 222.05,112.17 222.44,111.33 222.84,110.47 223.24,109.61 223.63,108.74 224.03,107.87 224.43,107 224.82,106.12 225.22,105.25 225.61,104.39 226.01,103.53 226.41,102.69 226.8,101.85 227.2,101.03 227.6,100.23 227.99,99.44 228.39,98.68 228.79,97.93 229.18,97.2 229.58,96.5 229.98,95.82 230.37,95.16 230.77,94.52 231.16,93.9 231.56,93.31 231.96,92.72 232.35,92.16 232.75,91.61 233.15,91.08 233.54,90.56 233.94,90.04 234.34,89.53 234.73,89.02 235.13,88.52 235.53,88.01 235.92,87.5 236.32,86.98 236.71,86.45 237.11,85.92 237.51,85.36 237.9,84.8 238.3,84.21 238.7,83.61 239.09,82.99 239.49,82.35 239.89,81.68 240.28,81 240.68,80.29 241.08,79.55 241.47,78.8 241.87,78.02 242.26,77.23 242.66,76.41 243.06,75.57 243.45,74.72 243.85,73.84 244.25,72.96 244.64,72.06 245.04,71.16 245.44,70.25 245.83,69.34 246.23,68.43 246.63,67.52 247.02,66.63 247.42,65.75 247.81,64.88 248.21,64.04 248.61,63.22 249,62.43 249.4,61.67 249.8,60.95 250.19,60.26 250.59,59.61 250.99,59.01 251.38,58.44 251.78,57.92 252.18,57.44 252.57,57 252.97,56.59 253.36,56.23 253.76,55.91 254.16,55.63 254.55,55.37 254.95,55.15 255.35,54.95 255.74,54.78 256.14,54.64 256.54,54.52 256.93,54.41 257.33,54.33 257.73,54.25 258.12,54.19 258.52,54.14 258.91,54.1 259.31,54.07 259.71,54.04 260.1,54.02 260.5,54 260.9,53.99 261.29,53.98 261.69,53.97" stroke-dasharray="none" stroke="rgb(31,120,180)" stroke-width="0.75" opacity="1" stroke-opacity="1" fill="none"/>
          </g>
          <g id="Fig:densplot_01.xyplot.lines.group.2.panel.1.1.1">
            <polyline id="Fig:densplot_01.xyplot.lines.group.2.panel.1.1.1.1" points="59.25,53.99 59.64,54 60.04,54.02 60.43,54.05 60.83,54.08 61.23,54.12 61.62,54.16 62.02,54.22 62.41,54.3 62.81,54.4 63.2,54.51 63.6,54.64 64,54.81 64.39,55 64.79,55.23 65.18,55.5 65.58,55.82 65.98,56.18 66.37,56.6 66.77,57.07 67.16,57.6 67.56,58.21 67.95,58.89 68.35,59.64 68.75,60.46 69.14,61.36 69.54,62.32 69.93,63.37 70.33,64.5 70.73,65.7 71.12,66.95 71.52,68.27 71.91,69.64 72.31,71.06 72.7,72.52 73.1,74.02 73.5,75.54 73.89,77.06 74.29,78.6 74.68,80.13 75.08,81.66 75.48,83.16 75.87,84.64 76.27,86.09 76.66,87.51 77.06,88.89 77.45,90.23 77.85,91.52 78.25,92.78 78.64,93.99 79.04,95.16 79.43,96.3 79.83,97.4 80.23,98.47 80.62,99.51 81.02,100.53 81.41,101.53 81.81,102.51 82.2,103.47 82.6,104.42 83,105.37 83.39,106.3 83.79,107.23 84.18,108.16 84.58,109.07 84.98,109.99 85.37,110.89 85.77,111.79 86.16,112.67 86.56,113.54 86.95,114.4 87.35,115.25 87.75,116.07 88.14,116.88 88.54,117.66 88.93,118.42 89.33,119.16 89.73,119.88 90.12,120.58 90.52,121.26 90.91,121.91 91.31,122.55 91.7,123.17 92.1,123.78 92.5,124.38 92.89,124.97 93.29,125.56 93.68,126.15 94.08,126.73 94.48,127.32 94.87,127.91 95.27,128.51 95.66,129.12 96.06,129.74 96.45,130.37 96.85,131.01 97.25,131.66 97.64,132.32 98.04,132.99 98.43,133.67 98.83,134.36 99.23,135.06 99.62,135.76 100.02,136.47 100.41,137.19 100.81,137.92 101.2,138.65 101.6,139.39 102,140.14 102.39,140.89 102.79,141.66 103.18,142.43 103.58,143.21 103.98,144.01 104.37,144.82 104.77,145.65 105.16,146.49 105.56,147.34 105.96,148.21 106.35,149.09 106.75,149.99 107.14,150.91 107.54,151.83 107.93,152.77 108.33,153.72 108.73,154.68 109.12,155.65 109.52,156.63 109.91,157.6 110.31,158.58 110.71,159.56 111.1,160.54 111.5,161.52 111.89,162.49 112.29,163.45 112.68,164.41 113.08,165.36 113.48,166.31 113.87,167.24 114.27,168.18 114.66,169.11 115.06,170.04 115.46,170.97 115.85,171.91 116.25,172.85 116.64,173.8 117.04,174.77 117.43,175.75 117.83,176.75 118.23,177.76 118.62,178.8 119.02,179.86 119.41,180.94 119.81,182.05 120.21,183.18 120.6,184.33 121,185.5 121.39,186.69 121.79,187.9 122.18,189.12 122.58,190.35 122.98,191.58 123.37,192.82 123.77,194.05 124.16,195.28 124.56,196.49 124.96,197.69 125.35,198.87 125.75,200.04 126.14,201.18 126.54,202.29 126.93,203.37 127.33,204.42 127.73,205.44 128.12,206.43 128.52,207.39 128.91,208.31 129.31,209.21 129.71,210.06 130.1,210.88 130.5,211.68 130.89,212.44 131.29,213.17 131.68,213.86 132.08,214.52 132.48,215.15 132.87,215.73 133.27,216.28 133.66,216.79 134.06,217.26 134.46,217.69 134.85,218.07 135.25,218.4 135.64,218.68 136.04,218.92 136.43,219.1 136.83,219.24 137.23,219.31 137.62,219.33 138.02,219.3 138.41,219.22 138.81,219.08 139.21,218.89 139.6,218.66 140,218.36 140.39,218 140.79,217.6 141.18,217.14 141.58,216.63 141.98,216.07 142.37,215.45 142.77,214.77 143.16,214.03 143.56,213.23 143.96,212.37 144.35,211.46 144.75,210.48 145.14,209.44 145.54,208.33 145.93,207.16 146.33,205.93 146.73,204.65 147.12,203.32 147.52,201.94 147.91,200.5 148.31,199.02 148.71,197.51 149.1,195.96 149.5,194.39 149.89,192.8 150.29,191.2 150.68,189.58 151.08,187.97 151.48,186.36 151.87,184.76 152.27,183.18 152.66,181.61 153.06,180.07 153.46,178.56 153.85,177.08 154.25,175.64 154.64,174.23 155.04,172.86 155.43,171.54 155.83,170.26 156.23,169.03 156.62,167.84 157.02,166.69 157.41,165.6 157.81,164.54 158.21,163.55 158.6,162.6 159,161.69 159.39,160.83 159.79,160.01 160.18,159.23 160.58,158.51 160.98,157.83 161.37,157.19 161.77,156.59 162.16,156.03 162.56,155.5 162.96,155.02 163.35,154.57 163.75,154.17 164.14,153.79 164.54,153.45 164.93,153.13 165.33,152.85 165.73,152.59 166.12,152.36 166.52,152.15 166.91,151.97 167.31,151.79 167.71,151.64 168.1,151.49 168.5,151.36 168.89,151.23 169.29,151.11 169.68,150.99 170.08,150.87 170.48,150.74 170.87,150.61 171.27,150.48 171.66,150.34 172.06,150.2 172.46,150.05 172.85,149.9 173.25,149.75 173.64,149.59 174.04,149.44 174.44,149.29 174.83,149.14 175.23,149 175.62,148.87 176.02,148.75 176.41,148.65 176.81,148.55 177.21,148.46 177.6,148.39 178,148.33 178.39,148.27 178.79,148.23 179.19,148.19 179.58,148.16 179.98,148.13 180.37,148.11 180.77,148.08 181.16,148.06 181.56,148.03 181.96,148 182.35,147.97 182.75,147.94 183.14,147.91 183.54,147.88 183.94,147.85 184.33,147.84 184.73,147.83 185.12,147.83 185.52,147.85 185.91,147.88 186.31,147.93 186.71,147.99 187.1,148.08 187.5,148.18 187.89,148.3 188.29,148.44 188.69,148.59 189.08,148.75 189.48,148.91 189.87,149.07 190.27,149.24 190.66,149.39 191.06,149.53 191.46,149.66 191.85,149.76 192.25,149.83 192.64,149.87 193.04,149.87 193.44,149.85 193.83,149.78 194.23,149.67 194.62,149.52 195.02,149.34 195.41,149.11 195.81,148.85 196.21,148.56 196.6,148.24 197,147.89 197.39,147.52 197.79,147.12 198.19,146.71 198.58,146.29 198.98,145.86 199.37,145.43 199.77,144.98 200.16,144.54 200.56,144.09 200.96,143.64 201.35,143.18 201.75,142.73 202.14,142.28 202.54,141.82 202.94,141.35 203.33,140.88 203.73,140.41 204.12,139.92 204.52,139.43 204.91,138.92 205.31,138.41 205.71,137.88 206.1,137.34 206.5,136.79 206.89,136.23 207.29,135.65 207.69,135.06 208.08,134.47 208.48,133.86 208.87,133.25 209.27,132.63 209.66,132.01 210.06,131.38 210.46,130.75 210.85,130.11 211.25,129.48 211.64,128.85 212.04,128.22 212.44,127.59 212.83,126.96 213.23,126.34 213.62,125.72 214.02,125.1 214.41,124.48 214.81,123.86 215.21,123.25 215.6,122.63 216,122.01 216.39,121.39 216.79,120.76 217.19,120.13 217.58,119.49 217.98,118.83 218.37,118.16 218.77,117.48 219.16,116.79 219.56,116.08 219.96,115.36 220.35,114.61 220.75,113.85 221.14,113.08 221.54,112.28 221.94,111.48 222.33,110.66 222.73,109.82 223.12,108.98 223.52,108.13 223.91,107.28 224.31,106.42 224.71,105.56 225.1,104.7 225.5,103.85 225.89,103.01 226.29,102.18 226.69,101.37 227.08,100.56 227.48,99.77 227.87,99 228.27,98.25 228.66,97.52 229.06,96.81 229.46,96.11 229.85,95.44 230.25,94.78 230.64,94.14 231.04,93.52 231.44,92.91 231.83,92.32 232.23,91.74 232.62,91.17 233.02,90.61 233.41,90.07 233.81,89.53 234.21,88.99 234.6,88.47 235,87.94 235.39,87.42 235.79,86.9 236.19,86.38 236.58,85.86 236.98,85.34 237.37,84.81 237.77,84.28 238.16,83.75 238.56,83.2 238.96,82.64 239.35,82.07 239.75,81.49 240.14,80.89 240.54,80.27 240.94,79.63 241.33,78.97 241.73,78.29 242.12,77.58 242.52,76.85 242.92,76.1 243.31,75.32 243.71,74.51 244.1,73.68 244.5,72.83 244.89,71.97 245.29,71.09 245.69,70.19 246.08,69.29 246.48,68.38 246.87,67.47 247.27,66.57 247.67,65.68 248.06,64.8 248.46,63.94 248.85,63.11 249.25,62.31 249.64,61.54 250.04,60.8 250.44,60.1 250.83,59.45 251.23,58.83 251.62,58.27 252.02,57.75 252.42,57.27 252.81,56.83 253.21,56.44 253.6,56.08 254,55.77 254.39,55.5 254.79,55.25 255.19,55.04 255.58,54.86 255.98,54.7 256.37,54.56 256.77,54.45 257.17,54.36 257.56,54.28 257.96,54.21 258.35,54.15 258.75,54.11 259.14,54.07 259.54,54.04 259.94,54.02 260.33,54 260.73,53.99 261.12,53.98 261.52,53.97" stroke-dasharray="none" stroke="rgb(31,120,180)" stroke-width="0.75" opacity="1" stroke-opacity="1" fill="none"/>
          </g>
          <g id="Fig:densplot_01.xyplot.lines.group.3.panel.1.1.1">
            <polyline id="Fig:densplot_01.xyplot.lines.group.3.panel.1.1.1.1" points="59.27,53.98 59.66,53.99 60.06,54.01 60.45,54.03 60.85,54.06 61.25,54.09 61.64,54.13 62.04,54.19 62.43,54.25 62.83,54.34 63.23,54.43 63.62,54.55 64.02,54.69 64.41,54.86 64.81,55.06 65.2,55.3 65.6,55.57 66,55.89 66.39,56.25 66.79,56.67 67.18,57.13 67.58,57.67 67.98,58.26 68.37,58.92 68.77,59.64 69.16,60.43 69.56,61.28 69.96,62.21 70.35,63.2 70.75,64.27 71.14,65.38 71.54,66.56 71.93,67.79 72.33,69.06 72.73,70.38 73.12,71.74 73.52,73.11 73.91,74.51 74.31,75.92 74.71,77.33 75.1,78.75 75.5,80.15 75.89,81.53 76.29,82.9 76.69,84.24 77.08,85.55 77.48,86.83 77.87,88.07 78.27,89.27 78.67,90.44 79.06,91.57 79.46,92.67 79.85,93.73 80.25,94.75 80.64,95.75 81.04,96.71 81.44,97.66 81.83,98.58 82.23,99.48 82.62,100.37 83.02,101.24 83.42,102.11 83.81,102.96 84.21,103.82 84.6,104.67 85,105.53 85.4,106.38 85.79,107.24 86.19,108.11 86.58,108.97 86.98,109.85 87.37,110.72 87.77,111.61 88.17,112.49 88.56,113.38 88.96,114.28 89.35,115.17 89.75,116.07 90.15,116.97 90.54,117.86 90.94,118.76 91.33,119.65 91.73,120.54 92.13,121.43 92.52,122.32 92.92,123.2 93.31,124.08 93.71,124.96 94.1,125.83 94.5,126.7 94.9,127.56 95.29,128.42 95.69,129.27 96.08,130.12 96.48,130.96 96.88,131.79 97.27,132.61 97.67,133.43 98.06,134.24 98.46,135.05 98.86,135.84 99.25,136.63 99.65,137.41 100.04,138.18 100.44,138.95 100.83,139.71 101.23,140.47 101.63,141.23 102.02,141.99 102.42,142.75 102.81,143.51 103.21,144.28 103.61,145.06 104,145.85 104.4,146.65 104.79,147.46 105.19,148.29 105.59,149.15 105.98,150.02 106.38,150.92 106.77,151.84 107.17,152.79 107.56,153.77 107.96,154.78 108.36,155.81 108.75,156.88 109.15,157.97 109.54,159.1 109.94,160.25 110.34,161.42 110.73,162.62 111.13,163.83 111.52,165.06 111.92,166.31 112.32,167.56 112.71,168.82 113.11,170.08 113.5,171.34 113.9,172.6 114.29,173.85 114.69,175.09 115.09,176.31 115.48,177.53 115.88,178.73 116.27,179.92 116.67,181.09 117.07,182.26 117.46,183.41 117.86,184.55 118.25,185.69 118.65,186.82 119.05,187.94 119.44,189.06 119.84,190.18 120.23,191.29 120.63,192.41 121.03,193.52 121.42,194.63 121.82,195.74 122.21,196.85 122.61,197.94 123,199.03 123.4,200.11 123.8,201.17 124.19,202.22 124.59,203.24 124.98,204.25 125.38,205.23 125.78,206.19 126.17,207.13 126.57,208.03 126.96,208.91 127.36,209.76 127.76,210.58 128.15,211.37 128.55,212.13 128.94,212.87 129.34,213.59 129.73,214.27 130.13,214.92 130.53,215.55 130.92,216.16 131.32,216.74 131.71,217.3 132.11,217.83 132.51,218.33 132.9,218.8 133.3,219.24 133.69,219.64 134.09,220.02 134.49,220.35 134.88,220.64 135.28,220.88 135.67,221.07 136.07,221.22 136.46,221.31 136.86,221.34 137.26,221.3 137.65,221.19 138.05,221.01 138.44,220.76 138.84,220.44 139.24,220.04 139.63,219.56 140.03,218.99 140.42,218.33 140.82,217.6 141.22,216.78 141.61,215.89 142.01,214.92 142.4,213.88 142.8,212.75 143.19,211.55 143.59,210.29 143.99,208.97 144.38,207.6 144.78,206.17 145.17,204.69 145.57,203.16 145.97,201.59 146.36,199.99 146.76,198.37 147.15,196.72 147.55,195.04 147.95,193.35 148.34,191.65 148.74,189.95 149.13,188.24 149.53,186.54 149.92,184.85 150.32,183.17 150.72,181.51 151.11,179.87 151.51,178.26 151.9,176.67 152.3,175.13 152.7,173.62 153.09,172.16 153.49,170.74 153.88,169.38 154.28,168.07 154.68,166.8 155.07,165.6 155.47,164.45 155.86,163.37 156.26,162.34 156.65,161.38 157.05,160.46 157.45,159.61 157.84,158.81 158.24,158.07 158.63,157.39 159.03,156.75 159.43,156.17 159.82,155.63 160.22,155.13 160.61,154.68 161.01,154.27 161.41,153.89 161.8,153.55 162.2,153.24 162.59,152.95 162.99,152.69 163.38,152.45 163.78,152.22 164.18,152.01 164.57,151.81 164.97,151.62 165.36,151.43 165.76,151.25 166.16,151.06 166.55,150.88 166.95,150.69 167.34,150.49 167.74,150.29 168.14,150.09 168.53,149.88 168.93,149.67 169.32,149.45 169.72,149.23 170.12,149 170.51,148.78 170.91,148.56 171.3,148.34 171.7,148.12 172.09,147.91 172.49,147.71 172.89,147.52 173.28,147.33 173.68,147.16 174.07,146.99 174.47,146.85 174.87,146.71 175.26,146.59 175.66,146.49 176.05,146.4 176.45,146.33 176.85,146.28 177.24,146.24 177.64,146.23 178.03,146.23 178.43,146.25 178.82,146.3 179.22,146.36 179.62,146.44 180.01,146.54 180.41,146.66 180.8,146.79 181.2,146.93 181.6,147.09 181.99,147.26 182.39,147.44 182.78,147.62 183.18,147.81 183.58,148 183.97,148.18 184.37,148.36 184.76,148.54 185.16,148.7 185.55,148.86 185.95,149.01 186.35,149.14 186.74,149.26 187.14,149.37 187.53,149.47 187.93,149.55 188.33,149.63 188.72,149.7 189.12,149.75 189.51,149.79 189.91,149.83 190.31,149.86 190.7,149.88 191.1,149.89 191.49,149.89 191.89,149.88 192.28,149.87 192.68,149.83 193.08,149.79 193.47,149.73 193.87,149.66 194.26,149.57 194.66,149.46 195.06,149.34 195.45,149.19 195.85,149.03 196.24,148.85 196.64,148.65 197.04,148.43 197.43,148.2 197.83,147.94 198.22,147.68 198.62,147.4 199.01,147.11 199.41,146.8 199.81,146.49 200.2,146.16 200.6,145.83 200.99,145.48 201.39,145.12 201.79,144.76 202.18,144.37 202.58,143.98 202.97,143.57 203.37,143.15 203.77,142.71 204.16,142.25 204.56,141.78 204.95,141.28 205.35,140.76 205.74,140.22 206.14,139.67 206.54,139.09 206.93,138.5 207.33,137.89 207.72,137.26 208.12,136.61 208.52,135.96 208.91,135.29 209.31,134.61 209.7,133.93 210.1,133.24 210.5,132.55 210.89,131.86 211.29,131.17 211.68,130.48 212.08,129.8 212.47,129.13 212.87,128.46 213.27,127.8 213.66,127.15 214.06,126.51 214.45,125.87 214.85,125.24 215.25,124.61 215.64,123.99 216.04,123.37 216.43,122.74 216.83,122.12 217.23,121.49 217.62,120.85 218.02,120.2 218.41,119.54 218.81,118.86 219.21,118.17 219.6,117.47 220,116.75 220.39,116.01 220.79,115.25 221.18,114.47 221.58,113.68 221.98,112.88 222.37,112.06 222.77,111.23 223.16,110.4 223.56,109.55 223.96,108.71 224.35,107.86 224.75,107.01 225.14,106.17 225.54,105.33 225.94,104.51 226.33,103.69 226.73,102.88 227.12,102.09 227.52,101.31 227.91,100.54 228.31,99.79 228.71,99.05 229.1,98.33 229.5,97.62 229.89,96.93 230.29,96.25 230.69,95.58 231.08,94.92 231.48,94.27 231.87,93.63 232.27,93 232.67,92.37 233.06,91.76 233.46,91.14 233.85,90.53 234.25,89.93 234.64,89.32 235.04,88.72 235.44,88.12 235.83,87.53 236.23,86.93 236.62,86.33 237.02,85.73 237.42,85.13 237.81,84.53 238.21,83.93 238.6,83.31 239,82.69 239.4,82.07 239.79,81.43 240.19,80.78 240.58,80.11 240.98,79.43 241.37,78.74 241.77,78.02 242.17,77.28 242.56,76.53 242.96,75.75 243.35,74.96 243.75,74.14 244.15,73.3 244.54,72.45 244.94,71.58 245.33,70.7 245.73,69.81 246.13,68.91 246.52,68.01 246.92,67.12 247.31,66.23 247.71,65.35 248.1,64.49 248.5,63.65 248.9,62.84 249.29,62.05 249.69,61.3 250.08,60.59 250.48,59.91 250.88,59.27 251.27,58.67 251.67,58.13 252.06,57.62 252.46,57.16 252.86,56.73 253.25,56.35 253.65,56.01 254.04,55.7 254.44,55.44 254.83,55.2 255.23,55 255.63,54.82 256.02,54.67 256.42,54.54 256.81,54.43 257.21,54.34 257.61,54.26 258,54.2 258.4,54.14 258.79,54.1 259.19,54.07 259.59,54.04 259.98,54.02 260.38,54 260.77,53.99 261.17,53.97 261.57,53.97" stroke-dasharray="none" stroke="rgb(31,120,180)" stroke-width="0.75" opacity="1" stroke-opacity="1" fill="none"/>
          </g>
          <g id="Fig:densplot_01.xyplot.lines.group.4.panel.1.1.1">
            <polyline id="Fig:densplot_01.xyplot.lines.group.4.panel.1.1.1.1" points="59.13,53.99 59.52,54.01 59.92,54.03 60.32,54.06 60.71,54.09 61.11,54.14 61.5,54.19 61.9,54.26 62.3,54.34 62.69,54.44 63.09,54.56 63.49,54.71 63.88,54.89 64.28,55.1 64.68,55.34 65.07,55.63 65.47,55.96 65.86,56.35 66.26,56.8 66.66,57.3 67.05,57.87 67.45,58.5 67.85,59.21 68.24,60.01 68.64,60.87 69.03,61.82 69.43,62.84 69.83,63.94 70.22,65.11 70.62,66.37 71.02,67.7 71.41,69.09 71.81,70.53 72.21,72.03 72.6,73.57 73,75.15 73.39,76.76 73.79,78.39 74.19,80.03 74.58,81.67 74.98,83.31 75.38,84.93 75.77,86.54 76.17,88.11 76.57,89.66 76.96,91.18 77.36,92.66 77.75,94.1 78.15,95.5 78.55,96.85 78.94,98.17 79.34,99.45 79.74,100.69 80.13,101.9 80.53,103.07 80.92,104.21 81.32,105.31 81.72,106.4 82.11,107.45 82.51,108.49 82.91,109.5 83.3,110.48 83.7,111.44 84.1,112.38 84.49,113.3 84.89,114.19 85.28,115.07 85.68,115.91 86.08,116.73 86.47,117.52 86.87,118.28 87.27,119.02 87.66,119.73 88.06,120.41 88.45,121.07 88.85,121.69 89.25,122.3 89.64,122.88 90.04,123.44 90.44,123.98 90.83,124.51 91.23,125.02 91.63,125.52 92.02,126.02 92.42,126.51 92.81,126.99 93.21,127.48 93.61,127.97 94,128.47 94.4,128.98 94.8,129.49 95.19,130.02 95.59,130.56 95.99,131.12 96.38,131.69 96.78,132.28 97.17,132.89 97.57,133.51 97.97,134.16 98.36,134.82 98.76,135.5 99.16,136.2 99.55,136.92 99.95,137.66 100.34,138.42 100.74,139.19 101.14,139.97 101.53,140.77 101.93,141.58 102.33,142.4 102.72,143.23 103.12,144.06 103.52,144.91 103.91,145.76 104.31,146.61 104.7,147.48 105.1,148.34 105.5,149.22 105.89,150.1 106.29,150.98 106.69,151.87 107.08,152.77 107.48,153.68 107.87,154.6 108.27,155.52 108.67,156.45 109.06,157.39 109.46,158.34 109.86,159.29 110.25,160.26 110.65,161.22 111.05,162.19 111.44,163.17 111.84,164.14 112.23,165.12 112.63,166.1 113.03,167.07 113.42,168.04 113.82,169.01 114.22,169.98 114.61,170.94 115.01,171.9 115.41,172.86 115.8,173.82 116.2,174.78 116.59,175.74 116.99,176.7 117.39,177.67 117.78,178.65 118.18,179.63 118.58,180.62 118.97,181.61 119.37,182.62 119.76,183.64 120.16,184.67 120.56,185.71 120.95,186.75 121.35,187.8 121.75,188.86 122.14,189.92 122.54,190.98 122.94,192.04 123.33,193.1 123.73,194.15 124.12,195.19 124.52,196.22 124.92,197.24 125.31,198.24 125.71,199.23 126.11,200.2 126.5,201.15 126.9,202.07 127.29,202.98 127.69,203.85 128.09,204.71 128.48,205.54 128.88,206.35 129.28,207.13 129.67,207.88 130.07,208.6 130.47,209.3 130.86,209.96 131.26,210.6 131.65,211.21 132.05,211.79 132.45,212.34 132.84,212.85 133.24,213.33 133.64,213.77 134.03,214.18 134.43,214.55 134.82,214.88 135.22,215.17 135.62,215.42 136.01,215.63 136.41,215.8 136.81,215.93 137.2,216.01 137.6,216.04 138,216.02 138.39,215.96 138.79,215.84 139.18,215.67 139.58,215.45 139.98,215.18 140.37,214.83 140.77,214.44 141.17,213.98 141.56,213.45 141.96,212.87 142.36,212.22 142.75,211.49 143.15,210.7 143.54,209.83 143.94,208.9 144.34,207.9 144.73,206.84 145.13,205.71 145.53,204.51 145.92,203.25 146.32,201.94 146.71,200.58 147.11,199.17 147.51,197.72 147.9,196.23 148.3,194.72 148.7,193.18 149.09,191.62 149.49,190.05 149.89,188.47 150.28,186.9 150.68,185.33 151.07,183.77 151.47,182.22 151.87,180.7 152.26,179.19 152.66,177.71 153.06,176.26 153.45,174.85 153.85,173.46 154.24,172.11 154.64,170.8 155.04,169.52 155.43,168.29 155.83,167.1 156.23,165.96 156.62,164.86 157.02,163.8 157.42,162.78 157.81,161.82 158.21,160.9 158.6,160.04 159,159.22 159.4,158.45 159.79,157.72 160.19,157.03 160.59,156.4 160.98,155.8 161.38,155.25 161.78,154.73 162.17,154.24 162.57,153.78 162.96,153.35 163.36,152.95 163.76,152.58 164.15,152.22 164.55,151.87 164.95,151.54 165.34,151.23 165.74,150.92 166.13,150.63 166.53,150.34 166.93,150.07 167.32,149.8 167.72,149.54 168.12,149.29 168.51,149.04 168.91,148.81 169.31,148.59 169.7,148.38 170.1,148.19 170.49,148 170.89,147.83 171.29,147.67 171.68,147.53 172.08,147.4 172.48,147.29 172.87,147.19 173.27,147.11 173.66,147.04 174.06,146.99 174.46,146.95 174.85,146.92 175.25,146.9 175.65,146.89 176.04,146.89 176.44,146.89 176.84,146.9 177.23,146.92 177.63,146.94 178.02,146.96 178.42,146.97 178.82,146.99 179.21,147.01 179.61,147.02 180.01,147.03 180.4,147.05 180.8,147.06 181.19,147.07 181.59,147.08 181.99,147.1 182.38,147.12 182.78,147.15 183.18,147.2 183.57,147.25 183.97,147.32 184.37,147.42 184.76,147.53 185.16,147.66 185.55,147.81 185.95,147.98 186.35,148.17 186.74,148.39 187.14,148.62 187.54,148.86 187.93,149.12 188.33,149.38 188.73,149.64 189.12,149.9 189.52,150.15 189.91,150.39 190.31,150.61 190.71,150.81 191.1,150.99 191.5,151.13 191.9,151.24 192.29,151.32 192.69,151.36 193.08,151.36 193.48,151.32 193.88,151.25 194.27,151.13 194.67,150.98 195.07,150.79 195.46,150.57 195.86,150.32 196.26,150.05 196.65,149.74 197.05,149.41 197.44,149.06 197.84,148.7 198.24,148.31 198.63,147.92 199.03,147.51 199.43,147.08 199.82,146.65 200.22,146.21 200.61,145.77 201.01,145.31 201.41,144.85 201.8,144.39 202.2,143.91 202.6,143.44 202.99,142.95 203.39,142.46 203.79,141.97 204.18,141.46 204.58,140.95 204.97,140.43 205.37,139.9 205.77,139.36 206.16,138.8 206.56,138.24 206.96,137.66 207.35,137.07 207.75,136.46 208.15,135.84 208.54,135.21 208.94,134.57 209.33,133.92 209.73,133.25 210.13,132.57 210.52,131.89 210.92,131.2 211.32,130.5 211.71,129.8 212.11,129.1 212.5,128.39 212.9,127.69 213.3,126.98 213.69,126.27 214.09,125.56 214.49,124.86 214.88,124.15 215.28,123.44 215.68,122.73 216.07,122.01 216.47,121.29 216.86,120.57 217.26,119.84 217.66,119.09 218.05,118.34 218.45,117.58 218.85,116.81 219.24,116.02 219.64,115.22 220.03,114.41 220.43,113.58 220.83,112.75 221.22,111.91 221.62,111.05 222.02,110.19 222.41,109.33 222.81,108.47 223.21,107.6 223.6,106.74 224,105.88 224.39,105.04 224.79,104.2 225.19,103.37 225.58,102.56 225.98,101.77 226.38,100.99 226.77,100.24 227.17,99.5 227.57,98.78 227.96,98.09 228.36,97.42 228.75,96.76 229.15,96.13 229.55,95.51 229.94,94.92 230.34,94.34 230.74,93.78 231.13,93.23 231.53,92.69 231.92,92.16 232.32,91.65 232.72,91.14 233.11,90.63 233.51,90.13 233.91,89.64 234.3,89.14 234.7,88.65 235.1,88.15 235.49,87.65 235.89,87.15 236.28,86.64 236.68,86.12 237.08,85.6 237.47,85.07 237.87,84.53 238.27,83.97 238.66,83.4 239.06,82.81 239.45,82.21 239.85,81.59 240.25,80.95 240.64,80.28 241.04,79.6 241.44,78.89 241.83,78.16 242.23,77.41 242.63,76.63 243.02,75.84 243.42,75.01 243.81,74.17 244.21,73.31 244.61,72.43 245,71.54 245.4,70.64 245.8,69.73 246.19,68.82 246.59,67.91 246.98,67 247.38,66.11 247.78,65.22 248.17,64.36 248.57,63.52 248.97,62.71 249.36,61.94 249.76,61.19 250.16,60.48 250.55,59.81 250.95,59.18 251.34,58.6 251.74,58.06 252.14,57.56 252.53,57.1 252.93,56.68 253.33,56.31 253.72,55.98 254.12,55.68 254.52,55.42 254.91,55.19 255.31,54.99 255.7,54.81 256.1,54.66 256.5,54.54 256.89,54.43 257.29,54.34 257.69,54.26 258.08,54.2 258.48,54.15 258.87,54.1 259.27,54.07 259.67,54.04 260.06,54.02 260.46,54 260.86,53.99 261.25,53.98 261.65,53.97" stroke-dasharray="none" stroke="rgb(31,120,180)" stroke-width="0.75" opacity="1" stroke-opacity="1" fill="none"/>
          </g>
          <g id="Fig:densplot_01.xyplot.lines.group.5.panel.1.1.1">
            <polyline id="Fig:densplot_01.xyplot.lines.group.5.panel.1.1.1.1" points="59.21,53.99 59.61,54.01 60.01,54.03 60.4,54.06 60.8,54.09 61.19,54.14 61.59,54.19 61.99,54.26 62.38,54.34 62.78,54.44 63.17,54.57 63.57,54.72 63.97,54.9 64.36,55.11 64.76,55.35 65.16,55.65 65.55,56 65.95,56.39 66.34,56.85 66.74,57.36 67.14,57.93 67.53,58.59 67.93,59.32 68.32,60.13 68.72,61.02 69.12,61.98 69.51,63.02 69.91,64.14 70.3,65.35 70.7,66.63 71.1,67.98 71.49,69.38 71.89,70.85 72.29,72.36 72.68,73.92 73.08,75.51 73.47,77.12 73.87,78.74 74.27,80.36 74.66,81.98 75.06,83.59 75.45,85.18 75.85,86.73 76.25,88.25 76.64,89.73 77.04,91.17 77.43,92.56 77.83,93.91 78.23,95.2 78.62,96.45 79.02,97.65 79.42,98.82 79.81,99.94 80.21,101.03 80.6,102.08 81,103.1 81.4,104.09 81.79,105.07 82.19,106.02 82.58,106.96 82.98,107.89 83.38,108.8 83.77,109.7 84.17,110.59 84.56,111.48 84.96,112.35 85.36,113.22 85.75,114.07 86.15,114.92 86.55,115.75 86.94,116.56 87.34,117.36 87.73,118.15 88.13,118.92 88.53,119.66 88.92,120.38 89.32,121.08 89.71,121.75 90.11,122.41 90.51,123.04 90.9,123.64 91.3,124.22 91.69,124.78 92.09,125.32 92.49,125.83 92.88,126.34 93.28,126.83 93.68,127.3 94.07,127.77 94.47,128.24 94.86,128.7 95.26,129.17 95.66,129.64 96.05,130.13 96.45,130.63 96.84,131.15 97.24,131.69 97.64,132.25 98.03,132.84 98.43,133.45 98.82,134.1 99.22,134.78 99.62,135.48 100.01,136.22 100.41,136.98 100.81,137.77 101.2,138.58 101.6,139.41 101.99,140.27 102.39,141.13 102.79,142.01 103.18,142.9 103.58,143.79 103.97,144.67 104.37,145.56 104.77,146.44 105.16,147.31 105.56,148.18 105.95,149.03 106.35,149.87 106.75,150.7 107.14,151.52 107.54,152.33 107.94,153.13 108.33,153.92 108.73,154.71 109.12,155.5 109.52,156.29 109.92,157.09 110.31,157.89 110.71,158.7 111.1,159.52 111.5,160.36 111.9,161.21 112.29,162.07 112.69,162.95 113.08,163.84 113.48,164.75 113.88,165.67 114.27,166.61 114.67,167.57 115.07,168.54 115.46,169.52 115.86,170.51 116.25,171.51 116.65,172.53 117.05,173.56 117.44,174.6 117.84,175.65 118.23,176.71 118.63,177.78 119.03,178.86 119.42,179.95 119.82,181.04 120.21,182.15 120.61,183.26 121.01,184.38 121.4,185.5 121.8,186.63 122.19,187.76 122.59,188.89 122.99,190.02 123.38,191.16 123.78,192.29 124.18,193.41 124.57,194.53 124.97,195.65 125.36,196.75 125.76,197.85 126.16,198.93 126.55,200.01 126.95,201.06 127.34,202.1 127.74,203.13 128.14,204.13 128.53,205.11 128.93,206.07 129.32,207.01 129.72,207.91 130.12,208.78 130.51,209.63 130.91,210.44 131.31,211.22 131.7,211.96 132.1,212.66 132.49,213.32 132.89,213.93 133.29,214.5 133.68,215.02 134.08,215.5 134.47,215.93 134.87,216.3 135.27,216.62 135.66,216.9 136.06,217.12 136.45,217.3 136.85,217.43 137.25,217.51 137.64,217.54 138.04,217.53 138.44,217.47 138.83,217.38 139.23,217.24 139.62,217.07 140.02,216.86 140.42,216.61 140.81,216.32 141.21,215.99 141.6,215.63 142,215.23 142.4,214.78 142.79,214.28 143.19,213.74 143.58,213.14 143.98,212.5 144.38,211.79 144.77,211.03 145.17,210.2 145.57,209.3 145.96,208.33 146.36,207.3 146.75,206.21 147.15,205.05 147.55,203.82 147.94,202.53 148.34,201.17 148.73,199.77 149.13,198.31 149.53,196.81 149.92,195.28 150.32,193.71 150.71,192.1 151.11,190.49 151.51,188.85 151.9,187.21 152.3,185.57 152.7,183.92 153.09,182.29 153.49,180.68 153.88,179.08 154.28,177.5 154.68,175.96 155.07,174.44 155.47,172.96 155.86,171.52 156.26,170.13 156.66,168.78 157.05,167.48 157.45,166.23 157.84,165.04 158.24,163.9 158.64,162.83 159.03,161.81 159.43,160.84 159.83,159.94 160.22,159.09 160.62,158.3 161.01,157.57 161.41,156.9 161.81,156.27 162.2,155.7 162.6,155.17 162.99,154.68 163.39,154.25 163.79,153.85 164.18,153.48 164.58,153.15 164.97,152.84 165.37,152.57 165.77,152.31 166.16,152.09 166.56,151.87 166.96,151.68 167.35,151.5 167.75,151.33 168.14,151.17 168.54,151.01 168.94,150.87 169.33,150.73 169.73,150.59 170.12,150.46 170.52,150.33 170.92,150.2 171.31,150.07 171.71,149.95 172.1,149.82 172.5,149.7 172.9,149.59 173.29,149.47 173.69,149.36 174.09,149.25 174.48,149.14 174.88,149.04 175.27,148.95 175.67,148.86 176.07,148.77 176.46,148.68 176.86,148.6 177.25,148.52 177.65,148.44 178.05,148.36 178.44,148.28 178.84,148.21 179.23,148.13 179.63,148.05 180.03,147.97 180.42,147.89 180.82,147.81 181.22,147.73 181.61,147.66 182.01,147.59 182.4,147.53 182.8,147.47 183.2,147.43 183.59,147.4 183.99,147.38 184.38,147.37 184.78,147.39 185.18,147.41 185.57,147.45 185.97,147.51 186.36,147.57 186.76,147.65 187.16,147.75 187.55,147.84 187.95,147.95 188.34,148.05 188.74,148.16 189.14,148.26 189.53,148.35 189.93,148.43 190.33,148.5 190.72,148.56 191.12,148.59 191.51,148.61 191.91,148.61 192.31,148.58 192.7,148.53 193.1,148.45 193.49,148.36 193.89,148.25 194.29,148.11 194.68,147.95 195.08,147.77 195.47,147.59 195.87,147.38 196.27,147.17 196.66,146.94 197.06,146.71 197.46,146.46 197.85,146.22 198.25,145.96 198.64,145.7 199.04,145.44 199.44,145.17 199.83,144.89 200.23,144.6 200.62,144.31 201.02,144 201.42,143.68 201.81,143.34 202.21,142.98 202.6,142.61 203,142.21 203.4,141.79 203.79,141.34 204.19,140.87 204.59,140.37 204.98,139.84 205.38,139.29 205.77,138.71 206.17,138.11 206.57,137.49 206.96,136.84 207.36,136.18 207.75,135.5 208.15,134.8 208.55,134.1 208.94,133.38 209.34,132.66 209.73,131.93 210.13,131.2 210.53,130.46 210.92,129.73 211.32,129 211.72,128.27 212.11,127.54 212.51,126.82 212.9,126.1 213.3,125.38 213.7,124.66 214.09,123.95 214.49,123.24 214.88,122.53 215.28,121.82 215.68,121.11 216.07,120.4 216.47,119.69 216.86,118.97 217.26,118.26 217.66,117.53 218.05,116.8 218.45,116.07 218.85,115.33 219.24,114.59 219.64,113.84 220.03,113.08 220.43,112.32 220.83,111.56 221.22,110.79 221.62,110.01 222.01,109.24 222.41,108.46 222.81,107.69 223.2,106.91 223.6,106.14 223.99,105.38 224.39,104.62 224.79,103.87 225.18,103.12 225.58,102.39 225.98,101.68 226.37,100.97 226.77,100.28 227.16,99.6 227.56,98.94 227.96,98.29 228.35,97.66 228.75,97.04 229.14,96.44 229.54,95.84 229.94,95.26 230.33,94.69 230.73,94.13 231.12,93.58 231.52,93.03 231.92,92.49 232.31,91.96 232.71,91.43 233.11,90.91 233.5,90.39 233.9,89.87 234.29,89.35 234.69,88.83 235.09,88.32 235.48,87.8 235.88,87.29 236.27,86.77 236.67,86.25 237.07,85.73 237.46,85.2 237.86,84.67 238.25,84.13 238.65,83.58 239.05,83.02 239.44,82.45 239.84,81.86 240.24,81.26 240.63,80.63 241.03,79.99 241.42,79.32 241.82,78.63 242.22,77.91 242.61,77.18 243.01,76.41 243.4,75.62 243.8,74.8 244.2,73.96 244.59,73.09 244.99,72.21 245.38,71.31 245.78,70.4 246.18,69.48 246.57,68.56 246.97,67.63 247.37,66.72 247.76,65.81 248.16,64.92 248.55,64.05 248.95,63.2 249.35,62.39 249.74,61.61 250.14,60.86 250.53,60.15 250.93,59.49 251.33,58.87 251.72,58.3 252.12,57.78 252.51,57.29 252.91,56.85 253.31,56.45 253.7,56.1 254.1,55.78 254.49,55.51 254.89,55.26 255.29,55.05 255.68,54.86 256.08,54.7 256.48,54.57 256.87,54.45 257.27,54.36 257.66,54.28 258.06,54.21 258.46,54.15 258.85,54.11 259.25,54.07 259.64,54.05 260.04,54.02 260.44,54 260.83,53.99 261.23,53.98 261.62,53.97" stroke-dasharray="none" stroke="rgb(31,120,180)" stroke-width="0.75" opacity="1" stroke-opacity="1" fill="none"/>
          </g>
          <g id="Fig:densplot_01.xyplot.lines.group.6.panel.1.1.1">
            <polyline id="Fig:densplot_01.xyplot.lines.group.6.panel.1.1.1.1" points="59.33,53.98 59.72,53.99 60.12,54.01 60.51,54.03 60.91,54.05 61.31,54.09 61.7,54.13 62.1,54.18 62.49,54.24 62.89,54.32 63.28,54.41 63.68,54.52 64.08,54.66 64.47,54.82 64.87,55.01 65.26,55.23 65.66,55.49 66.06,55.78 66.45,56.12 66.85,56.51 67.24,56.94 67.64,57.44 68.03,57.99 68.43,58.6 68.83,59.26 69.22,59.99 69.62,60.77 70.01,61.63 70.41,62.55 70.8,63.52 71.2,64.55 71.6,65.62 71.99,66.75 72.39,67.92 72.78,69.13 73.18,70.38 73.57,71.65 73.97,72.94 74.37,74.25 74.76,75.56 75.16,76.88 75.55,78.2 75.95,79.51 76.35,80.82 76.74,82.1 77.14,83.38 77.53,84.63 77.93,85.86 78.32,87.06 78.72,88.24 79.12,89.4 79.51,90.54 79.91,91.65 80.3,92.74 80.7,93.81 81.09,94.87 81.49,95.91 81.89,96.94 82.28,97.95 82.68,98.96 83.07,99.97 83.47,100.97 83.86,101.97 84.26,102.97 84.66,103.98 85.05,104.99 85.45,106 85.84,107.02 86.24,108.05 86.64,109.09 87.03,110.14 87.43,111.18 87.82,112.24 88.22,113.3 88.61,114.35 89.01,115.41 89.41,116.46 89.8,117.51 90.2,118.55 90.59,119.58 90.99,120.59 91.38,121.58 91.78,122.56 92.18,123.51 92.57,124.44 92.97,125.34 93.36,126.21 93.76,127.05 94.15,127.86 94.55,128.64 94.95,129.39 95.34,130.12 95.74,130.81 96.13,131.48 96.53,132.13 96.92,132.75 97.32,133.36 97.72,133.96 98.11,134.56 98.51,135.15 98.9,135.74 99.3,136.34 99.7,136.95 100.09,137.57 100.49,138.22 100.88,138.89 101.28,139.59 101.67,140.32 102.07,141.09 102.47,141.89 102.86,142.73 103.26,143.61 103.65,144.54 104.05,145.5 104.44,146.5 104.84,147.54 105.24,148.61 105.63,149.72 106.03,150.85 106.42,152.02 106.82,153.2 107.21,154.41 107.61,155.62 108.01,156.85 108.4,158.08 108.8,159.31 109.19,160.53 109.59,161.75 109.99,162.96 110.38,164.16 110.78,165.34 111.17,166.51 111.57,167.65 111.96,168.78 112.36,169.9 112.76,170.99 113.15,172.08 113.55,173.15 113.94,174.21 114.34,175.27 114.73,176.32 115.13,177.37 115.53,178.42 115.92,179.48 116.32,180.54 116.71,181.62 117.11,182.71 117.5,183.82 117.9,184.94 118.3,186.08 118.69,187.24 119.09,188.41 119.48,189.61 119.88,190.82 120.28,192.05 120.67,193.29 121.07,194.54 121.46,195.8 121.86,197.06 122.25,198.32 122.65,199.58 123.05,200.83 123.44,202.08 123.84,203.31 124.23,204.52 124.63,205.71 125.02,206.88 125.42,208.03 125.82,209.14 126.21,210.23 126.61,211.28 127,212.29 127.4,213.26 127.79,214.2 128.19,215.09 128.59,215.93 128.98,216.74 129.38,217.49 129.77,218.18 130.17,218.83 130.56,219.42 130.96,219.96 131.36,220.44 131.75,220.87 132.15,221.24 132.54,221.54 132.94,221.79 133.34,221.98 133.73,222.12 134.13,222.2 134.52,222.22 134.92,222.18 135.31,222.09 135.71,221.94 136.11,221.75 136.5,221.51 136.9,221.21 137.29,220.87 137.69,220.47 138.08,220.02 138.48,219.53 138.88,218.99 139.27,218.39 139.67,217.75 140.06,217.05 140.46,216.29 140.85,215.48 141.25,214.62 141.65,213.7 142.04,212.72 142.44,211.68 142.83,210.57 143.23,209.4 143.63,208.18 144.02,206.91 144.42,205.58 144.81,204.2 145.21,202.77 145.6,201.3 146,199.79 146.4,198.25 146.79,196.69 147.19,195.11 147.58,193.51 147.98,191.89 148.37,190.28 148.77,188.67 149.17,187.07 149.56,185.47 149.96,183.89 150.35,182.32 150.75,180.77 151.14,179.25 151.54,177.74 151.94,176.26 152.33,174.8 152.73,173.36 153.12,171.96 153.52,170.57 153.92,169.21 154.31,167.87 154.71,166.55 155.1,165.26 155.5,164 155.89,162.77 156.29,161.57 156.69,160.4 157.08,159.26 157.48,158.16 157.87,157.09 158.27,156.08 158.66,155.11 159.06,154.19 159.46,153.31 159.85,152.48 160.25,151.71 160.64,150.99 161.04,150.34 161.43,149.73 161.83,149.18 162.23,148.68 162.62,148.24 163.02,147.84 163.41,147.51 163.81,147.22 164.2,146.97 164.6,146.76 165,146.6 165.39,146.46 165.79,146.36 166.18,146.3 166.58,146.26 166.98,146.24 167.37,146.24 167.77,146.25 168.16,146.29 168.56,146.33 168.95,146.39 169.35,146.46 169.75,146.53 170.14,146.61 170.54,146.7 170.93,146.79 171.33,146.88 171.72,146.98 172.12,147.08 172.52,147.18 172.91,147.28 173.31,147.38 173.7,147.48 174.1,147.58 174.49,147.67 174.89,147.76 175.29,147.85 175.68,147.93 176.08,148.01 176.47,148.07 176.87,148.13 177.27,148.18 177.66,148.22 178.06,148.25 178.45,148.26 178.85,148.27 179.24,148.27 179.64,148.25 180.04,148.23 180.43,148.21 180.83,148.18 181.22,148.15 181.62,148.13 182.01,148.11 182.41,148.1 182.81,148.11 183.2,148.12 183.6,148.16 183.99,148.22 184.39,148.31 184.78,148.42 185.18,148.56 185.58,148.73 185.97,148.93 186.37,149.15 186.76,149.41 187.16,149.69 187.56,149.98 187.95,150.3 188.35,150.62 188.74,150.95 189.14,151.28 189.53,151.6 189.93,151.9 190.33,152.19 190.72,152.45 191.12,152.68 191.51,152.87 191.91,153.01 192.3,153.11 192.7,153.16 193.1,153.16 193.49,153.11 193.89,153.02 194.28,152.87 194.68,152.66 195.07,152.42 195.47,152.14 195.87,151.82 196.26,151.47 196.66,151.09 197.05,150.69 197.45,150.27 197.84,149.84 198.24,149.4 198.64,148.95 199.03,148.51 199.43,148.06 199.82,147.62 200.22,147.17 200.62,146.74 201.01,146.3 201.41,145.87 201.8,145.44 202.2,145 202.59,144.57 202.99,144.13 203.39,143.68 203.78,143.22 204.18,142.75 204.57,142.26 204.97,141.76 205.36,141.24 205.76,140.7 206.16,140.15 206.55,139.57 206.95,138.98 207.34,138.36 207.74,137.73 208.13,137.08 208.53,136.42 208.93,135.74 209.32,135.05 209.72,134.36 210.11,133.65 210.51,132.94 210.91,132.22 211.3,131.51 211.7,130.79 212.09,130.07 212.49,129.35 212.88,128.64 213.28,127.92 213.68,127.21 214.07,126.5 214.47,125.79 214.86,125.08 215.26,124.37 215.65,123.65 216.05,122.93 216.45,122.2 216.84,121.47 217.24,120.73 217.63,119.98 218.03,119.22 218.42,118.44 218.82,117.66 219.22,116.87 219.61,116.06 220.01,115.24 220.4,114.42 220.8,113.58 221.2,112.74 221.59,111.89 221.99,111.03 222.38,110.17 222.78,109.32 223.17,108.46 223.57,107.61 223.97,106.77 224.36,105.93 224.76,105.11 225.15,104.3 225.55,103.51 225.94,102.73 226.34,101.97 226.74,101.23 227.13,100.51 227.53,99.8 227.92,99.12 228.32,98.46 228.71,97.81 229.11,97.18 229.51,96.57 229.9,95.97 230.3,95.39 230.69,94.81 231.09,94.25 231.49,93.7 231.88,93.15 232.28,92.61 232.67,92.07 233.07,91.53 233.46,91 233.86,90.47 234.26,89.93 234.65,89.4 235.05,88.86 235.44,88.32 235.84,87.78 236.23,87.23 236.63,86.67 237.03,86.11 237.42,85.54 237.82,84.97 238.21,84.38 238.61,83.78 239,83.17 239.4,82.55 239.8,81.91 240.19,81.26 240.59,80.59 240.98,79.9 241.38,79.19 241.77,78.45 242.17,77.7 242.57,76.93 242.96,76.13 243.36,75.32 243.75,74.48 244.15,73.63 244.55,72.76 244.94,71.88 245.34,70.98 245.73,70.08 246.13,69.17 246.52,68.26 246.92,67.35 247.32,66.46 247.71,65.57 248.11,64.7 248.5,63.85 248.9,63.03 249.29,62.24 249.69,61.48 250.09,60.76 250.48,60.07 250.88,59.42 251.27,58.82 251.67,58.26 252.06,57.75 252.46,57.27 252.86,56.84 253.25,56.45 253.65,56.1 254.04,55.79 254.44,55.51 254.84,55.27 255.23,55.06 255.63,54.87 256.02,54.71 256.42,54.57 256.81,54.46 257.21,54.37 257.61,54.28 258,54.22 258.4,54.16 258.79,54.11 259.19,54.08 259.58,54.05 259.98,54.02 260.38,54.01 260.77,53.99 261.17,53.98 261.56,53.97" stroke-dasharray="none" stroke="rgb(31,120,180)" stroke-width="0.75" opacity="1" stroke-opacity="1" fill="none"/>
          </g>
          <g id="Fig:densplot_01.xyplot.lines.group.7.panel.1.1.1">
            <polyline id="Fig:densplot_01.xyplot.lines.group.7.panel.1.1.1.1" points="59.04,54 59.44,54.02 59.84,54.04 60.23,54.07 60.63,54.11 61.03,54.16 61.42,54.21 61.82,54.29 62.22,54.37 62.61,54.48 63.01,54.61 63.41,54.77 63.8,54.96 64.2,55.18 64.6,55.44 64.99,55.74 65.39,56.09 65.79,56.5 66.18,56.96 66.58,57.48 66.98,58.07 67.37,58.72 67.77,59.45 68.17,60.25 68.56,61.14 68.96,62.1 69.36,63.14 69.76,64.24 70.15,65.42 70.55,66.67 70.95,68 71.34,69.38 71.74,70.81 72.14,72.29 72.53,73.81 72.93,75.36 73.33,76.94 73.72,78.53 74.12,80.13 74.52,81.72 74.91,83.31 75.31,84.89 75.71,86.44 76.1,87.97 76.5,89.46 76.9,90.92 77.29,92.35 77.69,93.74 78.09,95.09 78.48,96.39 78.88,97.65 79.28,98.87 79.67,100.06 80.07,101.21 80.47,102.32 80.86,103.4 81.26,104.45 81.66,105.47 82.06,106.46 82.45,107.43 82.85,108.37 83.25,109.3 83.64,110.2 84.04,111.08 84.44,111.95 84.83,112.8 85.23,113.64 85.63,114.46 86.02,115.27 86.42,116.06 86.82,116.83 87.21,117.59 87.61,118.34 88.01,119.07 88.4,119.78 88.8,120.47 89.2,121.15 89.59,121.8 89.99,122.44 90.39,123.07 90.78,123.67 91.18,124.25 91.58,124.82 91.97,125.37 92.37,125.9 92.77,126.43 93.17,126.93 93.56,127.43 93.96,127.92 94.36,128.41 94.75,128.89 95.15,129.37 95.55,129.86 95.94,130.35 96.34,130.85 96.74,131.37 97.13,131.91 97.53,132.46 97.93,133.04 98.32,133.65 98.72,134.28 99.12,134.95 99.51,135.64 99.91,136.38 100.31,137.14 100.7,137.94 101.1,138.77 101.5,139.63 101.89,140.53 102.29,141.46 102.69,142.41 103.08,143.39 103.48,144.39 103.88,145.41 104.28,146.45 104.67,147.5 105.07,148.57 105.47,149.64 105.86,150.71 106.26,151.78 106.66,152.86 107.05,153.92 107.45,154.98 107.85,156.03 108.24,157.07 108.64,158.09 109.04,159.09 109.43,160.08 109.83,161.05 110.23,161.99 110.62,162.92 111.02,163.84 111.42,164.73 111.81,165.61 112.21,166.48 112.61,167.33 113,168.18 113.4,169.03 113.8,169.87 114.19,170.72 114.59,171.57 114.99,172.44 115.38,173.33 115.78,174.23 116.18,175.16 116.58,176.11 116.97,177.09 117.37,178.1 117.77,179.15 118.16,180.22 118.56,181.33 118.96,182.46 119.35,183.63 119.75,184.83 120.15,186.05 120.54,187.3 120.94,188.56 121.34,189.84 121.73,191.13 122.13,192.43 122.53,193.73 122.92,195.04 123.32,196.34 123.72,197.63 124.11,198.92 124.51,200.19 124.91,201.44 125.3,202.66 125.7,203.86 126.1,205.04 126.49,206.18 126.89,207.3 127.29,208.37 127.69,209.4 128.08,210.38 128.48,211.33 128.88,212.23 129.27,213.08 129.67,213.88 130.07,214.62 130.46,215.31 130.86,215.94 131.26,216.51 131.65,217.03 132.05,217.49 132.45,217.88 132.84,218.21 133.24,218.49 133.64,218.7 134.03,218.85 134.43,218.95 134.83,218.99 135.22,218.96 135.62,218.88 136.02,218.75 136.41,218.57 136.81,218.34 137.21,218.06 137.6,217.72 138,217.34 138.4,216.92 138.8,216.45 139.19,215.94 139.59,215.38 139.99,214.78 140.38,214.12 140.78,213.42 141.18,212.67 141.57,211.87 141.97,211.02 142.37,210.12 142.76,209.16 143.16,208.13 143.56,207.05 143.95,205.91 144.35,204.72 144.75,203.47 145.14,202.15 145.54,200.78 145.94,199.36 146.33,197.89 146.73,196.38 147.13,194.82 147.52,193.23 147.92,191.61 148.32,189.96 148.71,188.3 149.11,186.63 149.51,184.95 149.9,183.27 150.3,181.6 150.7,179.94 151.1,178.3 151.49,176.69 151.89,175.1 152.29,173.54 152.68,172.01 153.08,170.53 153.48,169.09 153.87,167.69 154.27,166.33 154.67,165.01 155.06,163.75 155.46,162.53 155.86,161.36 156.25,160.24 156.65,159.16 157.05,158.13 157.44,157.15 157.84,156.21 158.24,155.33 158.63,154.48 159.03,153.68 159.43,152.92 159.82,152.21 160.22,151.53 160.62,150.89 161.01,150.29 161.41,149.73 161.81,149.2 162.21,148.7 162.6,148.24 163,147.8 163.4,147.4 163.79,147.03 164.19,146.69 164.59,146.37 164.98,146.07 165.38,145.8 165.78,145.56 166.17,145.35 166.57,145.16 166.97,144.99 167.36,144.85 167.76,144.74 168.16,144.65 168.55,144.6 168.95,144.57 169.35,144.57 169.74,144.6 170.14,144.65 170.54,144.73 170.93,144.84 171.33,144.98 171.73,145.13 172.12,145.31 172.52,145.51 172.92,145.72 173.32,145.95 173.71,146.19 174.11,146.43 174.51,146.68 174.9,146.92 175.3,147.17 175.7,147.4 176.09,147.63 176.49,147.84 176.89,148.04 177.28,148.22 177.68,148.37 178.08,148.51 178.47,148.63 178.87,148.72 179.27,148.8 179.66,148.85 180.06,148.88 180.46,148.9 180.85,148.9 181.25,148.88 181.65,148.85 182.04,148.82 182.44,148.77 182.84,148.73 183.23,148.68 183.63,148.63 184.03,148.59 184.42,148.55 184.82,148.51 185.22,148.49 185.62,148.47 186.01,148.46 186.41,148.46 186.81,148.47 187.2,148.5 187.6,148.54 188,148.58 188.39,148.64 188.79,148.7 189.19,148.78 189.58,148.86 189.98,148.94 190.38,149.03 190.77,149.12 191.17,149.21 191.57,149.29 191.96,149.37 192.36,149.44 192.76,149.51 193.15,149.55 193.55,149.59 193.95,149.6 194.34,149.59 194.74,149.56 195.14,149.51 195.53,149.44 195.93,149.34 196.33,149.22 196.73,149.06 197.12,148.89 197.52,148.69 197.92,148.47 198.31,148.22 198.71,147.96 199.11,147.68 199.5,147.37 199.9,147.05 200.3,146.72 200.69,146.38 201.09,146.02 201.49,145.65 201.88,145.26 202.28,144.87 202.68,144.46 203.07,144.04 203.47,143.61 203.87,143.17 204.26,142.71 204.66,142.23 205.06,141.74 205.45,141.24 205.85,140.72 206.25,140.18 206.64,139.62 207.04,139.05 207.44,138.46 207.84,137.85 208.23,137.23 208.63,136.6 209.03,135.95 209.42,135.3 209.82,134.63 210.22,133.96 210.61,133.28 211.01,132.59 211.41,131.91 211.8,131.22 212.2,130.53 212.6,129.84 212.99,129.15 213.39,128.46 213.79,127.78 214.18,127.09 214.58,126.41 214.98,125.72 215.37,125.03 215.77,124.35 216.17,123.66 216.56,122.96 216.96,122.27 217.36,121.57 217.75,120.86 218.15,120.15 218.55,119.43 218.94,118.7 219.34,117.97 219.74,117.23 220.14,116.48 220.53,115.72 220.93,114.96 221.33,114.19 221.72,113.42 222.12,112.64 222.52,111.85 222.91,111.06 223.31,110.26 223.71,109.47 224.1,108.67 224.5,107.87 224.9,107.08 225.29,106.28 225.69,105.49 226.09,104.7 226.48,103.91 226.88,103.12 227.28,102.35 227.67,101.57 228.07,100.81 228.47,100.05 228.86,99.29 229.26,98.55 229.66,97.81 230.05,97.08 230.45,96.37 230.85,95.66 231.25,94.96 231.64,94.27 232.04,93.59 232.44,92.92 232.83,92.27 233.23,91.62 233.63,90.99 234.02,90.36 234.42,89.75 234.82,89.14 235.21,88.54 235.61,87.95 236.01,87.37 236.4,86.78 236.8,86.2 237.2,85.62 237.59,85.04 237.99,84.46 238.39,83.87 238.78,83.28 239.18,82.67 239.58,82.05 239.97,81.43 240.37,80.78 240.77,80.12 241.16,79.44 241.56,78.74 241.96,78.02 242.35,77.28 242.75,76.51 243.15,75.73 243.55,74.93 243.94,74.1 244.34,73.26 244.74,72.41 245.13,71.54 245.53,70.66 245.93,69.77 246.32,68.88 246.72,67.99 247.12,67.1 247.51,66.22 247.91,65.35 248.31,64.5 248.7,63.68 249.1,62.88 249.5,62.1 249.89,61.36 250.29,60.65 250.69,59.98 251.08,59.35 251.48,58.76 251.88,58.21 252.27,57.7 252.67,57.24 253.07,56.81 253.46,56.43 253.86,56.09 254.26,55.78 254.66,55.51 255.05,55.27 255.45,55.06 255.85,54.87 256.24,54.72 256.64,54.58 257.04,54.47 257.43,54.37 257.83,54.29 258.23,54.22 258.62,54.17 259.02,54.12 259.42,54.08 259.81,54.05 260.21,54.03 260.61,54.01 261,53.99 261.4,53.98 261.8,53.97" stroke-dasharray="none" stroke="rgb(31,120,180)" stroke-width="0.75" opacity="1" stroke-opacity="1" fill="none"/>
          </g>
          <g id="Fig:densplot_01.xyplot.lines.group.8.panel.1.1.1">
            <polyline id="Fig:densplot_01.xyplot.lines.group.8.panel.1.1.1.1" points="59.19,53.99 59.59,54 59.98,54.02 60.38,54.05 60.78,54.08 61.17,54.12 61.57,54.17 61.96,54.24 62.36,54.31 62.76,54.41 63.15,54.53 63.55,54.66 63.94,54.83 64.34,55.03 64.74,55.25 65.13,55.53 65.53,55.85 65.93,56.21 66.32,56.63 66.72,57.1 67.11,57.64 67.51,58.24 67.91,58.91 68.3,59.66 68.7,60.47 69.09,61.36 69.49,62.32 69.89,63.35 70.28,64.47 70.68,65.65 71.08,66.9 71.47,68.2 71.87,69.56 72.26,70.97 72.66,72.42 73.06,73.9 73.45,75.42 73.85,76.94 74.24,78.48 74.64,80.03 75.04,81.56 75.43,83.09 75.83,84.59 76.23,86.07 76.62,87.53 77.02,88.94 77.41,90.33 77.81,91.67 78.21,92.97 78.6,94.22 79,95.43 79.39,96.6 79.79,97.73 80.19,98.83 80.58,99.88 80.98,100.89 81.38,101.87 81.77,102.82 82.17,103.75 82.56,104.65 82.96,105.53 83.36,106.39 83.75,107.24 84.15,108.07 84.54,108.9 84.94,109.72 85.34,110.53 85.73,111.34 86.13,112.14 86.53,112.95 86.92,113.76 87.32,114.56 87.71,115.37 88.11,116.18 88.51,117 88.9,117.81 89.3,118.63 89.69,119.45 90.09,120.27 90.49,121.09 90.88,121.91 91.28,122.73 91.68,123.55 92.07,124.37 92.47,125.18 92.86,126 93.26,126.81 93.66,127.61 94.05,128.41 94.45,129.21 94.84,129.99 95.24,130.77 95.64,131.55 96.03,132.31 96.43,133.06 96.83,133.8 97.22,134.53 97.62,135.25 98.01,135.96 98.41,136.66 98.81,137.35 99.2,138.03 99.6,138.69 99.99,139.36 100.39,140.01 100.79,140.66 101.18,141.31 101.58,141.96 101.98,142.61 102.37,143.27 102.77,143.93 103.16,144.6 103.56,145.29 103.96,145.99 104.35,146.7 104.75,147.44 105.14,148.19 105.54,148.96 105.94,149.76 106.33,150.57 106.73,151.42 107.13,152.28 107.52,153.17 107.92,154.09 108.31,155.02 108.71,155.98 109.11,156.96 109.5,157.96 109.9,158.98 110.29,160.01 110.69,161.06 111.09,162.13 111.48,163.21 111.88,164.3 112.28,165.4 112.67,166.5 113.07,167.61 113.46,168.72 113.86,169.84 114.26,170.95 114.65,172.06 115.05,173.16 115.44,174.26 115.84,175.36 116.24,176.45 116.63,177.53 117.03,178.6 117.43,179.67 117.82,180.73 118.22,181.78 118.61,182.83 119.01,183.88 119.41,184.92 119.8,185.96 120.2,187.01 120.59,188.06 120.99,189.11 121.39,190.17 121.78,191.23 122.18,192.31 122.58,193.4 122.97,194.49 123.37,195.6 123.76,196.71 124.16,197.83 124.56,198.96 124.95,200.09 125.35,201.23 125.74,202.36 126.14,203.48 126.54,204.59 126.93,205.68 127.33,206.76 127.72,207.8 128.12,208.82 128.52,209.8 128.91,210.74 129.31,211.65 129.71,212.5 130.1,213.29 130.5,214.04 130.89,214.73 131.29,215.37 131.69,215.96 132.08,216.49 132.48,216.95 132.87,217.36 133.27,217.72 133.67,218.03 134.06,218.29 134.46,218.5 134.86,218.66 135.25,218.78 135.65,218.85 136.04,218.89 136.44,218.89 136.84,218.85 137.23,218.77 137.63,218.65 138.02,218.49 138.42,218.29 138.82,218.04 139.21,217.76 139.61,217.43 140.01,217.04 140.4,216.6 140.8,216.1 141.19,215.55 141.59,214.93 141.99,214.26 142.38,213.51 142.78,212.68 143.17,211.79 143.57,210.82 143.97,209.78 144.36,208.67 144.76,207.49 145.16,206.24 145.55,204.91 145.95,203.53 146.34,202.09 146.74,200.6 147.14,199.06 147.53,197.48 147.93,195.86 148.32,194.21 148.72,192.55 149.12,190.87 149.51,189.19 149.91,187.51 150.31,185.84 150.7,184.18 151.1,182.54 151.49,180.93 151.89,179.35 152.29,177.8 152.68,176.28 153.08,174.81 153.47,173.38 153.87,171.99 154.27,170.64 154.66,169.33 155.06,168.06 155.46,166.83 155.85,165.65 156.25,164.51 156.64,163.4 157.04,162.33 157.44,161.3 157.83,160.3 158.23,159.35 158.62,158.43 159.02,157.55 159.42,156.7 159.81,155.9 160.21,155.13 160.61,154.4 161,153.72 161.4,153.08 161.79,152.48 162.19,151.92 162.59,151.4 162.98,150.92 163.38,150.5 163.77,150.11 164.17,149.77 164.57,149.46 164.96,149.19 165.36,148.95 165.76,148.75 166.15,148.58 166.55,148.44 166.94,148.32 167.34,148.23 167.74,148.16 168.13,148.11 168.53,148.07 168.92,148.06 169.32,148.05 169.72,148.05 170.11,148.07 170.51,148.09 170.91,148.12 171.3,148.16 171.7,148.2 172.09,148.25 172.49,148.3 172.89,148.36 173.28,148.41 173.68,148.47 174.07,148.53 174.47,148.59 174.87,148.66 175.26,148.72 175.66,148.78 176.06,148.85 176.45,148.91 176.85,148.97 177.24,149.03 177.64,149.09 178.04,149.15 178.43,149.2 178.83,149.25 179.22,149.29 179.62,149.33 180.02,149.35 180.41,149.37 180.81,149.38 181.21,149.38 181.6,149.37 182,149.34 182.39,149.31 182.79,149.26 183.19,149.2 183.58,149.13 183.98,149.05 184.37,148.96 184.77,148.87 185.17,148.78 185.56,148.68 185.96,148.58 186.36,148.49 186.75,148.4 187.15,148.32 187.54,148.25 187.94,148.19 188.34,148.14 188.73,148.1 189.13,148.08 189.52,148.08 189.92,148.09 190.32,148.11 190.71,148.14 191.11,148.19 191.51,148.24 191.9,148.31 192.3,148.37 192.69,148.44 193.09,148.51 193.49,148.57 193.88,148.63 194.28,148.67 194.67,148.7 195.07,148.72 195.47,148.71 195.86,148.68 196.26,148.63 196.66,148.55 197.05,148.43 197.45,148.28 197.84,148.09 198.24,147.87 198.64,147.62 199.03,147.32 199.43,146.99 199.82,146.61 200.22,146.2 200.62,145.76 201.01,145.29 201.41,144.79 201.81,144.26 202.2,143.71 202.6,143.14 202.99,142.55 203.39,141.96 203.79,141.35 204.18,140.74 204.58,140.12 204.97,139.5 205.37,138.89 205.77,138.28 206.16,137.67 206.56,137.07 206.96,136.48 207.35,135.89 207.75,135.31 208.14,134.73 208.54,134.16 208.94,133.58 209.33,133.01 209.73,132.44 210.12,131.86 210.52,131.27 210.92,130.69 211.31,130.09 211.71,129.48 212.11,128.87 212.5,128.24 212.9,127.6 213.29,126.94 213.69,126.28 214.09,125.61 214.48,124.92 214.88,124.22 215.27,123.51 215.67,122.8 216.07,122.07 216.46,121.34 216.86,120.6 217.26,119.86 217.65,119.12 218.05,118.37 218.44,117.62 218.84,116.87 219.24,116.12 219.63,115.37 220.03,114.62 220.42,113.87 220.82,113.12 221.22,112.37 221.61,111.62 222.01,110.87 222.41,110.12 222.8,109.37 223.2,108.62 223.59,107.86 223.99,107.11 224.39,106.35 224.78,105.6 225.18,104.84 225.57,104.08 225.97,103.32 226.37,102.56 226.76,101.8 227.16,101.05 227.56,100.3 227.95,99.55 228.35,98.81 228.74,98.07 229.14,97.34 229.54,96.62 229.93,95.91 230.33,95.21 230.72,94.53 231.12,93.85 231.52,93.19 231.91,92.54 232.31,91.9 232.71,91.27 233.1,90.66 233.5,90.07 233.89,89.48 234.29,88.91 234.69,88.35 235.08,87.8 235.48,87.25 235.87,86.72 236.27,86.19 236.67,85.67 237.06,85.14 237.46,84.62 237.86,84.1 238.25,83.57 238.65,83.04 239.04,82.49 239.44,81.94 239.84,81.37 240.23,80.78 240.63,80.18 241.02,79.55 241.42,78.91 241.82,78.24 242.21,77.54 242.61,76.83 243.01,76.08 243.4,75.31 243.8,74.52 244.19,73.7 244.59,72.86 244.99,72 245.38,71.12 245.78,70.24 246.17,69.34 246.57,68.43 246.97,67.53 247.36,66.63 247.76,65.74 248.16,64.87 248.55,64.01 248.95,63.18 249.34,62.38 249.74,61.61 250.14,60.87 250.53,60.17 250.93,59.51 251.32,58.9 251.72,58.33 252.12,57.8 252.51,57.32 252.91,56.88 253.31,56.48 253.7,56.12 254.1,55.81 254.49,55.53 254.89,55.28 255.29,55.06 255.68,54.87 256.08,54.71 256.47,54.58 256.87,54.46 257.27,54.37 257.66,54.28 258.06,54.22 258.46,54.16 258.85,54.11 259.25,54.08 259.64,54.05 260.04,54.02 260.44,54 260.83,53.99 261.23,53.98 261.62,53.97" stroke-dasharray="none" stroke="rgb(31,120,180)" stroke-width="0.75" opacity="1" stroke-opacity="1" fill="none"/>
          </g>
          <g id="Fig:densplot_01.xyplot.lines.group.9.panel.1.1.1">
            <polyline id="Fig:densplot_01.xyplot.lines.group.9.panel.1.1.1.1" points="59.24,53.99 59.63,54 60.03,54.02 60.42,54.05 60.82,54.08 61.22,54.12 61.61,54.17 62.01,54.23 62.4,54.31 62.8,54.4 63.2,54.52 63.59,54.66 63.99,54.82 64.38,55.01 64.78,55.24 65.17,55.51 65.57,55.83 65.97,56.19 66.36,56.6 66.76,57.06 67.15,57.58 67.55,58.18 67.95,58.84 68.34,59.57 68.74,60.37 69.13,61.23 69.53,62.17 69.93,63.18 70.32,64.27 70.72,65.42 71.11,66.62 71.51,67.89 71.91,69.2 72.3,70.56 72.7,71.96 73.09,73.38 73.49,74.83 73.89,76.3 74.28,77.76 74.68,79.23 75.07,80.69 75.47,82.14 75.87,83.56 76.26,84.95 76.66,86.32 77.05,87.65 77.45,88.95 77.85,90.2 78.24,91.42 78.64,92.59 79.03,93.72 79.43,94.82 79.83,95.88 80.22,96.91 80.62,97.89 81.01,98.85 81.41,99.79 81.81,100.69 82.2,101.58 82.6,102.45 82.99,103.3 83.39,104.13 83.79,104.95 84.18,105.76 84.58,106.56 84.97,107.36 85.37,108.15 85.77,108.94 86.16,109.72 86.56,110.51 86.95,111.29 87.35,112.08 87.74,112.87 88.14,113.67 88.54,114.47 88.93,115.28 89.33,116.09 89.72,116.9 90.12,117.72 90.52,118.55 90.91,119.37 91.31,120.2 91.7,121.03 92.1,121.85 92.5,122.67 92.89,123.48 93.29,124.29 93.68,125.08 94.08,125.86 94.48,126.62 94.87,127.37 95.27,128.1 95.66,128.81 96.06,129.5 96.46,130.18 96.85,130.83 97.25,131.48 97.64,132.11 98.04,132.73 98.44,133.34 98.83,133.95 99.23,134.56 99.62,135.17 100.02,135.79 100.42,136.41 100.81,137.05 101.21,137.71 101.6,138.39 102,139.1 102.4,139.82 102.79,140.58 103.19,141.36 103.58,142.16 103.98,143 104.38,143.87 104.77,144.76 105.17,145.68 105.56,146.61 105.96,147.58 106.36,148.56 106.75,149.56 107.15,150.58 107.54,151.61 107.94,152.65 108.34,153.7 108.73,154.76 109.13,155.83 109.52,156.9 109.92,157.97 110.32,159.05 110.71,160.12 111.11,161.2 111.5,162.28 111.9,163.36 112.29,164.44 112.69,165.52 113.09,166.6 113.48,167.68 113.88,168.76 114.27,169.84 114.67,170.93 115.07,172.01 115.46,173.1 115.86,174.19 116.25,175.28 116.65,176.37 117.05,177.47 117.44,178.58 117.84,179.69 118.23,180.8 118.63,181.92 119.03,183.04 119.42,184.16 119.82,185.29 120.21,186.43 120.61,187.56 121.01,188.7 121.4,189.83 121.8,190.97 122.19,192.1 122.59,193.24 122.99,194.37 123.38,195.5 123.78,196.62 124.17,197.75 124.57,198.86 124.97,199.97 125.36,201.08 125.76,202.18 126.15,203.27 126.55,204.36 126.95,205.44 127.34,206.5 127.74,207.55 128.13,208.59 128.53,209.62 128.93,210.62 129.32,211.61 129.72,212.56 130.11,213.49 130.51,214.38 130.91,215.25 131.3,216.07 131.7,216.85 132.09,217.58 132.49,218.25 132.89,218.88 133.28,219.44 133.68,219.96 134.07,220.41 134.47,220.8 134.87,221.12 135.26,221.37 135.66,221.57 136.05,221.7 136.45,221.77 136.84,221.78 137.24,221.73 137.64,221.62 138.03,221.44 138.43,221.22 138.82,220.94 139.22,220.61 139.62,220.22 140.01,219.78 140.41,219.28 140.8,218.74 141.2,218.14 141.6,217.49 141.99,216.79 142.39,216.03 142.78,215.2 143.18,214.32 143.58,213.38 143.97,212.38 144.37,211.32 144.76,210.2 145.16,209 145.56,207.74 145.95,206.42 146.35,205.04 146.74,203.6 147.14,202.1 147.54,200.55 147.93,198.95 148.33,197.3 148.72,195.62 149.12,193.91 149.52,192.18 149.91,190.43 150.31,188.67 150.7,186.91 151.1,185.16 151.5,183.43 151.89,181.71 152.29,180.02 152.68,178.37 153.08,176.76 153.48,175.2 153.87,173.69 154.27,172.23 154.66,170.83 155.06,169.48 155.46,168.19 155.85,166.97 156.25,165.81 156.64,164.7 157.04,163.65 157.44,162.66 157.83,161.71 158.23,160.83 158.62,159.99 159.02,159.2 159.41,158.45 159.81,157.74 160.21,157.06 160.6,156.43 161,155.83 161.39,155.26 161.79,154.72 162.19,154.2 162.58,153.72 162.98,153.26 163.37,152.82 163.77,152.42 164.17,152.03 164.56,151.67 164.96,151.33 165.35,151.01 165.75,150.71 166.15,150.44 166.54,150.18 166.94,149.95 167.33,149.73 167.73,149.53 168.13,149.34 168.52,149.17 168.92,149.02 169.31,148.88 169.71,148.75 170.11,148.62 170.5,148.51 170.9,148.4 171.29,148.3 171.69,148.21 172.09,148.12 172.48,148.03 172.88,147.94 173.27,147.86 173.67,147.78 174.07,147.7 174.46,147.62 174.86,147.54 175.25,147.46 175.65,147.38 176.05,147.31 176.44,147.24 176.84,147.18 177.23,147.12 177.63,147.07 178.03,147.02 178.42,146.98 178.82,146.95 179.21,146.93 179.61,146.92 180.01,146.91 180.4,146.92 180.8,146.93 181.19,146.95 181.59,146.98 181.99,147.02 182.38,147.06 182.78,147.11 183.17,147.17 183.57,147.24 183.96,147.31 184.36,147.39 184.76,147.48 185.15,147.58 185.55,147.68 185.94,147.8 186.34,147.92 186.74,148.05 187.13,148.2 187.53,148.35 187.92,148.51 188.32,148.68 188.72,148.86 189.11,149.04 189.51,149.22 189.9,149.4 190.3,149.58 190.7,149.75 191.09,149.91 191.49,150.06 191.88,150.19 192.28,150.29 192.68,150.38 193.07,150.43 193.47,150.46 193.86,150.45 194.26,150.41 194.66,150.33 195.05,150.22 195.45,150.07 195.84,149.89 196.24,149.67 196.64,149.43 197.03,149.15 197.43,148.84 197.82,148.5 198.22,148.14 198.62,147.76 199.01,147.37 199.41,146.95 199.8,146.52 200.2,146.07 200.6,145.62 200.99,145.15 201.39,144.68 201.78,144.2 202.18,143.71 202.58,143.21 202.97,142.7 203.37,142.19 203.76,141.67 204.16,141.14 204.56,140.6 204.95,140.05 205.35,139.5 205.74,138.93 206.14,138.36 206.53,137.78 206.93,137.19 207.33,136.59 207.72,135.98 208.12,135.37 208.51,134.75 208.91,134.13 209.31,133.5 209.7,132.87 210.1,132.24 210.49,131.61 210.89,130.97 211.29,130.34 211.68,129.7 212.08,129.07 212.47,128.44 212.87,127.81 213.27,127.19 213.66,126.56 214.06,125.94 214.45,125.31 214.85,124.69 215.25,124.06 215.64,123.44 216.04,122.81 216.43,122.18 216.83,121.54 217.23,120.9 217.62,120.25 218.02,119.59 218.41,118.93 218.81,118.26 219.21,117.58 219.6,116.89 220,116.19 220.39,115.48 220.79,114.77 221.19,114.04 221.58,113.31 221.98,112.57 222.37,111.82 222.77,111.07 223.17,110.31 223.56,109.55 223.96,108.79 224.35,108.02 224.75,107.25 225.15,106.48 225.54,105.71 225.94,104.94 226.33,104.17 226.73,103.4 227.13,102.64 227.52,101.87 227.92,101.11 228.31,100.36 228.71,99.61 229.11,98.86 229.5,98.12 229.9,97.39 230.29,96.65 230.69,95.93 231.08,95.22 231.48,94.51 231.88,93.8 232.27,93.11 232.67,92.42 233.06,91.75 233.46,91.08 233.86,90.42 234.25,89.77 234.65,89.14 235.04,88.5 235.44,87.88 235.84,87.27 236.23,86.66 236.63,86.06 237.02,85.46 237.42,84.87 237.82,84.28 238.21,83.68 238.61,83.09 239,82.49 239.4,81.88 239.8,81.27 240.19,80.64 240.59,80 240.98,79.34 241.38,78.67 241.78,77.97 242.17,77.26 242.57,76.52 242.96,75.76 243.36,74.98 243.76,74.17 244.15,73.35 244.55,72.5 244.94,71.64 245.34,70.77 245.74,69.88 246.13,68.99 246.53,68.09 246.92,67.19 247.32,66.31 247.72,65.43 248.11,64.56 248.51,63.72 248.9,62.9 249.3,62.11 249.7,61.36 250.09,60.64 250.49,59.95 250.88,59.31 251.28,58.71 251.68,58.16 252.07,57.65 252.47,57.18 252.86,56.75 253.26,56.37 253.66,56.02 254.05,55.72 254.45,55.45 254.84,55.21 255.24,55.01 255.63,54.83 256.03,54.67 256.43,54.54 256.82,54.43 257.22,54.34 257.61,54.26 258.01,54.2 258.41,54.15 258.8,54.1 259.2,54.07 259.59,54.04 259.99,54.02 260.39,54 260.78,53.99 261.18,53.98 261.57,53.97" stroke-dasharray="none" stroke="rgb(31,120,180)" stroke-width="0.75" opacity="1" stroke-opacity="1" fill="none"/>
          </g>
          <g id="Fig:densplot_01.xyplot.lines.group.10.panel.1.1.1">
            <polyline id="Fig:densplot_01.xyplot.lines.group.10.panel.1.1.1.1" points="59,53.99 59.4,54.01 59.79,54.03 60.19,54.05 60.59,54.09 60.98,54.13 61.38,54.18 61.78,54.25 62.18,54.33 62.57,54.43 62.97,54.54 63.37,54.69 63.76,54.86 64.16,55.07 64.56,55.31 64.95,55.6 65.35,55.92 65.75,56.31 66.14,56.75 66.54,57.26 66.94,57.83 67.33,58.47 67.73,59.18 68.13,59.97 68.53,60.85 68.92,61.81 69.32,62.85 69.72,63.97 70.11,65.17 70.51,66.45 70.91,67.8 71.3,69.23 71.7,70.72 72.1,72.26 72.49,73.85 72.89,75.48 73.29,77.14 73.68,78.82 74.08,80.5 74.48,82.19 74.88,83.87 75.27,85.54 75.67,87.18 76.07,88.79 76.46,90.36 76.86,91.88 77.26,93.36 77.65,94.8 78.05,96.18 78.45,97.52 78.84,98.8 79.24,100.03 79.64,101.22 80.03,102.37 80.43,103.48 80.83,104.57 81.23,105.62 81.62,106.64 82.02,107.65 82.42,108.65 82.81,109.63 83.21,110.6 83.61,111.57 84,112.54 84.4,113.5 84.8,114.47 85.19,115.43 85.59,116.38 85.99,117.33 86.38,118.28 86.78,119.21 87.18,120.12 87.58,121.02 87.97,121.9 88.37,122.75 88.77,123.57 89.16,124.36 89.56,125.11 89.96,125.82 90.35,126.5 90.75,127.13 91.15,127.73 91.54,128.28 91.94,128.79 92.34,129.28 92.73,129.73 93.13,130.15 93.53,130.55 93.93,130.93 94.32,131.3 94.72,131.66 95.12,132.02 95.51,132.39 95.91,132.76 96.31,133.15 96.7,133.56 97.1,134 97.5,134.47 97.89,134.96 98.29,135.49 98.69,136.05 99.08,136.65 99.48,137.28 99.88,137.96 100.28,138.66 100.67,139.41 101.07,140.18 101.47,140.99 101.86,141.83 102.26,142.7 102.66,143.59 103.05,144.51 103.45,145.44 103.85,146.4 104.24,147.37 104.64,148.36 105.04,149.36 105.43,150.37 105.83,151.39 106.23,152.41 106.63,153.44 107.02,154.47 107.42,155.5 107.82,156.52 108.21,157.55 108.61,158.56 109.01,159.57 109.4,160.57 109.8,161.55 110.2,162.52 110.59,163.48 110.99,164.42 111.39,165.35 111.78,166.27 112.18,167.17 112.58,168.05 112.98,168.93 113.37,169.79 113.77,170.64 114.17,171.49 114.56,172.34 114.96,173.19 115.36,174.04 115.75,174.9 116.15,175.77 116.55,176.65 116.94,177.55 117.34,178.47 117.74,179.41 118.13,180.37 118.53,181.36 118.93,182.37 119.33,183.4 119.72,184.47 120.12,185.55 120.52,186.65 120.91,187.77 121.31,188.91 121.71,190.05 122.1,191.21 122.5,192.37 122.9,193.52 123.29,194.67 123.69,195.81 124.09,196.94 124.48,198.06 124.88,199.14 125.28,200.21 125.68,201.25 126.07,202.27 126.47,203.25 126.87,204.21 127.26,205.13 127.66,206.01 128.06,206.86 128.45,207.68 128.85,208.46 129.25,209.21 129.64,209.93 130.04,210.61 130.44,211.25 130.83,211.86 131.23,212.43 131.63,212.97 132.03,213.46 132.42,213.92 132.82,214.32 133.22,214.69 133.61,215.01 134.01,215.28 134.41,215.5 134.8,215.67 135.2,215.78 135.6,215.83 135.99,215.82 136.39,215.77 136.79,215.65 137.18,215.47 137.58,215.23 137.98,214.93 138.38,214.57 138.77,214.16 139.17,213.68 139.57,213.16 139.96,212.57 140.36,211.92 140.76,211.22 141.15,210.47 141.55,209.66 141.95,208.81 142.34,207.9 142.74,206.93 143.14,205.91 143.53,204.84 143.93,203.73 144.33,202.56 144.73,201.35 145.12,200.09 145.52,198.78 145.92,197.42 146.31,196.03 146.71,194.6 147.11,193.14 147.5,191.66 147.9,190.14 148.3,188.6 148.69,187.04 149.09,185.48 149.49,183.91 149.88,182.34 150.28,180.78 150.68,179.23 151.08,177.69 151.47,176.17 151.87,174.68 152.27,173.22 152.66,171.79 153.06,170.4 153.46,169.05 153.85,167.74 154.25,166.48 154.65,165.26 155.04,164.09 155.44,162.97 155.84,161.9 156.23,160.88 156.63,159.9 157.03,158.98 157.43,158.09 157.82,157.26 158.22,156.47 158.62,155.74 159.01,155.04 159.41,154.38 159.81,153.77 160.2,153.19 160.6,152.66 161,152.16 161.39,151.71 161.79,151.28 162.19,150.89 162.58,150.53 162.98,150.19 163.38,149.89 163.78,149.61 164.17,149.35 164.57,149.11 164.97,148.89 165.36,148.68 165.76,148.48 166.16,148.29 166.55,148.11 166.95,147.93 167.35,147.76 167.74,147.58 168.14,147.4 168.54,147.23 168.93,147.04 169.33,146.86 169.73,146.68 170.13,146.5 170.52,146.31 170.92,146.14 171.32,145.96 171.71,145.8 172.11,145.64 172.51,145.49 172.9,145.36 173.3,145.24 173.7,145.15 174.09,145.07 174.49,145.02 174.89,144.98 175.28,144.97 175.68,144.98 176.08,145.02 176.48,145.08 176.87,145.16 177.27,145.26 177.67,145.38 178.06,145.52 178.46,145.67 178.86,145.83 179.25,146.01 179.65,146.19 180.05,146.38 180.44,146.58 180.84,146.77 181.24,146.97 181.63,147.16 182.03,147.35 182.43,147.54 182.83,147.73 183.22,147.91 183.62,148.09 184.02,148.26 184.41,148.43 184.81,148.6 185.21,148.77 185.6,148.93 186,149.09 186.4,149.26 186.79,149.42 187.19,149.58 187.59,149.74 187.98,149.91 188.38,150.07 188.78,150.22 189.18,150.38 189.57,150.52 189.97,150.66 190.37,150.8 190.76,150.92 191.16,151.03 191.56,151.12 191.95,151.2 192.35,151.26 192.75,151.3 193.14,151.32 193.54,151.32 193.94,151.29 194.33,151.23 194.73,151.15 195.13,151.04 195.53,150.91 195.92,150.75 196.32,150.57 196.72,150.36 197.11,150.13 197.51,149.87 197.91,149.59 198.3,149.29 198.7,148.97 199.1,148.64 199.49,148.28 199.89,147.92 200.29,147.53 200.68,147.14 201.08,146.73 201.48,146.32 201.88,145.89 202.27,145.45 202.67,144.99 203.07,144.53 203.46,144.06 203.86,143.57 204.26,143.08 204.65,142.56 205.05,142.03 205.45,141.49 205.84,140.93 206.24,140.35 206.64,139.75 207.03,139.13 207.43,138.5 207.83,137.85 208.23,137.18 208.62,136.5 209.02,135.8 209.42,135.09 209.81,134.37 210.21,133.64 210.61,132.9 211,132.15 211.4,131.41 211.8,130.66 212.19,129.91 212.59,129.17 212.99,128.43 213.38,127.69 213.78,126.95 214.18,126.22 214.58,125.49 214.97,124.76 215.37,124.04 215.77,123.31 216.16,122.58 216.56,121.85 216.96,121.11 217.35,120.37 217.75,119.62 218.15,118.87 218.54,118.1 218.94,117.32 219.34,116.54 219.73,115.75 220.13,114.94 220.53,114.13 220.93,113.31 221.32,112.48 221.72,111.65 222.12,110.82 222.51,109.98 222.91,109.15 223.31,108.32 223.7,107.49 224.1,106.67 224.5,105.86 224.89,105.06 225.29,104.27 225.69,103.49 226.08,102.73 226.48,101.98 226.88,101.25 227.28,100.54 227.67,99.84 228.07,99.16 228.47,98.5 228.86,97.85 229.26,97.21 229.66,96.59 230.05,95.98 230.45,95.39 230.85,94.8 231.24,94.23 231.64,93.66 232.04,93.1 232.43,92.54 232.83,91.99 233.23,91.44 233.63,90.89 234.02,90.35 234.42,89.81 234.82,89.27 235.21,88.72 235.61,88.18 236.01,87.63 236.4,87.08 236.8,86.53 237.2,85.97 237.59,85.41 237.99,84.84 238.39,84.26 238.78,83.67 239.18,83.07 239.58,82.46 239.98,81.83 240.37,81.18 240.77,80.52 241.17,79.83 241.56,79.13 241.96,78.4 242.36,77.66 242.75,76.89 243.15,76.09 243.55,75.27 243.94,74.44 244.34,73.58 244.74,72.71 245.13,71.82 245.53,70.92 245.93,70.02 246.33,69.1 246.72,68.19 247.12,67.28 247.52,66.38 247.91,65.5 248.31,64.63 248.71,63.78 249.1,62.96 249.5,62.17 249.9,61.41 250.29,60.69 250.69,60.01 251.09,59.37 251.48,58.78 251.88,58.22 252.28,57.71 252.68,57.23 253.07,56.81 253.47,56.43 253.87,56.08 254.26,55.77 254.66,55.5 255.06,55.26 255.45,55.05 255.85,54.87 256.25,54.71 256.64,54.58 257.04,54.46 257.44,54.36 257.83,54.28 258.23,54.22 258.63,54.16 259.03,54.12 259.42,54.08 259.82,54.05 260.22,54.03 260.61,54.01 261.01,53.99 261.41,53.98 261.8,53.97" stroke-dasharray="none" stroke="rgb(31,120,180)" stroke-width="0.75" opacity="1" stroke-opacity="1" fill="none"/>
          </g>
          <g id="Fig:densplot_01.xyplot.lines.group.11.panel.1.1.1">
            <polyline id="Fig:densplot_01.xyplot.lines.group.11.panel.1.1.1.1" points="59.15,53.99 59.55,54 59.94,54.02 60.34,54.04 60.74,54.07 61.13,54.11 61.53,54.16 61.92,54.22 62.32,54.29 62.72,54.38 63.11,54.49 63.51,54.62 63.91,54.78 64.3,54.96 64.7,55.18 65.1,55.44 65.49,55.75 65.89,56.1 66.28,56.5 66.68,56.96 67.08,57.48 67.47,58.05 67.87,58.71 68.27,59.44 68.66,60.24 69.06,61.12 69.46,62.06 69.85,63.09 70.25,64.19 70.64,65.37 71.04,66.61 71.44,67.92 71.83,69.29 72.23,70.71 72.63,72.17 73.02,73.68 73.42,75.22 73.82,76.78 74.21,78.36 74.61,79.93 75,81.51 75.4,83.08 75.8,84.62 76.19,86.14 76.59,87.63 76.99,89.09 77.38,90.5 77.78,91.88 78.18,93.2 78.57,94.48 78.97,95.71 79.36,96.89 79.76,98.04 80.16,99.14 80.55,100.19 80.95,101.21 81.35,102.19 81.74,103.15 82.14,104.07 82.54,104.97 82.93,105.85 83.33,106.72 83.72,107.57 84.12,108.4 84.52,109.24 84.91,110.06 85.31,110.88 85.71,111.7 86.1,112.53 86.5,113.35 86.9,114.17 87.29,114.99 87.69,115.82 88.08,116.65 88.48,117.48 88.88,118.31 89.27,119.14 89.67,119.97 90.07,120.79 90.46,121.62 90.86,122.44 91.26,123.26 91.65,124.07 92.05,124.88 92.44,125.68 92.84,126.47 93.24,127.26 93.63,128.04 94.03,128.82 94.43,129.58 94.82,130.35 95.22,131.1 95.62,131.85 96.01,132.6 96.41,133.34 96.8,134.08 97.2,134.81 97.6,135.54 97.99,136.27 98.39,136.99 98.79,137.71 99.18,138.43 99.58,139.14 99.98,139.85 100.37,140.56 100.77,141.27 101.16,141.98 101.56,142.7 101.96,143.41 102.35,144.13 102.75,144.85 103.15,145.58 103.54,146.32 103.94,147.07 104.34,147.84 104.73,148.62 105.13,149.42 105.52,150.24 105.92,151.08 106.32,151.95 106.71,152.84 107.11,153.76 107.51,154.7 107.9,155.67 108.3,156.66 108.7,157.68 109.09,158.72 109.49,159.79 109.88,160.87 110.28,161.97 110.68,163.08 111.07,164.2 111.47,165.34 111.87,166.48 112.26,167.62 112.66,168.76 113.06,169.91 113.45,171.05 113.85,172.19 114.24,173.33 114.64,174.46 115.04,175.59 115.43,176.71 115.83,177.83 116.23,178.94 116.62,180.05 117.02,181.16 117.42,182.26 117.81,183.36 118.21,184.46 118.6,185.56 119,186.65 119.4,187.75 119.79,188.84 120.19,189.93 120.59,191.01 120.98,192.09 121.38,193.16 121.78,194.23 122.17,195.29 122.57,196.34 122.96,197.38 123.36,198.41 123.76,199.43 124.15,200.44 124.55,201.44 124.95,202.42 125.34,203.38 125.74,204.33 126.13,205.27 126.53,206.19 126.93,207.09 127.32,207.97 127.72,208.82 128.12,209.66 128.51,210.47 128.91,211.26 129.31,212.02 129.7,212.74 130.1,213.43 130.49,214.08 130.89,214.7 131.29,215.27 131.68,215.8 132.08,216.28 132.48,216.71 132.87,217.08 133.27,217.41 133.67,217.68 134.06,217.9 134.46,218.06 134.85,218.16 135.25,218.2 135.65,218.18 136.04,218.11 136.44,217.98 136.84,217.8 137.23,217.55 137.63,217.25 138.03,216.89 138.42,216.47 138.82,216 139.21,215.48 139.61,214.91 140.01,214.28 140.4,213.6 140.8,212.86 141.2,212.08 141.59,211.25 141.99,210.38 142.39,209.45 142.78,208.48 143.18,207.46 143.57,206.4 143.97,205.31 144.37,204.17 144.76,203 145.16,201.79 145.56,200.54 145.95,199.25 146.35,197.94 146.75,196.6 147.14,195.23 147.54,193.84 147.93,192.42 148.33,190.97 148.73,189.5 149.12,188.02 149.52,186.52 149.92,185.01 150.31,183.49 150.71,181.95 151.11,180.42 151.5,178.88 151.9,177.34 152.29,175.81 152.69,174.28 153.09,172.78 153.48,171.28 153.88,169.81 154.28,168.37 154.67,166.95 155.07,165.56 155.47,164.21 155.86,162.91 156.26,161.64 156.65,160.42 157.05,159.25 157.45,158.12 157.84,157.05 158.24,156.03 158.64,155.07 159.03,154.17 159.43,153.31 159.83,152.51 160.22,151.76 160.62,151.07 161.01,150.44 161.41,149.85 161.81,149.31 162.2,148.82 162.6,148.38 163,147.97 163.39,147.62 163.79,147.3 164.19,147.02 164.58,146.77 164.98,146.55 165.37,146.36 165.77,146.2 166.17,146.07 166.56,145.96 166.96,145.87 167.36,145.8 167.75,145.75 168.15,145.72 168.55,145.7 168.94,145.7 169.34,145.71 169.73,145.74 170.13,145.79 170.53,145.84 170.92,145.92 171.32,146.01 171.72,146.11 172.11,146.22 172.51,146.35 172.91,146.5 173.3,146.65 173.7,146.82 174.09,147.01 174.49,147.2 174.89,147.4 175.28,147.61 175.68,147.83 176.08,148.05 176.47,148.27 176.87,148.5 177.27,148.72 177.66,148.95 178.06,149.17 178.45,149.38 178.85,149.59 179.25,149.79 179.64,149.97 180.04,150.15 180.44,150.31 180.83,150.46 181.23,150.6 181.63,150.73 182.02,150.84 182.42,150.94 182.81,151.03 183.21,151.11 183.61,151.18 184,151.25 184.4,151.31 184.8,151.36 185.19,151.42 185.59,151.47 185.99,151.52 186.38,151.57 186.78,151.62 187.17,151.67 187.57,151.72 187.97,151.78 188.36,151.83 188.76,151.88 189.16,151.92 189.55,151.96 189.95,151.99 190.35,152.01 190.74,152.02 191.14,152.01 191.53,151.99 191.93,151.94 192.33,151.88 192.72,151.8 193.12,151.69 193.52,151.56 193.91,151.41 194.31,151.24 194.7,151.04 195.1,150.82 195.5,150.58 195.89,150.32 196.29,150.04 196.69,149.74 197.08,149.43 197.48,149.1 197.88,148.75 198.27,148.4 198.67,148.03 199.06,147.65 199.46,147.26 199.86,146.86 200.25,146.45 200.65,146.03 201.05,145.6 201.44,145.16 201.84,144.7 202.24,144.24 202.63,143.76 203.03,143.27 203.42,142.77 203.82,142.26 204.22,141.74 204.61,141.19 205.01,140.64 205.41,140.07 205.8,139.49 206.2,138.9 206.6,138.29 206.99,137.67 207.39,137.04 207.78,136.39 208.18,135.73 208.58,135.06 208.97,134.38 209.37,133.7 209.77,133 210.16,132.29 210.56,131.57 210.96,130.85 211.35,130.13 211.75,129.39 212.14,128.66 212.54,127.92 212.94,127.18 213.33,126.45 213.73,125.71 214.13,124.97 214.52,124.24 214.92,123.51 215.32,122.79 215.71,122.06 216.11,121.34 216.5,120.62 216.9,119.9 217.3,119.18 217.69,118.46 218.09,117.74 218.49,117.01 218.88,116.27 219.28,115.53 219.68,114.78 220.07,114.02 220.47,113.25 220.86,112.46 221.26,111.67 221.66,110.87 222.05,110.06 222.45,109.24 222.85,108.42 223.24,107.6 223.64,106.77 224.04,105.94 224.43,105.12 224.83,104.31 225.22,103.5 225.62,102.7 226.02,101.92 226.41,101.15 226.81,100.39 227.21,99.65 227.6,98.92 228,98.22 228.4,97.53 228.79,96.86 229.19,96.2 229.58,95.56 229.98,94.94 230.38,94.34 230.77,93.74 231.17,93.17 231.57,92.6 231.96,92.05 232.36,91.51 232.76,90.98 233.15,90.47 233.55,89.96 233.94,89.45 234.34,88.96 234.74,88.47 235.13,87.98 235.53,87.5 235.93,87.01 236.32,86.53 236.72,86.04 237.12,85.55 237.51,85.05 237.91,84.55 238.3,84.03 238.7,83.5 239.1,82.96 239.49,82.39 239.89,81.82 240.29,81.22 240.68,80.59 241.08,79.94 241.48,79.27 241.87,78.57 242.27,77.84 242.66,77.08 243.06,76.3 243.46,75.49 243.85,74.65 244.25,73.79 244.65,72.91 245.04,72.02 245.44,71.1 245.84,70.18 246.23,69.25 246.63,68.32 247.02,67.39 247.42,66.47 247.82,65.57 248.21,64.68 248.61,63.81 249.01,62.98 249.4,62.17 249.8,61.4 250.2,60.67 250.59,59.97 250.99,59.32 251.38,58.72 251.78,58.16 252.18,57.65 252.57,57.18 252.97,56.75 253.37,56.36 253.76,56.02 254.16,55.72 254.56,55.45 254.95,55.21 255.35,55.01 255.74,54.83 256.14,54.67 256.54,54.54 256.93,54.44 257.33,54.34 257.73,54.26 258.12,54.2 258.52,54.15 258.92,54.1 259.31,54.07 259.71,54.04 260.1,54.02 260.5,54 260.9,53.99 261.29,53.98 261.69,53.97" stroke-dasharray="none" stroke="rgb(31,120,180)" stroke-width="0.75" opacity="1" stroke-opacity="1" fill="none"/>
          </g>
          <g id="Fig:densplot_01.xyplot.lines.group.12.panel.1.1.1">
            <polyline id="Fig:densplot_01.xyplot.lines.group.12.panel.1.1.1.1" points="59.26,53.98 59.65,53.99 60.05,54.01 60.45,54.03 60.84,54.05 61.24,54.09 61.63,54.13 62.03,54.18 62.43,54.24 62.82,54.32 63.22,54.41 63.61,54.52 64.01,54.66 64.41,54.82 64.8,55.01 65.2,55.23 65.59,55.49 65.99,55.79 66.38,56.14 66.78,56.53 67.18,56.97 67.57,57.48 67.97,58.04 68.36,58.67 68.76,59.35 69.16,60.09 69.55,60.9 69.95,61.78 70.34,62.73 70.74,63.73 71.14,64.79 71.53,65.91 71.93,67.07 72.32,68.28 72.72,69.53 73.12,70.81 73.51,72.12 73.91,73.45 74.3,74.8 74.7,76.15 75.09,77.5 75.49,78.85 75.89,80.19 76.28,81.51 76.68,82.82 77.07,84.1 77.47,85.36 77.87,86.6 78.26,87.81 78.66,88.99 79.05,90.15 79.45,91.29 79.85,92.4 80.24,93.5 80.64,94.57 81.03,95.63 81.43,96.68 81.83,97.72 82.22,98.75 82.62,99.77 83.01,100.79 83.41,101.81 83.8,102.83 84.2,103.85 84.6,104.87 84.99,105.89 85.39,106.91 85.78,107.93 86.18,108.95 86.58,109.97 86.97,110.99 87.37,112 87.76,113 88.16,114 88.56,114.98 88.95,115.95 89.35,116.9 89.74,117.84 90.14,118.75 90.54,119.65 90.93,120.52 91.33,121.37 91.72,122.19 92.12,122.99 92.51,123.76 92.91,124.51 93.31,125.23 93.7,125.93 94.1,126.61 94.49,127.27 94.89,127.92 95.29,128.55 95.68,129.17 96.08,129.79 96.47,130.4 96.87,131.01 97.27,131.63 97.66,132.25 98.06,132.88 98.45,133.53 98.85,134.2 99.24,134.89 99.64,135.6 100.04,136.34 100.43,137.09 100.83,137.88 101.22,138.69 101.62,139.53 102.02,140.4 102.41,141.29 102.81,142.21 103.2,143.15 103.6,144.12 104,145.11 104.39,146.12 104.79,147.15 105.18,148.2 105.58,149.26 105.98,150.35 106.37,151.45 106.77,152.56 107.16,153.68 107.56,154.81 107.95,155.95 108.35,157.09 108.75,158.23 109.14,159.38 109.54,160.52 109.93,161.66 110.33,162.79 110.73,163.92 111.12,165.03 111.52,166.14 111.91,167.23 112.31,168.31 112.71,169.39 113.1,170.45 113.5,171.51 113.89,172.56 114.29,173.61 114.69,174.66 115.08,175.7 115.48,176.75 115.87,177.81 116.27,178.87 116.66,179.95 117.06,181.03 117.46,182.13 117.85,183.25 118.25,184.37 118.64,185.52 119.04,186.67 119.44,187.84 119.83,189.02 120.23,190.21 120.62,191.41 121.02,192.61 121.42,193.82 121.81,195.03 122.21,196.23 122.6,197.42 123,198.61 123.4,199.78 123.79,200.95 124.19,202.09 124.58,203.21 124.98,204.31 125.37,205.39 125.77,206.45 126.17,207.47 126.56,208.47 126.96,209.44 127.35,210.37 127.75,211.27 128.15,212.13 128.54,212.96 128.94,213.76 129.33,214.52 129.73,215.24 130.13,215.91 130.52,216.55 130.92,217.16 131.31,217.72 131.71,218.24 132.11,218.71 132.5,219.14 132.9,219.53 133.29,219.86 133.69,220.16 134.08,220.4 134.48,220.6 134.88,220.73 135.27,220.82 135.67,220.84 136.06,220.81 136.46,220.73 136.86,220.59 137.25,220.38 137.65,220.1 138.04,219.76 138.44,219.35 138.84,218.89 139.23,218.36 139.63,217.76 140.02,217.09 140.42,216.36 140.81,215.56 141.21,214.71 141.61,213.79 142,212.81 142.4,211.77 142.79,210.67 143.19,209.51 143.59,208.3 143.98,207.04 144.38,205.72 144.77,204.36 145.17,202.95 145.57,201.49 145.96,200 146.36,198.47 146.75,196.9 147.15,195.31 147.55,193.69 147.94,192.05 148.34,190.39 148.73,188.72 149.13,187.05 149.52,185.37 149.92,183.69 150.32,182.03 150.71,180.38 151.11,178.75 151.5,177.14 151.9,175.56 152.3,174.01 152.69,172.5 153.09,171.03 153.48,169.61 153.88,168.23 154.28,166.89 154.67,165.61 155.07,164.37 155.46,163.18 155.86,162.05 156.26,160.97 156.65,159.94 157.05,158.95 157.44,158.02 157.84,157.13 158.23,156.29 158.63,155.5 159.03,154.75 159.42,154.03 159.82,153.36 160.21,152.73 160.61,152.14 161.01,151.59 161.4,151.07 161.8,150.58 162.19,150.13 162.59,149.71 162.99,149.32 163.38,148.97 163.78,148.64 164.17,148.35 164.57,148.08 164.97,147.84 165.36,147.63 165.76,147.44 166.15,147.29 166.55,147.15 166.94,147.04 167.34,146.95 167.74,146.88 168.13,146.83 168.53,146.8 168.92,146.79 169.32,146.79 169.72,146.8 170.11,146.82 170.51,146.85 170.9,146.89 171.3,146.94 171.7,146.99 172.09,147.04 172.49,147.1 172.88,147.16 173.28,147.23 173.67,147.29 174.07,147.36 174.47,147.43 174.86,147.5 175.26,147.58 175.65,147.66 176.05,147.75 176.45,147.85 176.84,147.96 177.24,148.08 177.63,148.21 178.03,148.36 178.43,148.51 178.82,148.68 179.22,148.86 179.61,149.06 180.01,149.26 180.41,149.48 180.8,149.7 181.2,149.94 181.59,150.18 181.99,150.42 182.38,150.67 182.78,150.92 183.18,151.17 183.57,151.42 183.97,151.66 184.36,151.91 184.76,152.14 185.16,152.38 185.55,152.61 185.95,152.84 186.34,153.05 186.74,153.27 187.14,153.47 187.53,153.67 187.93,153.85 188.32,154.03 188.72,154.19 189.12,154.34 189.51,154.47 189.91,154.59 190.3,154.68 190.7,154.75 191.09,154.8 191.49,154.82 191.89,154.8 192.28,154.76 192.68,154.69 193.07,154.59 193.47,154.46 193.87,154.3 194.26,154.11 194.66,153.9 195.05,153.65 195.45,153.39 195.85,153.11 196.24,152.81 196.64,152.49 197.03,152.15 197.43,151.8 197.83,151.45 198.22,151.08 198.62,150.7 199.01,150.31 199.41,149.91 199.8,149.49 200.2,149.07 200.6,148.63 200.99,148.19 201.39,147.72 201.78,147.24 202.18,146.74 202.58,146.23 202.97,145.7 203.37,145.14 203.76,144.58 204.16,143.99 204.56,143.38 204.95,142.76 205.35,142.12 205.74,141.47 206.14,140.8 206.54,140.13 206.93,139.44 207.33,138.74 207.72,138.03 208.12,137.32 208.51,136.61 208.91,135.89 209.31,135.16 209.7,134.44 210.1,133.71 210.49,132.98 210.89,132.26 211.29,131.53 211.68,130.81 212.08,130.08 212.47,129.36 212.87,128.64 213.27,127.92 213.66,127.2 214.06,126.48 214.45,125.75 214.85,125.03 215.24,124.3 215.64,123.57 216.04,122.83 216.43,122.09 216.83,121.34 217.22,120.59 217.62,119.82 218.02,119.05 218.41,118.26 218.81,117.47 219.2,116.66 219.6,115.85 220,115.02 220.39,114.19 220.79,113.34 221.18,112.49 221.58,111.64 221.98,110.78 222.37,109.92 222.77,109.06 223.16,108.21 223.56,107.36 223.95,106.52 224.35,105.69 224.75,104.87 225.14,104.06 225.54,103.27 225.93,102.5 226.33,101.75 226.73,101.01 227.12,100.29 227.52,99.59 227.91,98.9 228.31,98.24 228.71,97.59 229.1,96.96 229.5,96.34 229.89,95.73 230.29,95.13 230.69,94.54 231.08,93.96 231.48,93.39 231.87,92.83 232.27,92.27 232.66,91.71 233.06,91.16 233.46,90.61 233.85,90.06 234.25,89.52 234.64,88.98 235.04,88.44 235.44,87.9 235.83,87.36 236.23,86.82 236.62,86.28 237.02,85.73 237.42,85.18 237.81,84.63 238.21,84.06 238.6,83.49 239,82.91 239.4,82.31 239.79,81.7 240.19,81.07 240.58,80.42 240.98,79.75 241.37,79.06 241.77,78.34 242.17,77.6 242.56,76.83 242.96,76.04 243.35,75.23 243.75,74.39 244.15,73.53 244.54,72.66 244.94,71.76 245.33,70.86 245.73,69.94 246.13,69.02 246.52,68.1 246.92,67.18 247.31,66.27 247.71,65.38 248.1,64.5 248.5,63.64 248.9,62.82 249.29,62.02 249.69,61.27 250.08,60.54 250.48,59.86 250.88,59.22 251.27,58.62 251.67,58.08 252.06,57.57 252.46,57.11 252.86,56.69 253.25,56.31 253.65,55.97 254.04,55.67 254.44,55.41 254.84,55.18 255.23,54.98 255.63,54.8 256.02,54.65 256.42,54.52 256.81,54.42 257.21,54.33 257.61,54.25 258,54.19 258.4,54.14 258.79,54.1 259.19,54.06 259.59,54.04 259.98,54.02 260.38,54 260.77,53.98 261.17,53.97 261.57,53.97" stroke-dasharray="none" stroke="rgb(31,120,180)" stroke-width="0.75" opacity="1" stroke-opacity="1" fill="none"/>
          </g>
        </g>
        <g id="Fig:densplot_01.panel.1.1.off.vp.2">
          <g id="Fig:densplot_01.border.panel.1.1.1">
            <rect id="Fig:densplot_01.border.panel.1.1.1.1" x="44.8" y="42.19" width="231.2" height="191.81" transform="" stroke="rgb(0,0,0)" stroke-dasharray="none" stroke-width="0.75" opacity="1" fill="none" stroke-opacity="1" fill-opacity="0"/>
          </g>
        </g>
        <g id="Fig:densplot_01..1"/>
      </g>
    </g>
  </g>
</svg>